<svg xmlns="http://www.w3.org/2000/svg" xmlns:xlink="http://www.w3.org/1999/xlink" viewBox="0 0 4500 2500"><defs><style>.cls-1{fill:#aed3f0;}.cls-2{fill:#c3dcf3;}.cls-3{fill:#368b7f;}.cls-4{fill:#44ae9e;}.cls-5{fill:#ffc787;}.cls-6{fill:url(#linear-gradient);}.cls-7{fill:url(#linear-gradient-2);}.cls-8{fill:url(#linear-gradient-3);}.cls-9{fill:url(#linear-gradient-4);}.cls-10{fill:url(#linear-gradient-5);}.cls-11{fill:url(#linear-gradient-6);}.cls-12{fill:url(#linear-gradient-7);}.cls-13{fill:url(#linear-gradient-8);}.cls-14{fill:#ffb765;}.cls-15{fill:#ffd2a4;}.cls-16{fill:#ffcd9a;}.cls-17{fill:#ffc589;}.cls-18{fill:#ec6198;}.cls-19{fill:#f18db5;}.cls-20{fill:#e94586;}.cls-21{fill:#e43a7d;}.cls-22{fill:#c51b5e;}.cls-23{fill:#ffdebc;}.cls-24{fill:#e0bf38;}.cls-25{fill:#94c5eb;}.cls-26{fill:#e8cf69;}.cls-27{fill:url(#linear-gradient-9);}.cls-28{fill:url(#linear-gradient-10);}.cls-29{fill:url(#linear-gradient-11);}.cls-30{fill:url(#linear-gradient-12);}.cls-31{fill:url(#linear-gradient-13);}.cls-32{fill:url(#linear-gradient-14);}.cls-33{fill:url(#linear-gradient-15);}.cls-34{fill:url(#linear-gradient-16);}.cls-35{fill:url(#linear-gradient-17);}.cls-36{fill:url(#linear-gradient-18);}.cls-37{fill:url(#linear-gradient-19);}.cls-38{fill:url(#linear-gradient-20);}.cls-39{fill:url(#linear-gradient-21);}.cls-40{fill:url(#linear-gradient-22);}</style><linearGradient id="linear-gradient" x1="3919.81" y1="1250" x2="5251.98" y2="1250" gradientUnits="userSpaceOnUse"><stop offset="0" stop-color="#fff" stop-opacity="0"/><stop offset="1" stop-color="#fff"/></linearGradient><linearGradient id="linear-gradient-2" x1="1279.44" y1="201.83" x2="2273.06" y2="599.49" xlink:href="#linear-gradient"/><linearGradient id="linear-gradient-3" x1="2079.11" y1="217.98" x2="3136.23" y2="711.14" xlink:href="#linear-gradient"/><linearGradient id="linear-gradient-4" x1="3219.15" y1="147.9" x2="4095.17" y2="592.72" xlink:href="#linear-gradient"/><linearGradient id="linear-gradient-5" x1="3865.8" y1="566.72" x2="4454.32" y2="626.65" xlink:href="#linear-gradient"/><linearGradient id="linear-gradient-6" x1="3919.81" y1="599.94" x2="5251.98" y2="599.94" xlink:href="#linear-gradient"/><linearGradient id="linear-gradient-7" x1="3863.28" y1="591.46" x2="4451.8" y2="651.39" xlink:href="#linear-gradient"/><linearGradient id="linear-gradient-8" x1="709.61" y1="729.23" x2="1488.28" y2="812.96" xlink:href="#linear-gradient"/><linearGradient id="linear-gradient-9" x1="-531.45" y1="1770.69" x2="4308.39" y2="1770.69" xlink:href="#linear-gradient"/><linearGradient id="linear-gradient-10" x1="-531.45" y1="1768.93" x2="4308.39" y2="1768.93" xlink:href="#linear-gradient"/><linearGradient id="linear-gradient-11" x1="-531.45" y1="1769.86" x2="4308.39" y2="1769.86" xlink:href="#linear-gradient"/><linearGradient id="linear-gradient-12" x1="-531.45" y1="1767.22" x2="4308.39" y2="1767.22" xlink:href="#linear-gradient"/><linearGradient id="linear-gradient-13" x1="-531.45" y1="1777.04" x2="4308.39" y2="1777.04" xlink:href="#linear-gradient"/><linearGradient id="linear-gradient-14" x1="-531.45" y1="1780.07" x2="4308.39" y2="1780.07" xlink:href="#linear-gradient"/><linearGradient id="linear-gradient-15" x1="-531.45" y1="1773.63" x2="4308.39" y2="1773.63" xlink:href="#linear-gradient"/><linearGradient id="linear-gradient-16" x1="-531.45" y1="1784.89" x2="4308.39" y2="1784.89" xlink:href="#linear-gradient"/><linearGradient id="linear-gradient-17" x1="-531.45" y1="1770.85" x2="4308.39" y2="1770.85" xlink:href="#linear-gradient"/><linearGradient id="linear-gradient-18" x1="-531.45" y1="1764.48" x2="4308.39" y2="1764.48" xlink:href="#linear-gradient"/><linearGradient id="linear-gradient-19" x1="-531.45" y1="1790.12" x2="4308.39" y2="1790.12" xlink:href="#linear-gradient"/><linearGradient id="linear-gradient-20" x1="-531.45" y1="1787.37" x2="4308.39" y2="1787.37" xlink:href="#linear-gradient"/><linearGradient id="linear-gradient-21" x1="-531.45" y1="1792.73" x2="4098.43" y2="1792.73" xlink:href="#linear-gradient"/><linearGradient id="linear-gradient-22" x1="-531.45" y1="1906.68" x2="4308.39" y2="1906.68" xlink:href="#linear-gradient"/></defs><g id="Layer_3" data-name="Layer 3"><path class="cls-1" d="M4375.59,420.28c11.08,62,19.36,121.78,25.59,179.33,29.11-33.32,64.11-70.3,98.82-96.73V0H4267.71C4287.12,44.34,4329.38,161.52,4375.59,420.28Z"/><path class="cls-1" d="M4.72,1461.58c10.26-73.82,26-139.91,43.28-184.22,1.44-3.7.32-10.8,4.29-11.12,1.58-.13,2.73,1.78,3.72,3,46.73,60.5,86,137.68,116.28,218.13l39.68,6.12s2.14,5.84,5.66,16.09l1.93-1c-27.2-120.19-66.09-241.28-102.4-356.49-12.49-39.73-29.59-78.84-37.69-119.46-2.9-14.47-44.23-79-40-90.29.14-.35.29-.67.45-1,13.84-27.07,139.25,76,153.4,84.84,25.34,15.79,50.48,35.32,74.56,57.3-1.77-46.13-3.91-92.16-10.16-137.24-5.9-42.54-13-86.17-22.31-128.07-4.15-18.78-29.73-63.47-11.87-56.46,33.88,13.32,70.21,107.45,86.4,136.45,19.2,34.36,53.16,58.45,71.07,94.3,58.46,117.1,102.2,244,136.14,374.45a273.93,273.93,0,0,1,28.75-6.25c25.91-4.13,52-6.93,78.15-8.8-32.53-102.75-69.47-193.7-115.86-260.91-8.47-12.32-18-19.81-27.85-31.49C388.25,951,318,776.92,256.17,648.11c-3.86-8.05-7.56-16.19-11.8-24.05q-14.81-27.57-28.77-55.81C141,594.88,69,627.58,0,667.68V0H0V1460.85Z"/><path class="cls-1" d="M4500,1645.82V1201.47c-10.71,80.74-24.09,161.16-42.73,241C4469.56,1505.81,4484.6,1575.22,4500,1645.82Z"/><path class="cls-1" d="M516.35,539.59q-2-24.68-3.48-46.35-56.58,9.3-112,21.71c41.4,31.83,83.3,62.91,123.45,95.77C520.9,586.1,518.21,562.31,516.35,539.59Z"/><path class="cls-1" d="M665.78,560c-6.84-28.82-13.7-57.09-20.58-84.53q-15,1.61-30,3.37c15,23.08,30,46.11,43.55,69.28Q662.24,554.1,665.78,560Z"/><path class="cls-1" d="M3503.28,1894.69c-7.94,48.66-15.84,96.65-24.07,144.12,26.42-41.1,55.25-74.39,82.38-78.71,13.78-2.19,11.1,84.93,11.13,91.63.29,89.24,7.19,186.89-.32,281.44,42.17-42.54,85.41-79.32,123.1-105.07-54.59-260.16-144.81-717.67-144.81-717.67-15.17,69.75-32.14,136.41-49.41,198C3522.48,1727.29,3505.87,1878.82,3503.28,1894.69Z"/><path class="cls-2" d="M0,667.68c68.94-40.1,141-72.8,215.59-99.43C158.25,451.78,114.77,326.86,113.76,193.76c0-2.28-.73-13-.79-23.73V169c0-3.93.08-7.83.33-11.28h0c.49-6.72,1.59-11.77,3.78-12.14,17.32-3,52.28,98,57.4,109.2C214.29,341.27,282,420.38,355.63,479.49q22.41,18,45.26,35.46,55.37-12.48,112-21.71c-9.14-135.87-2.58-186.82,3.24-190.93,1.82-1.3,32.14,64.69,34.12,68.62,18.47,36.57,41.79,72.31,65,107.93q15-1.77,30-3.37-7.5-30-15-58.53C573.29,201.33,568,76.7,600.44,0H0Z"/><path class="cls-3" d="M524.34,610.72c71.95,58.88,138.28,123.49,186,208.38,8.91,15.84,17.53,33.09,25.86,51.58C713.42,768.67,689.74,661,665.78,560q-3.53-5.92-7-11.88c-13.56-23.17-28.53-46.2-43.55-69.28-23.19-35.62-46.51-71.36-65-107.93-2-3.93-32.3-69.92-34.12-68.62-5.82,4.11-12.38,55.06-3.24,190.93q1.47,21.7,3.48,46.35C518.21,562.31,520.9,586.1,524.34,610.72Z"/><path class="cls-3" d="M872.93,1350.86c-5.49-12.76-10.48-24.23-14.89-34.19q3,16.93,5.89,34Z"/><path class="cls-3" d="M56,1269.29c-1-1.27-2.14-3.18-3.72-3-4,.32-2.85,7.42-4.29,11.12-17.32,44.31-33,110.4-43.28,184.22l167.57,25.84C142,1407,102.74,1329.79,56,1269.29Z"/><path class="cls-3" d="M4401.18,599.61c29.33,271,13.18,493.09,29.75,674.11,4.27,46.6,13.89,104.55,26.34,168.75,18.64-79.84,32-160.26,42.73-241V502.88C4465.29,529.31,4430.29,566.29,4401.18,599.61Z"/><path class="cls-3" d="M3503.28,1894.69c2.59-15.87,19.2-167.4-2-186.29-61.43,219.1-126.5,373.73-126.5,373.73s11.62,39.31,30.55,94.27c17.78-35.88,44.32-91.62,73.88-137.59C3487.44,1991.34,3495.34,1943.35,3503.28,1894.69Z"/><path class="cls-3" d="M3695.5,2228.1c-37.69,25.75-80.93,62.53-123.1,105.07-4.59,57.63-14.52,114.11-34.58,166.83h219.81c-8.93-38-18.64-78.63-28.31-117.79C3722.23,2353.46,3710.15,2297.87,3695.5,2228.1Z"/><path class="cls-4" d="M98.5,1032.41c68,124,116.25,236.12,164.64,369.32,8.48,23.33,17.55,46.66,26.94,70,10.86-5.62,21.78-11.1,32.84-16.32-14.33-57.51-26.82-114.58-37.77-170.29-12.9-65.58-14.71-133.67-17.32-201.54-24.08-22-49.22-41.51-74.56-57.3-14.15-8.81-139.56-111.91-153.4-84.84l.24-.45C60.89,971,81.59,1001.55,98.5,1032.41Z"/><path class="cls-4" d="M3572.72,2051.73c0-6.7,2.65-93.82-11.13-91.63-27.13,4.32-56,37.61-82.38,78.71-29.56,46-56.1,101.71-73.88,137.59,14.5,42.08,33.28,93.33,54.41,143.16,19.76,46.62,49.39,115.28,77.64,180.44h.44c20.06-52.72,30-109.2,34.58-166.83C3579.91,2238.62,3573,2141,3572.72,2051.73Z"/><path class="cls-4" d="M261.48,455.28c62.78,71.16,99.35,148.4,137.79,234.2,7.16,16,31.42,48.28,29.31,66.66-.62,5.3-8-7.06-11.91-10.69-12.52-11.64-22.6-24.77-33.27-38.17-30.43-38.17-64.1-70.72-88.9-113.89-2.38-4.17-52.68-70.89-51.58-53.85,8,123.81,159.11,229.15,213.67,333.9,51.45,98.79,158.6,153.15,213.18,249.08,32.46,57,60.66,136.23,84.57,226.28,36.51.34,73.08,1.31,109.59,1.92q-2.89-17.12-5.89-34c-2.67-6-5.12-11.48-7.34-16.34-33-72.28-72.29-241.33-114.45-429.65-8.33-18.49-17-35.74-25.86-51.58-47.77-84.89-114.1-149.5-186-208.38-40.15-32.86-82.05-63.94-123.45-95.77q-22.78-17.51-45.26-35.46C282,420.38,214.29,341.27,174.48,254.74c-5.12-11.16-40.08-112.16-57.4-109.2-2.19.37-3.29,5.42-3.78,12.14,12.28,66.27,21,137.61,54.08,196.07C191.18,395.87,230.62,420.32,261.48,455.28Z"/><path class="cls-4" d="M994.72,2373c-43.08,6.19-75.77,10.2-88.79,10.33-3.76,0-11,.68-21.41,1.85,1.87,20,3.13,40.1,3.42,60.27.06,3.27,4.94,53.54,3.41,53.86-5.15,1.08-18.82-40.15-19.38-46.29a597.73,597.73,0,0,0-10.14-65.06c-63.9,8.23-185.85,26.54-321.77,47.57,6.07,21.43,13.52,43,20.91,64.51H946.18C960.8,2461.33,977.46,2417.79,994.72,2373Z"/><path class="cls-4" d="M420.64,2481.57a230.89,230.89,0,0,0-27.3-23.19c-92.42,14.52-184.16,29.09-262.64,41.62h307C432.21,2493.6,426.53,2487.42,420.64,2481.57Z"/><path class="cls-4" d="M113,169.6v0Z"/><path class="cls-4" d="M113.76,193.76c0-2.28-.73-13-.79-23.73C113,180.78,113.75,191.48,113.76,193.76Z"/><path class="cls-3" d="M322.92,1455.41l3.31-1.57c60-28,124.82-68.87,190.87-86.83C483.16,1236.58,439.42,1109.66,381,992.56c-17.91-35.85-51.87-59.94-71.07-94.3-16.19-29-52.52-123.13-86.4-136.45-17.86-7,7.72,37.68,11.87,56.46,9.28,41.9,16.41,85.53,22.31,128.07,6.25,45.08,8.39,91.11,10.16,137.24,2.61,67.87,4.42,136,17.32,201.54C296.1,1340.83,308.59,1397.9,322.92,1455.41Z"/><path class="cls-3" d="M754.34,1348.8c-23.91-90-52.11-169.25-84.57-226.28C615.19,1026.59,508,972.23,456.59,873.44,402,768.69,250.94,663.35,242.92,539.54c-1.1-17,49.2,49.68,51.58,53.85,24.8,43.17,58.47,75.72,88.9,113.89,10.67,13.4,20.75,26.53,33.27,38.17,3.92,3.63,11.29,16,11.91,10.69,2.11-18.38-22.15-50.7-29.31-66.66-38.44-85.8-75-163-137.79-234.2-30.86-35-70.3-59.41-94.1-101.53-33-58.46-41.8-129.8-54.08-196.07h0c-.25,3.45-.34,7.35-.33,11.28V170c.06,10.75.79,21.45.79,23.73,1,133.1,44.49,258,101.84,374.49q13.91,28.25,28.77,55.81c4.24,7.86,7.94,16,11.8,24.05C318,776.92,388.25,951,480.29,1059.56c9.89,11.68,19.38,19.17,27.85,31.49C554.53,1158.26,591.47,1249.21,624,1352,667.23,1348.89,710.74,1348.39,754.34,1348.8Z"/><path class="cls-3" d="M872,2453c.56,6.14,14.23,47.37,19.38,46.29,1.53-.32-3.35-50.59-3.41-53.86-.29-20.17-1.55-40.25-3.42-60.27-6.43.73-14,1.66-22.69,2.78A597.73,597.73,0,0,1,872,2453Z"/><path class="cls-3" d="M263.14,1401.73c-48.39-133.2-96.65-245.35-164.64-369.32C81.59,1001.55,60.89,971,40.11,941l-.24.45c-.16.32-.31.64-.45,1-4.18,11.32,37.15,75.82,40.05,90.29,8.1,40.62,25.2,79.73,37.69,119.46,36.31,115.21,75.2,236.3,102.4,356.49,23.69-11.94,46.95-24.73,70.52-36.94C280.69,1448.39,271.62,1425.06,263.14,1401.73Z"/><path class="cls-3" d="M540.06,2435.49c-47.82,7.4-97.36,15.14-146.72,22.89a230.89,230.89,0,0,1,27.3,23.19c5.89,5.85,11.57,12,17.1,18.43H561C553.58,2478.47,546.13,2456.92,540.06,2435.49Z"/><path class="cls-5" d="M1795.51,1631.46c-6.57-20.16-44.62-38.16-60.38-52.62-19.4-17.73-34.17-45.13-62.27-50.1-47-8.31-101.25,91.4-152.41,143.88-18,31-41.29,60.87-62.69,86.25,64-10.46,126.54-26.26,189.41-43.86,44.81-12.55,99.52-25.36,152.14-37.36C1800.73,1660.7,1799.9,1644.94,1795.51,1631.46Z"/><path class="cls-5" d="M4375.56,420.27c63.25,354.09,35.23,634,55.34,853.44,8.49,92.62,38.08,230.06,69.1,372.27v-.16c-15.4-70.6-30.44-140-42.73-203.35-12.45-64.2-22.07-122.15-26.34-168.75-16.57-181-.42-403.15-29.75-674.11-6.23-57.55-14.51-117.3-25.59-179.33C4329.38,161.52,4287.12,44.34,4267.71,0h-.05C4287.07,44.34,4329.33,161.52,4375.56,420.27Z"/><path class="cls-5" d="M1870.69,1598.63c-6.54,10.32-11.38,37.15-15.43,66.31,12.66-2.88,24.9-5.69,36.52-8.39,45.64-10.64,108.26-9.73,176.86-8.82-64.94-16.3-128.76-34.6-193-56.11C1873.91,1593.82,1872.27,1596.15,1870.69,1598.63Z"/><path class="cls-5" d="M2242.08,2020.19l.44.07c.61.1,1.23.19,1.85.26h.12l.2,0c.69.08,1.38.14,2.08.18l.37,0c.61,0,1.22.06,1.84.08h2.79l2.15-.06.48,0c.6,0,1.2-.06,1.8-.11l.48,0,2.08-.17.17,0h0l2-.22h.13l.45,0,1.64-.21.09,0,.62-.08,1.29-.19.32-.05h.06l.45-.07,1.43-.24.59-.1,1.35-.24.39-.07,1.54-.31.51-.1,1-.21.47-.1,1.25-.29c42.2-9.81,83-28.64,123-44.92,46.33-18.84,54.12-64.08,66.28-107.64,0-1.25.07-2.52.15-3.8,0-.81.13-1.64.2-2.46,0-.48.07-1,.12-1.44.09-.92.21-1.86.33-2.79.05-.39.09-.78.15-1.18.13-1,.29-2,.45-3,0-.36.1-.72.17-1.08.17-1,.36-2,.55-3.07.06-.34.12-.68.19-1,.2-1,.42-2.09.64-3.15l.21-1c.23-1.06.47-2.13.72-3.19.07-.33.15-.65.22-1l.78-3.2c.08-.33.17-.66.25-1l.81-3.17c.1-.35.19-.71.28-1.07l.82-3c.12-.42.23-.84.35-1.26.25-.93.51-1.85.76-2.77.18-.62.35-1.23.52-1.84s.37-1.31.55-2c1.61-5.67,3.22-11.21,4.64-16.45h0c.28-1,.57-2.08.83-3.1-62.46,22.75-126.2,42.79-184.64,74.64-52.77,28.76-93.5,74.59-65.1,139,.17.38.36.74.56,1.09l.21.33c.15.23.31.46.47.68l.27.35c.17.22.36.43.55.64l.25.27c.28.27.57.54.88.79l.27.21.71.53.41.26c.22.15.45.28.69.42l.42.23c.28.15.57.3.87.43l.3.15c.38.17.78.33,1.19.48l.46.16.85.28.53.16.9.24.48.12.1,0C2240.8,2020,2241.44,2020.08,2242.08,2020.19Z"/><path class="cls-5" d="M1856.5,2431.1c-39.68-9.28-80.18-17-120.68-25.08-5.18,28.56-12,62.82-19.68,94h429.74C2048.62,2481.17,1952.89,2453.66,1856.5,2431.1Z"/><path class="cls-5" d="M1709.19,2400.66c-52.46-10.69-104.6-22.53-154.66-39.45-23-7.77-43.34-24.17-66.4-30.63-50.27-14.09-74.41,79.34-109.82,91.87-29,10.27-156.42-28-250.83-69.89-48.13,7.72-94.54,14.92-132.76,20.4-17.26,44.83-33.92,88.37-48.54,127H1695.3C1698.87,2466.69,1704.13,2433.7,1709.19,2400.66Z"/><path class="cls-5" d="M1332.45,857.28c65.43,122.8,240.28,229.82,328.77,280.27,52.41,19.28,104.31,26.47,130.33-3.58,15.4-17.77-.5-147.83-2.3-172.86-13.06-179.86-36.06-358.11-36.06-538.86,0-79.81,11.23-156.42,28.44-234,2-9.15,12.88-59.91,23.66-60.91,3.91-.36,0,81.46-2.24,110.66-5.27,67.27-6.4,134.49-6.4,202.06,0,183.57-13.14,361.56,22.91,542.94,14.39,72.31,44.62,174.1,112.21,215.44,34.33,21,85.38,22.7,123.7,17.18,200.39-28.89,365.19-206.47,436.74-389.55,22.61-57.86,41.57-116.8,65.24-174.33,0-.09.08-.21.13-.34,46.62-147.71,110.23-351.45,154.3-492.9C2561.46,425.63,2265.32,730.21,2136,748.27,1848.44,788.42,1850.89,215.72,1875.49,0H1745.67c-15.14,57-40.42,112.49-50.26,171-26.53,157.49-26.59,311.91-43.38,469.11-1.91,17.87-.78,78.24-19.37,86.55-27.59,12.32-133-95.27-149.55-112.39-48-49.58-113.87-89.63-154.47-145.38-44.9-61.66-155.71-312-191.46-468.85H1126.9C1133.39,150.65,1252,706.25,1332.45,857.28ZM1972.14,1085c10.09,11.85,19.29,24.5,29.35,36.41,13.72,16.22,24.06,35.29,33.92,54,4.93,9.39,7,19.59,11.58,28.92l-34.08-16.42C1961.84,1177.17,1915,1017.91,1972.14,1085Zm-314-105.78c32.28,29.87,52.21,69.89,65.23,111.34l-26.38,1C1635.39,1085.42,1575.31,902.52,1658.17,979.2Z"/><path class="cls-5" d="M2884.78,162.87c-43,186.8-117.58,367-146.79,557.93-7.43,48.6-50.91,188-4.94,227.25,122.74,104.82,580.4,193,699.09,93.9,2.13-1.79,4.55-6,5.38-8.64,3-9.4-140.17-221.1-136.29-288.16.19-3.28,45.95,34.84,50.27,39.76,27.9,31.74,50.1,68.37,73.85,102.89,1.77,2.55,18.29,32.36,20.59,31.09,8.7-4.82-27.46-221.07,13.75-250.16,2.49-1.74,6.9,53.65,6.9,57.37.13,39.28-3.94,80.68,0,119.76,3.08,30.3,28,182.13,33.43,273.26,3.1.26,4.56.41,4.56.41h0l48.22,387.08s-4.75,2.28-13.59,6.33c-19,118.46-88,311.9-101.64,351.23-25.44,73.21-60.94,147.28-76,223.51-7.7,39-5.07,80.07-13.83,118.54-.47,2.1-.58,13.46-4.76,13.57-161.73,4.29-45.64-98.33-28.91-154,18.38-61,48.67-227.38,41.85-289.58-7.34-67-225-55.24-265.76-52.29-115.24,8.35-254.49,10.92-395.3,6.5-7.66,60.09-23.11,130.14-25.92,147.68-11.11,69.25-22.64,176.92,3.27,244.81,6.54,17.11,30.49,33.26,33.09,50.23,14.13,92.41-68,227-136.29,281.59a286.58,286.58,0,0,1-80.61,45.21H3537.38c-28.25-65.16-57.88-133.82-77.64-180.44-21.13-49.83-39.91-101.08-54.41-143.16-18.93-55-30.55-94.27-30.55-94.27s65.07-154.63,126.5-373.73c17.27-61.56,34.24-128.22,49.41-198,0,0,90.22,457.51,144.81,717.67,14.65,69.77,26.73,125.36,33.82,154.11-27.63-112.09-131.13-632-166.6-811-2.5-27.74-4.38-55.45-5.38-83.11-9.39-256.21-77-502.33-77-762.39,0-17.88-1.83-58.63,25.52-61.8,16.05-1.87,20.82,59.1,21.31,66.65,10,150.61-10.89,308.33,45.76,451.17,36,90.7,38.6,266.67,125.42,333,29,22.18,173.06-38.94,188.25-6.18,21.42,46.29-.81,119.52-7.71,166.7-38,259.85-2.69,496.05,53.54,748.05C3936,2439.24,3943,2466,3952,2500h427.91c-32-92.92-61.52-186.75-92.47-280-38.53-116-167.51-448.83-160.68-565.66C4132,1564.17,4274,1441.65,4237.58,1359c-37.26-84.52-204.82-25.79-253.85-129.21-34.09-72-41.31-155.3-40.28-240.92-41.29-59.39-73.82-139.24-83.24-172.12-20.63-72-27.16-146.32-30.41-220.76-5.25-119.74-20.79-241.13-14-361L3793,158.44a107.62,107.62,0,0,1,20.62-11.31C3793.09,96.88,3770.16,47.23,3745.1,0h-23.43a256.49,256.49,0,0,1,8.71,66.8c-3.24,284.93-219.86,126.84-378.63,200.17-49.73,23-324.3,176.28-324.6,176.29C2902.62,449.66,2939.7,167,3015.21,0H2929.4C2928.88,53.82,2895.44,116.61,2884.78,162.87ZM3127.53,2195c-.58,9.53-.61,16.49-6.43,24.17Zm380-1847.89c5.23-5.35,2.05,14.9,2.27,22.4.8,24.28-3.58,46.76-4.85,70.78-3.1,59.14-22.23,115.06-34.45,171.59l-9.5-21.84C3462.26,539.35,3476.9,378.39,3507.52,347.13Zm-188.17,55.25c2-24,17.88-24,23.92.16,27.38,109.35,37.16,225.59,55.12,336.53l-30.18-21.94c-28.18-80.26-40.16-179-47.78-263.62C3319,437.6,3318,418.47,3319.35,402.38Z"/><path class="cls-5" d="M630.17,417q7.53,28.5,15,58.53c6.88,27.44,13.74,55.71,20.58,84.53,24,101,47.64,208.65,70.47,310.66C778.41,1059,817.7,1228.05,850.7,1300.33c2.22,4.86,4.67,10.33,7.34,16.34,4.41,10,9.4,21.43,14.89,34.19,48.52.73,96.92.69,144.93-2.45,98.6-6.44,189.74-20.8,281.25-47.31-24.34-35.57-52.08-81.16-71.53-128.21-37-89.63-152.47-362.13-181.08-429.63-20.31-24.25-38.24-58.68-53.55-78.42C902.58,548.46,853.84,409.92,783.59,282.18c-21.65-39.33-46.87-77.62-66.6-118-2-4.1-19.2-32.16-17-35.72.25-.42,27.18,22.77,42.95,44.89C776.35,220.2,796,274.79,828,322.12c2.1,3.12,28.62,41.44,29.67,40.66,3.55-2.65-34.72-114.79-15-136.44.5-.58,8.34,35.17,9.06,38.18,6.59,27.72,16.43,55.05,25.74,81.93,17.24,49.79,81,282.16,162.62,274.44,52.73-5,44-107.48,44-142.07,0-78.12-27-157.21-44.75-232.53-11.06-47-13.08-95.71-24.56-142.36-2.3-9.38-12.41-66.68-17-103.93H600.44C568,76.7,573.29,201.33,630.17,417ZM826,438.87c27.49,69.47,60.88,135.35,84.68,206.59,64.62,193.47,89.42,408.65,119.81,609.23,5.63,37.17-15.37,33.25-37.18,14.57-84.32-72.2-129.25-200.47-160.73-303.72-28.57-93.66-71-182.52-97.52-277-38-135.45-82.31-283.61-98.45-423.75l-5.21-18.45C731.44,107.94,798.63,369.73,826,438.87Zm-20.29-192c-3.71-46-44.7-85.47-50.6-131.46-.92-7.11,6.2,13,10.5,18.76,8.62,11.53,19.68,23,26.27,35.87,21.92,42.68,25.58,88.74,38.49,133.74Z"/><path class="cls-5" d="M3813.61,147.13c43.46-17.85,89.9-1.73,132.08,18.88,230.58,112.64,187.56,437.24,176.41,646.46-3.38,63.52,10.15,132.28-20.08,191.31-49.38,96.47-110,55-158.57-14.89-1,85.62,6.19,169,40.28,240.92,49,103.42,216.59,44.69,253.85,129.21,36.43,82.63-105.58,205.15-110.85,295.36C4119.9,1771.21,4248.88,2104,4287.41,2220c30.95,93.21,60.49,187,92.47,280H4500V1646c-31-142.21-60.61-279.65-69.1-372.27-20.11-219.46,7.91-499.35-55.34-853.44C4329.33,161.52,4287.07,44.34,4267.66,0H3745.1C3770.16,47.23,3793.09,96.88,3813.61,147.13Z"/><path class="cls-6" d="M3813.61,147.13c43.46-17.85,89.9-1.73,132.08,18.88,230.58,112.64,187.56,437.24,176.41,646.46-3.38,63.52,10.15,132.28-20.08,191.31-49.38,96.47-110,55-158.57-14.89-1,85.62,6.19,169,40.28,240.92,49,103.42,216.59,44.69,253.85,129.21,36.43,82.63-105.58,205.15-110.85,295.36C4119.9,1771.21,4248.88,2104,4287.41,2220c30.95,93.21,60.49,187,92.47,280H4500V1646c-31-142.21-60.61-279.65-69.1-372.27-20.11-219.46,7.91-499.35-55.34-853.44C4329.33,161.52,4287.07,44.34,4267.66,0H3745.1C3770.16,47.23,3793.09,96.88,3813.61,147.13Z"/><path class="cls-5" d="M1328.64,468.85c40.6,55.75,106.45,95.8,154.47,145.38,16.59,17.12,122,124.71,149.55,112.39,18.59-8.31,17.46-68.68,19.37-86.55,16.79-157.2,16.85-311.62,43.38-469.11,9.84-58.47,35.12-114,50.26-171H1137.18C1172.93,156.88,1283.74,407.19,1328.64,468.85Z"/><path class="cls-7" d="M1328.64,468.85c40.6,55.75,106.45,95.8,154.47,145.38,16.59,17.12,122,124.71,149.55,112.39,18.59-8.31,17.46-68.68,19.37-86.55,16.79-157.2,16.85-311.62,43.38-469.11,9.84-58.47,35.12-114,50.26-171H1137.18C1172.93,156.88,1283.74,407.19,1328.64,468.85Z"/><path class="cls-5" d="M2136,748.27c129.31-18.06,425.45-322.64,575.87-589.75C2736.69,78.93,2755.3,19.07,2761.23,0H1875.49C1850.89,215.72,1848.44,788.42,2136,748.27Z"/><path class="cls-8" d="M2136,748.27c129.31-18.06,425.45-322.64,575.87-589.75C2736.69,78.93,2755.3,19.07,2761.23,0H1875.49C1850.89,215.72,1848.44,788.42,2136,748.27Z"/><path class="cls-5" d="M3027.15,443.26c.3,0,274.87-153.32,324.6-176.29,158.77-73.33,375.39,84.76,378.63-200.17A256.49,256.49,0,0,0,3721.67,0H3015.21C2939.7,167,2902.62,449.66,3027.15,443.26Z"/><path class="cls-9" d="M3027.15,443.26c.3,0,274.87-153.32,324.6-176.29,158.77-73.33,375.39,84.76,378.63-200.17A256.49,256.49,0,0,0,3721.67,0H3015.21C2939.7,167,2902.62,449.66,3027.15,443.26Z"/><path class="cls-5" d="M3949.31,672.21c-13.71-134.62-47.88-271.89-89.94-400.38-13.5-41.28-28.82-83.19-45.76-124.7A107.62,107.62,0,0,0,3793,158.44L3815.83,235c-6.82,119.88,8.72,241.27,14,361,3.25,74.44,9.78,148.78,30.41,220.76,9.42,32.88,41.95,112.73,83.24,172.12C3944.74,880.81,3959.18,769.11,3949.31,672.21Z"/><path class="cls-10" d="M3949.31,672.21c-13.71-134.62-47.88-271.89-89.94-400.38-13.5-41.28-28.82-83.19-45.76-124.7A107.62,107.62,0,0,0,3793,158.44L3815.83,235c-6.82,119.88,8.72,241.27,14,361,3.25,74.44,9.78,148.78,30.41,220.76,9.42,32.88,41.95,112.73,83.24,172.12C3944.74,880.81,3959.18,769.11,3949.31,672.21Z"/><path class="cls-5" d="M4102,1003.78c30.23-59,16.7-127.79,20.08-191.31,11.15-209.22,54.17-533.82-176.41-646.46-42.18-20.61-88.62-36.73-132.08-18.88,16.94,41.51,32.26,83.42,45.76,124.7,42.06,128.49,76.23,265.76,89.94,400.38,9.87,96.9-4.57,208.6-5.86,316.68C3992,1058.73,4052.64,1100.25,4102,1003.78Z"/><path class="cls-11" d="M4102,1003.78c30.23-59,16.7-127.79,20.08-191.31,11.15-209.22,54.17-533.82-176.41-646.46-42.18-20.61-88.62-36.73-132.08-18.88,16.94,41.51,32.26,83.42,45.76,124.7,42.06,128.49,76.23,265.76,89.94,400.38,9.87,96.9-4.57,208.6-5.86,316.68C3992,1058.73,4052.64,1100.25,4102,1003.78Z"/><path class="cls-12" d="M4102,1003.78c30.23-59,16.7-127.79,20.08-191.31,11.15-209.22,54.17-533.82-176.41-646.46-42.18-20.61-88.62-36.73-132.08-18.88,16.94,41.51,32.26,83.42,45.76,124.7,42.06,128.49,76.23,265.76,89.94,400.38,9.87,96.9-4.57,208.6-5.86,316.68C3992,1058.73,4052.64,1100.25,4102,1003.78Z"/><path class="cls-5" d="M631.39,246.37l5.21,18.45c16.14,140.14,60.45,288.3,98.45,423.75,26.49,94.45,69,183.31,97.52,277,31.48,103.25,76.41,231.52,160.73,303.72,21.81,18.68,42.81,22.6,37.18-14.57-30.39-200.58-55.19-415.76-119.81-609.23-23.8-71.24-57.19-137.12-84.68-206.59C798.63,369.73,731.44,107.94,631.39,246.37Z"/><path class="cls-13" d="M631.39,246.37l5.21,18.45c16.14,140.14,60.45,288.3,98.45,423.75,26.49,94.45,69,183.31,97.52,277,31.48,103.25,76.41,231.52,160.73,303.72,21.81,18.68,42.81,22.6,37.18-14.57-30.39-200.58-55.19-415.76-119.81-609.23-23.8-71.24-57.19-137.12-84.68-206.59C798.63,369.73,731.44,107.94,631.39,246.37Z"/><path class="cls-14" d="M3878.88,1675.3c6.9-47.18,29.13-120.41,7.71-166.7-15.19-32.76-159.21,28.36-188.25,6.18-86.82-66.38-89.45-242.35-125.42-333-56.65-142.84-35.75-300.56-45.76-451.17-.49-7.55-5.26-68.52-21.31-66.65-27.35,3.17-25.52,43.92-25.52,61.8,0,260.06,67.62,506.18,77,762.39,1,27.66,2.88,55.37,5.38,83.11,35.47,179,139,698.91,166.6,811,9.67,39.16,19.38,79.79,28.31,117.79H3952c-8.94-34-16-60.76-19.55-76.65C3876.19,2171.35,3840.92,1935.15,3878.88,1675.3Z"/><path class="cls-14" d="M1014.81,103.93c11.48,46.65,13.5,95.4,24.56,142.36,17.7,75.32,44.75,154.41,44.75,232.53,0,34.59,8.7,137.09-44,142.07-81.64,7.72-145.38-224.65-162.62-274.44-9.31-26.88-19.15-54.21-25.74-81.93-.72-3-8.56-38.76-9.06-38.18C823,248,861.26,360.13,857.71,362.78c-1.05.78-27.57-37.54-29.67-40.66C796,274.79,776.35,220.2,742.93,173.37c-15.77-22.12-42.7-45.31-42.95-44.89-2.19,3.56,15,31.62,17,35.72,19.73,40.36,45,78.65,66.6,118,70.25,127.74,119,266.28,209.36,382.66,15.31,19.74,33.24,54.17,53.55,78.42C1042.36,733.48,1040,728,1040,728s44.45-30,62.66-118.82c.15-.75.29-1.54.43-2.35.05-.31.09-.63.14-.94.08-.52.16-1,.24-1.6,0-.39.1-.79.14-1.19l.18-1.51c0-.45.09-.91.13-1.37s.09-1,.13-1.5.09-1,.12-1.53.07-1,.1-1.47.07-1.13.1-1.71c0-.38,0-.78,0-1.17.07-1.64.13-3.32.16-5.08,0,0,0-.1,0-.16,0-.86,0-1.75,0-2.64,0-.3,0-.6,0-.91v-3.64c0-1,0-1.93,0-2.92,0-.25,0-.5,0-.75,0-1.08,0-2.17-.07-3.28,0-.06,0-.12,0-.18C1100.86,437.14,1021.24,57.77,1009,0H997.78C1002.4,37.25,1012.51,94.55,1014.81,103.93Z"/><path class="cls-14" d="M765.6,134.22c-4.3-5.74-11.42-25.87-10.5-18.76,5.9,46,46.89,85.43,50.6,131.46l24.66,56.91c-12.91-45-16.57-91.06-38.49-133.74C785.28,157.22,774.22,145.75,765.6,134.22Z"/><path class="cls-14" d="M1759.71,1183.93l.36.16c.4.17.79.34,1.16.52l.58.29.85.45.58.33.77.49.52.35c.29.2.56.42.83.64l.34.26a13,13,0,0,1,1,1,1.8,1.8,0,0,1,.19.2l.34-.07.43-.07.53-.1h0a31,31,0,0,1,11.09.36c12.72,2.63,27,14.66,27,14.66l0,.52a94.8,94.8,0,0,1,12.6,2.95c28.62,8.56,148.34,26.53,173.64,34.22s39.35,3.7,45.92,12.85c.7,1,1,5,1.1,11.39,61.11,1.21,191.44-12.59,297.44-135.44,143.68-166.55,121.43-166.78,192.82-390.8,8.18-25.71,17.57-55.34,27.76-87.64,0,.13-.09.25-.13.34-23.67,57.53-42.63,116.47-65.24,174.33-71.55,183.08-236.35,360.66-436.74,389.55-38.32,5.52-89.37,3.84-123.7-17.18-67.59-41.34-97.82-143.13-112.21-215.44-36-181.38-22.91-359.37-22.91-542.94,0-67.57,1.13-134.79,6.4-202.06,2.27-29.2,6.15-111,2.24-110.66-10.78,1-21.64,51.76-23.66,60.91-17.21,77.56-28.44,154.17-28.44,234,0,180.75,23,359,36.06,538.86,1.8,25,17.7,155.09,2.3,172.86-26,30-77.92,22.86-130.33,3.58,24.13,13.76,41.84,23.32,49.16,27.83,20.25,12.5,38.38,14,49.33,18.54h0Z"/><path class="cls-14" d="M2664.19,962.82c16.6,42.37,169.06,97,330.08,127.8,80.13,15.34,162.38,24.79,231.07,23.91,177.39-2.27,256,3,274.7,4.59-5.43-91.13-30.35-243-33.43-273.26-4-39.08.11-80.48,0-119.76,0-3.72-4.41-59.11-6.9-57.37-41.21,29.09-5.05,245.34-13.75,250.16-2.3,1.27-18.82-28.54-20.59-31.09-23.75-34.52-45.95-71.15-73.85-102.89-4.32-4.92-50.08-43-50.27-39.76-3.88,67.06,139.28,278.76,136.29,288.16-.83,2.64-3.25,6.85-5.38,8.64-118.69,99.09-576.35,10.92-699.09-93.9-46-39.27-2.49-178.65,4.94-227.25,29.21-190.9,103.78-371.13,146.79-557.93,10.66-46.26,44.1-109,44.62-162.87h-31C2860.6,132.11,2641.47,904.82,2664.19,962.82Z"/><path class="cls-14" d="M3504.94,440.31c1.27-24,5.65-46.5,4.85-70.78-.22-7.5,3-27.75-2.27-22.4-30.62,31.26-45.26,192.22-46.53,242.93l9.5,21.84C3482.71,555.37,3501.84,499.45,3504.94,440.31Z"/><path class="cls-14" d="M1540,1632.6a285,285,0,0,1-19.53,40c51.16-52.48,105.41-152.19,152.41-143.88,28.1,5,42.87,32.37,62.27,50.1,15.76,14.46,53.81,32.46,60.38,52.62,4.39,13.48,5.22,29.24,3.8,46.19,19.12-4.36,38-8.61,56-12.71,4-29.16,8.89-56,15.43-66.31,1.58-2.48,3.22-4.81,4.9-7q-30-10-60.21-21.06c-33.42-12.21-180.77-88.08-159.45-80.12l221.67,28a33,33,0,0,1-4.44-2c-14.89-8.25-57.55-20.66-75.75-29.47l-.13,4.09s-11.83,9.4-28.79-1.17a38.19,38.19,0,0,1-14.22-15.66c-14.92-2.14-66.24-10.11-106.79-23.62-5.18,12.25-15.56,25-18.63,29.59C1600.53,1522.35,1557.91,1586,1540,1632.6Z"/><path class="cls-14" d="M2029.35,1537.68l-8.88-2.86c0,.6-.1,1.17-.15,1.72Z"/><path class="cls-14" d="M1735.82,2406q-13.32-2.66-26.63-5.36c-5.06,33-10.32,66-13.89,99.34h20.84C1723.81,2468.84,1730.64,2434.58,1735.82,2406Z"/><path class="cls-14" d="M2569.08,2454.79c68.26-54.58,150.42-189.18,136.29-281.59-2.6-17-26.55-33.12-33.09-50.23-25.91-67.89-14.38-175.56-3.27-244.81,2.81-17.54,18.26-87.59,25.92-147.68q-13.72-.43-27.47-1c-1.16,32.89-5.88,70.86-17.87,100.56-1.87,12.81-4.58,25.47-7.64,38.06l0,0c-2.45,10.05-5.12,20.05-7.77,30.06l-1.59,6-.21.79-1.7,6.5c0,.23-.11.45-.17.68-1.22,4.7-2.41,9.41-3.54,14.13-.07.28-.14.56-.2.84-1.1,4.6-2.15,9.21-3.12,13.83-.1.46-.2.92-.29,1.38-.47,2.28-.93,4.57-1.37,6.85-28.51,150.93-98.57,237.15-223.77,328.17-56.2,40.84-111.76,92.5-178.8,114.94-20.7,6.92-48.1-3.63-69.05-5.53-68.89-6.25-129.11-24.8-194.51-47.93-68.2-24.11-139.67-37.35-207.51-62.89-50-18.84-98.1-40.7-147.12-61.73-21.14-9.07-44.37-25-67-29.78-27.63-5.77-56.54-5.08-85.11-4-7.57,65.74-16.18,121-16.18,121s-160.58,27.92-305.5,51.15c94.41,41.92,221.82,80.16,250.83,69.89,35.41-12.53,59.55-106,109.82-91.87,23.06,6.46,43.42,22.86,66.4,30.63,50.06,16.92,102.2,28.76,154.66,39.45q13.3,2.72,26.63,5.36c40.5,8,81,15.8,120.68,25.08,96.39,22.56,192.12,50.07,289.38,68.9h342.59A286.58,286.58,0,0,0,2569.08,2454.79Z"/><path class="cls-14" d="M2671.54,1691.36c-.27.36-.55.71-.82,1.06l-.51.67c-.68.87-1.37,1.74-2.08,2.59,0,3.48-.11,6.73-.2,9.49h0c-.08,3-.15,5.38-.15,6.83,0,5.61-.09,11.48-.31,17.51q13.74.52,27.47,1c140.81,4.42,280.06,1.85,395.3-6.5,40.77-3,258.42-14.69,265.76,52.29,6.82,62.2-23.47,228.55-41.85,289.58-16.73,55.62-132.82,158.24,28.91,154,4.18-.11,4.29-11.47,4.76-13.57,8.76-38.47,6.13-79.5,13.83-118.54,15-76.23,50.52-150.3,76-223.51,13.66-39.33,82.65-232.77,101.64-351.23-72.58,33.28-421.68,186.59-700.55,189.75C2787.72,1703.27,2730.91,1699,2671.54,1691.36Z"/><path class="cls-14" d="M2019.7,1543.69c-.47,6-113.3-14.26-142.1-25.21l-221.67-28c-21.32-8,126,67.91,159.45,80.12q30.22,11,60.21,21.06c64.29,21.51,128.11,39.81,193,56.11,75.4,1,158,2,233.3-12.28,13.42-2.55,26.84-5.54,40.26-8.77-137.34-34.14-256-70.78-312.85-89l-9-1.14C2020,1540.65,2019.74,1543.14,2019.7,1543.69Z"/><path class="cls-14" d="M3368.21,717.13l30.18,21.94c-18-110.94-27.74-227.18-55.12-336.53-6-24.15-21.92-24.12-23.92-.16-1.33,16.09-.36,35.22,1.08,51.13C3328.05,538.08,3340,636.87,3368.21,717.13Z"/><path class="cls-14" d="M2012.91,1187.94l34.08,16.42c-4.54-9.33-6.65-19.53-11.58-28.92-9.86-18.76-20.2-37.83-33.92-54-10.06-11.91-19.26-24.56-29.35-36.41C1915,1017.91,1961.84,1177.17,2012.91,1187.94Z"/><path class="cls-14" d="M1697,1091.56l26.38-1c-13-41.45-33-81.47-65.23-111.34C1575.31,902.52,1635.39,1085.42,1697,1091.56Z"/><path class="cls-15" d="M982.75,1745.44c.25-3.35-1-33-2.55-30.89-14.07,18.84-17.08,34.88-25.24,41.16,1.46,5.07,3.19,10.13,5.08,15.1l14.44-.26C978.71,1762.53,982.15,1754.27,982.75,1745.44Z"/><path class="cls-15" d="M1237.31,1559.08c63.57,51.86,137.53,59.54,178.08,144.37,4.59,9.61,10.06,36.81,10.06,58.91l.87,1.67q12.33-2.1,24.65-4c2.27-.36,4.53-.74,6.79-1.11,21.4-25.38,44.73-55.28,62.69-86.25a285,285,0,0,0,19.53-40c17.93-46.57,60.55-110.25,88.87-152.33,3.07-4.54,13.45-17.34,18.63-29.59-6.46-2.15-12.66-4.44-18.38-6.87-29.33-12.48-125.74-36.69-196.66-53.73l-.1.11-1.5,1.72q-1.14,1.3-2.31,2.61l-1.56,1.74-.24.26c-1.39,22.37-26.12,48.47-36.78,61.29-4.63,5.59-9.4,11.09-14,16.65-6.46,7.65-13.72,14.56-20.29,22.12-7.23,8.3-14.08,17.17-20.78,25.9-11.42,14.85-19.4,32.81-32.09,46.62-15.82,17.23-7.46-16.54-4.66-22.25,3.25-6.69,6-13.24,9.84-19.67,6.6-11,13.58-22,21-32.54,6.84-9.76,13.54-19.8,20.36-29.74-1,.75-2,1.48-3,2.22l-1.71,1.23-3.31,2.38-1.66,1.17-3.39,2.38-1.58,1.1c-1.15.81-2.31,1.6-3.47,2.39l-1.51,1c-1.18.8-2.36,1.6-3.55,2.39l-1.42,1c-1.2.81-2.41,1.6-3.61,2.39l-1.36.9-3.69,2.4-1.27.82-3.75,2.4-1.19.75-3.83,2.4-1.08.68-3.91,2.4c-.33.19-.66.4-1,.6l-4,2.39-.88.53c-1.34.8-2.67,1.58-4,2.36l-.82.49c-1.35.79-2.7,1.56-4,2.33l-.73.43-4.07,2.3-.67.38-4.08,2.26-.6.33-4.1,2.22-.52.28-4.1,2.18-.46.24q-2.06,1.08-4.09,2.11l-.4.21-4.07,2-.34.17c-1.36.68-2.7,1.33-4,2l-.31.15c-1.36.66-2.7,1.3-4,1.92l-.22.11c-1.31.62-2.61,1.22-3.9,1.81a2.06,2.06,0,0,0-.26.12l-3.81,1.7-.26.12-3.74,1.62-.22.09c-1.28.55-2.55,1.07-3.79,1.58l-.07,0c-1.27.52-2.51,1-3.74,1.5-1.43.55-2.86,1.06-4.3,1.56C1225.57,1544.05,1229.08,1552.36,1237.31,1559.08Zm121.43,55.44c5-8.87,11.48-16.56,16.63-25.2,23.86-40.07,52.27-77,77.34-116.27,8-12.49,18.29-23.3,26.41-35.68,1.39-2.09,8.86-17.22,8.12-18l-.36.11c.19-.15.3-.17.36-.11l18.07-5.51c5.74-2.75,11.34.88,8,7.08-6.1,11.42-10.47,23.28-18.43,33.82-32,42.47-65,84.12-97.57,126.12-9.31,12-18,25.06-28.24,36.29-3,3.3-9,9.32-14,6.06C1353.4,1622.15,1358.44,1615.09,1358.74,1614.52Z"/><path class="cls-15" d="M1042.47,1698c-3.44-4.76-8.26-18.62-11.2-13.55-9.64,16.63,12,54.4,22,84.76l26.08-.47c-5.09-17.38-10.4-34.21-16.07-43.43C1057.32,1715.57,1049.15,1707.25,1042.47,1698Z"/><path class="cls-16" d="M980.2,1714.55c1.55-2.06,2.8,27.54,2.55,30.89-.6,8.83-4,17.09-8.27,25.11l78.79-1.39c-10-30.36-31.64-68.13-22-84.76,2.94-5.07,7.76,8.79,11.2,13.55,6.68,9.3,14.85,17.62,20.81,27.31,5.67,9.22,11,26,16.07,43.43,59.67-1.07,98-1.8,104.39-2,5.34-.17,12.46-.51,20.74-1-4.39-12.5-9.85-24.48-18-34.92-28.35-36.08-72-69.22-93-107.1-.14-.24-.27-.5-.4-.77a2.4,2.4,0,0,0-.11-.23c-.09-.21-.19-.43-.28-.66a1.86,1.86,0,0,1-.1-.25c-.13-.3-.25-.62-.37-1v0c-.12-.33-.23-.67-.35-1,0-.09,0-.19-.08-.28l-.27-.92c0-.08-.05-.16-.07-.25-.22-.8-.43-1.67-.63-2.57l-.06-.26c-.08-.41-.17-.82-.25-1.25a1.36,1.36,0,0,0,0-.17c-.19-1-.37-2-.54-3.13a.78.78,0,0,1,0-.16c-.26-1.67-.49-3.45-.69-5.32h0c-.15-1.38-.28-2.79-.4-4.26-24.82,19.28-48.17,41-74.05,58.65-13.13,9-29.59,12.49-42.59,21.38-25.39,17.35-25.32,46.13-17.12,74.45C963.12,1749.43,966.13,1733.39,980.2,1714.55Z"/><path class="cls-16" d="M1350.62,1644.46c22.81,20,37.14,53.29,52.46,78.91,7.64,12.75,15.4,25.68,22.37,39,0-22.1-5.47-49.3-10.06-58.91-40.55-84.83-114.51-92.51-178.08-144.37-8.23-6.72-11.74-15-12-23.63-13.21,4.52-27.07,6.55-40.83,8.65,8.66,5.36,15.92,10,20.32,12.5C1255,1585.35,1306.23,1605.5,1350.62,1644.46Z"/><path class="cls-17" d="M1307.92,1527.18c-3.82,6.43-6.59,13-9.84,19.67-2.8,5.71-11.16,39.48,4.66,22.25,12.69-13.81,20.67-31.77,32.09-46.62,6.7-8.73,13.55-17.6,20.78-25.9,6.57-7.56,13.83-14.47,20.29-22.12,4.65-5.56,9.42-11.06,14-16.65,10.66-12.82,35.39-38.92,36.78-61.29l-2.11,2.3c-.54.59-1.08,1.17-1.63,1.75-.79.85-1.59,1.69-2.39,2.53l-1.69,1.77q-1.2,1.25-2.43,2.49c-.58.59-1.15,1.18-1.74,1.77l-2.47,2.47-1.78,1.76-2.52,2.45-1.82,1.75-2.56,2.43-1.86,1.74-2.61,2.41-1.88,1.72-2.65,2.39-1.91,1.7c-.89.8-1.79,1.59-2.69,2.37l-1.93,1.69-2.75,2.36-1.92,1.64-2.81,2.37-1.92,1.6-2.87,2.36-1.91,1.56-2.91,2.35-1.91,1.52c-1,.79-2,1.58-3,2.36l-1.87,1.47-3,2.35-1.85,1.42-3.1,2.35-1.82,1.37-3.17,2.36-1.76,1.3-.21.15c-6.82,9.94-13.52,20-20.36,29.74C1321.5,1505.18,1314.52,1516.13,1307.92,1527.18Z"/><path class="cls-17" d="M1369.08,1617.18c10.2-11.23,18.93-24.28,28.24-36.29,32.56-42,65.54-83.65,97.57-126.12,8-10.54,12.33-22.4,18.43-33.82,3.33-6.2-2.27-9.83-8-7.08l-18.07,5.51c.74.77-6.73,15.9-8.12,18-8.12,12.38-18.4,23.19-26.41,35.68-25.07,39.26-53.48,76.2-77.34,116.27-5.15,8.64-11.67,16.33-16.63,25.2-.3.57-5.34,7.63-3.68,8.72C1360.1,1626.5,1366.09,1620.48,1369.08,1617.18Z"/><path class="cls-17" d="M1486.88,1419.49l.36-.11C1487.18,1419.32,1487.07,1419.34,1486.88,1419.49Z"/><polygon class="cls-18" points="3504.61 1119.54 3504.61 1119.54 3504.61 1119.54 3504.61 1119.54"/><path class="cls-18" d="M2711.88,158.52c-44.07,141.45-107.68,345.19-154.3,492.9-10.19,32.3-19.58,61.93-27.76,87.64-71.39,224-49.14,224.25-192.82,390.8-106,122.85-236.33,136.65-297.44,135.44.17,20.3-2.59,64.6-6.11,112,37.57,17.75,73.79,42.17,108.9,57.14,13.27,5.66,114.73,45.31,116.45,57.81.61,4.52-24.22,5.07-26.64,4.81-22.47-2.43-177.63-56.19-187-35.89-1.47,3.19,9.29,11.83,10.06,12.46,59.08,48.5,143.08,80.47,217.18,95.58a1799.7,1799.7,0,0,0,185.71,27.67c27.29-6.44,54.64-11.78,82.07-14.53,42.79-4.29,86.54-12,126.5,9.94a39.4,39.4,0,0,1,14.69,13.27,2038,2038,0,0,0,389.3-44.44,855.59,855.59,0,0,0,83-22.11c19-6.15,38.41-12.39,57.75-17.57,18.6-5,37.22-7.87,55.23-15.09,89-35.68-119.93-18.72-136.23-72.59-.77-2.6,15.08-6,15.58-6.13,34.58-10,70.58-21.68,103.25-36.72,78.59-36.18,167.21-63.46,231.42-125,4.35-4.15.2-26.19-1.66-33-37.8-1.2-76.16-7.56-106-9.25-117.56-6.71-675.76-72.72-733.19-185.52-37.19-73.05,37.71-250.94,55.63-326.68,36.45-154,77.51-307.13,114.38-460.92,18.76-78.33,24.84-166.69,41-250.54h-89.57C2755.3,19.07,2736.69,78.93,2711.88,158.52Zm-523,1116c72.17-59.22,152-111.09,225.59-168.84l-1.59,10.66c35.06,55-89.94,100.11-105.36,139-11.65,29.42,80.26,126.19,52.78,170.61-1.13,1.82-5.44-1.66-6.31-2.18-50.56-30.75-82.29-63.42-121.57-107.81-10.48-11.86-44.65-19.75-47.47-34.72C2184.39,1278.24,2187,1276,2188.88,1274.48Zm-126.65,53.43,3.94-12.91c20.72,31.89,80.86,29.31,106.27,60.65a240,240,0,0,1,22.39,32.52c2.72,4.72,14.83,14.06,9.45,13.32C2146.89,1413.59,2098.89,1369.84,2062.23,1327.91Zm665,216.08c69.39-9.15,165.33-37.45,231.18-35.3l116.38-18.29c8.32,3.32,58.64,8.36,58,17.74-.2,2.45-5.68,3.34-7.35,3.86-37,11.68-78.23,14-116.44,20.38-135.48,22.7-268.47,35.51-406,42.14-25.19,1.22-50.24,1.56-75.51,1.52-13.36,0-26.08-.62-39.32-1.69-8.76-.7-16.58-1.9-25.19-3.31-19-3.13-24.42-17.07-4.83-21,18.46-3.71,39.35-3.29,58.31-2.08,27.24,1.74,54.51,1.26,81.83,1.26C2641.49,1549.22,2684.34,1549.65,2727.26,1544Z"/><path class="cls-18" d="M2664.17,962.81c16.59,42.37,169.07,97,330.1,127.81-161-30.82-313.48-85.43-330.08-127.8-22.72-58,196.41-830.71,234.17-962.82h0C2860.58,132.11,2641.44,904.81,2664.17,962.81Z"/><path class="cls-19" d="M2809.85,250.54c-36.87,153.79-77.93,306.9-114.38,460.92-17.92,75.74-92.82,253.63-55.63,326.68,57.43,112.8,615.63,178.81,733.19,185.52,29.84,1.69,68.2,8,106,9.25,0-.14-.08-.28-.11-.41-4-13.82,4.85-33.35-.28-45.25-3.32-7.73-109.54,8.55-119.33-25.68-3.07-10.8,84.58-30.48,97.94-33.85,7.15-1.8,13.33-5.51,19.06-10.17,19.65,1.08,28.25,2,28.29,2h0s-1.46-.15-4.56-.41c-18.74-1.55-97.31-6.86-274.7-4.59-68.69.88-150.94-8.57-231.07-23.91-161-30.82-313.51-85.44-330.1-127.81-22.73-58,196.41-830.7,234.16-962.81H2850.8C2834.69,83.85,2828.61,172.21,2809.85,250.54Z"/><path class="cls-19" d="M2232.42,1316c39.28,44.39,71,77.06,121.57,107.81.87.52,5.18,4,6.31,2.18,27.48-44.42-64.43-141.19-52.78-170.61,15.42-38.92,140.42-84,105.36-139l1.59-10.66c-73.63,57.75-153.42,109.62-225.59,168.84-1.89,1.56-4.49,3.76-3.93,6.75C2187.77,1296.2,2221.94,1304.09,2232.42,1316Z"/><path class="cls-20" d="M2021.83,1519.36h0c-.2,2.3-.39,4.45-.57,6.47-.3,3.45-.56,6.46-.79,9l8.88,2.86c56.83,18.22,175.51,54.86,312.85,89,38.57-9.29,77.19-20.64,115.94-29.78a1799.7,1799.7,0,0,1-185.71-27.67c-74.1-15.11-158.1-47.08-217.18-95.58-.77-.63-11.53-9.27-10.06-12.46,9.34-20.3,164.5,33.46,187,35.89,2.42.26,27.25-.29,26.64-4.81-1.72-12.5-103.18-52.15-116.45-57.81-35.11-15-71.33-39.39-108.9-57.14C2029.49,1430.59,2024.58,1487.8,2021.83,1519.36Z"/><path class="cls-20" d="M2688.47,1638.44a96.57,96.57,0,0,1-1.93,19.55l-.15.78c-.15.66-.31,1.32-.46,2-.12.47-.23.94-.35,1.41s-.32,1.23-.49,1.84-.31,1.06-.47,1.58c-.22.71-.44,1.42-.67,2.12s-.53,1.56-.81,2.33c-.17.46-.35.92-.52,1.37-.24.62-.48,1.23-.74,1.83-.17.42-.35.84-.53,1.26-.33.77-.68,1.53-1,2.28l-.32.69c-.47,1-1,1.93-1.47,2.87l-.46.86c-.4.72-.8,1.44-1.22,2.15l-.47.79q-1.71,2.87-3.63,5.56l-.47.64c-.25.35-.49.7-.74,1,59.37,7.61,116.18,11.91,167.15,11.34,278.87-3.16,628-156.47,700.55-189.75,8.84-4,13.59-6.33,13.59-6.33l-48.22-387.08h0s-8.64-.91-28.29-2c-5.73,4.66-11.91,8.37-19.06,10.17-13.36,3.37-101,23-97.94,33.85,9.79,34.23,116,18,119.33,25.68,5.13,11.9-3.71,31.43.28,45.25,0,.13.07.27.11.41,1.86,6.79,6,28.83,1.66,33-64.21,61.58-152.83,88.86-231.42,125-32.67,15-68.67,26.68-103.25,36.72-.5.15-16.35,3.53-15.58,6.13,16.3,53.87,225.22,36.91,136.23,72.59-18,7.22-36.63,10.13-55.23,15.09-19.34,5.18-38.76,11.42-57.75,17.57a855.59,855.59,0,0,1-83,22.11,2038,2038,0,0,1-389.3,44.44C2687.26,1614.73,2688.45,1625.92,2688.47,1638.44Z"/><path class="cls-20" d="M2598.29,1549.22c-27.32,0-54.59.48-81.83-1.26-19-1.21-39.85-1.63-58.31,2.08-19.59,3.93-14.18,17.87,4.83,21,8.61,1.41,16.43,2.61,25.19,3.31,13.24,1.07,26,1.67,39.32,1.69,25.27,0,50.32-.3,75.51-1.52,137.54-6.63,270.53-19.44,406-42.14,38.21-6.41,79.48-8.7,116.44-20.38,1.67-.52,7.15-1.41,7.35-3.86.66-9.38-49.66-14.42-58-17.74l-116.38,18.29c-65.85-2.15-161.79,26.15-231.18,35.3C2684.34,1549.65,2641.49,1549.22,2598.29,1549.22Z"/><path class="cls-20" d="M2194.83,1408.17a240,240,0,0,0-22.39-32.52c-25.41-31.34-85.55-28.76-106.27-60.65l-3.94,12.91c36.66,41.93,84.66,85.68,142.05,93.58C2209.66,1422.23,2197.55,1412.89,2194.83,1408.17Z"/><path class="cls-18" d="M1104.66,580.41c0-1,0-1.94,0-2.92C1104.64,578.48,1104.65,579.45,1104.66,580.41Z"/><path class="cls-18" d="M1104.66,581.33v0Z"/><path class="cls-18" d="M1104.61,576.74c0-1.08,0-2.17-.07-3.28C1104.57,574.57,1104.59,575.66,1104.61,576.74Z"/><path class="cls-18" d="M1104.62,587.6c0-.86,0-1.75,0-2.64C1104.64,585.85,1104.63,586.74,1104.62,587.6Z"/><path class="cls-18" d="M1104.08,598.72c.05-.51.09-1,.12-1.53C1104.17,597.71,1104.13,598.21,1104.08,598.72Z"/><path class="cls-18" d="M1103.5,604.29c0-.39.1-.79.14-1.19C1103.6,603.5,1103.55,603.9,1103.5,604.29Z"/><path class="cls-18" d="M1104.45,592.84c.07-1.64.13-3.32.16-5.08C1104.58,589.52,1104.52,591.2,1104.45,592.84Z"/><path class="cls-18" d="M1103.12,606.83c.05-.31.09-.63.14-.94C1103.21,606.2,1103.17,606.52,1103.12,606.83Z"/><path class="cls-18" d="M1103.82,601.59c0-.45.09-.91.13-1.37C1103.91,600.68,1103.86,601.14,1103.82,601.59Z"/><path class="cls-18" d="M1104.3,595.72c0-.57.07-1.13.1-1.71C1104.37,594.59,1104.33,595.15,1104.3,595.72Z"/><path class="cls-18" d="M1104.53,573.28c-2.13-79.5-30.18-242-55.6-374.94,5.1,12.46,9.75,24.54,12.44,35.54,23.11,94.7,45.72,191,64.48,286.6,20.29,103.4-45.91,177.82-34.28,248.46,23,139.18,103.26,270.2,173.42,390,23.33,39.84,46.88,90.32,79.5,128q25.3-8.43,50.83-18.19c30.82-11.8,88.49-13.41,82.89,34-.12,1-.28,2-.44,3.07a.41.41,0,0,0,0-.09c0,.37-.13.74-.19,1.11s-.1.54-.14.81c-.21,1.17-.43,2.34-.67,3.52-.07.29-.13.58-.2.87-.25,1.16-.52,2.32-.82,3.48-.08.31-.17.62-.25.93-.3,1.14-.62,2.29-1,3.43-.1.33-.2.67-.31,1-.34,1.12-.71,2.25-1.09,3.38-.13.35-.25.71-.38,1.06-.39,1.11-.79,2.22-1.22,3.33-.14.37-.29.75-.44,1.12-.43,1.09-.88,2.18-1.34,3.28l-.51,1.18c-.47,1.07-1,2.15-1.45,3.22l-.58,1.24c-.5,1.06-1,2.12-1.55,3.17a2.59,2.59,0,0,1-.14.29,119.11,119.11,0,0,1,22.81,7.35c20,9.1,16.54,26.52,29,35,32.06,21.83,194.23,61.93,231.81,55.43a6.88,6.88,0,0,0,2.11-.69l.36-11c-3.94-8.06-12.68-17.57-16.3-19.48-9.84-5.17-52.38-10.31-55.48-20.64-1-3.48,4.43-5,6.65-5.34,8.73-1.38,19.43-2,28,.32,1.24.33,9.39,5.31,10.47,4.11,4.46-4.9,1.19-14.37,1.11-20.15-.39-25.87,1.91-46.52,8.78-71.42,10.28-37.23,16.08-74.26,24.81-111.68-11-4.56-29.08-6-49.33-18.54-7.32-4.51-25-14.07-49.16-27.83-88.49-50.45-263.34-157.47-328.77-280.27C1252,706.25,1133.39,150.65,1126.9,0H1009C1021.24,57.77,1100.86,437.14,1104.53,573.28ZM1269.71,768.1c40.43,115,132.53,209.35,222.33,285.7,7.45,6.33,156.61,130.79,113.35,150.72-1,.47-11.16-15.5-12.79-17.46-42.52-51.15-114.43-86.92-164-132.11-161-146.65-217.21-416.16-264.08-620.67-15.32-66.77-40.07-131-54.32-198.15l-10.47-64.92c12.1-39.08,61.37,182.45,62.89,191.59C1184.75,496.38,1224.83,640.44,1269.71,768.1Z"/><path class="cls-18" d="M1764.53,1186.52l-.52-.35Z"/><path class="cls-18" d="M1765.7,1187.42l-.34-.26Z"/><path class="cls-18" d="M1763.24,1185.68l-.58-.33Z"/><path class="cls-18" d="M1766.7,1188.38c.07.06.12.13.19.2h0A1.8,1.8,0,0,0,1766.7,1188.38Z"/><path class="cls-18" d="M1760.07,1184.09l-.36-.16Z"/><path class="cls-18" d="M1761.81,1184.9l-.58-.29Z"/><path class="cls-20" d="M1463.41,1346.28c-.24.45-.48.9-.73,1.34-.56,1-1.13,2.05-1.72,3.08l-.82,1.4c-.59,1-1.19,2-1.8,3l-.89,1.45c-.62,1-1.24,2-1.88,3l-1,1.49c-.64,1-1.29,1.94-1.95,2.92-.34.51-.7,1-1.05,1.53-.66,1-1.33,1.91-2,2.87l-1.14,1.58c-.68.94-1.36,1.87-2.06,2.81l-1.21,1.62c-.7.92-1.4,1.85-2.12,2.77-.42.55-.85,1.1-1.28,1.64-.72.91-1.44,1.82-2.18,2.73l-1.35,1.67c-.74.9-1.48,1.8-2.23,2.69l-1.42,1.7c-.72.84-1.44,1.69-2.17,2.53,70.92,17,167.33,41.25,196.66,53.73,5.72,2.43,11.92,4.72,18.38,6.87,40.55,13.51,91.87,21.48,106.79,23.62a36,36,0,0,1-3.71-12.53l.73-22.55a6.88,6.88,0,0,1-2.11.69c-37.58,6.5-199.75-33.6-231.81-55.43-12.45-8.46-9-25.88-29-35a119.11,119.11,0,0,0-22.81-7.35l-.52,1C1464.52,1344.2,1464,1345.24,1463.41,1346.28Z"/><path class="cls-20" d="M1265,1158.91c-70.16-119.77-150.47-250.79-173.42-390-11.63-70.64,54.57-145.06,34.28-248.46-18.76-95.62-41.37-191.9-64.48-286.6-2.69-11-7.34-23.08-12.44-35.54,25.42,133,53.47,295.44,55.6,374.94,0,.06,0,.12,0,.18,0,1.11,0,2.2.07,3.28,0,.25,0,.5,0,.75,0,1,0,2,0,2.92v3.64c0,.31,0,.61,0,.91,0,.89,0,1.78,0,2.64,0,.06,0,.11,0,.16,0,1.76-.09,3.44-.16,5.08,0,.39,0,.79,0,1.17,0,.58-.07,1.14-.1,1.71s-.06,1-.1,1.47-.07,1-.12,1.53-.08,1-.13,1.5-.09.92-.13,1.37l-.18,1.51c0,.4-.09.8-.14,1.19-.08.55-.16,1.08-.24,1.6,0,.31-.09.63-.14.94-.14.81-.28,1.6-.43,2.35C1084.48,698.05,1040,728,1040,728s2.33,5.48,6.47,15.26c28.61,67.5,144,340,181.08,429.63,19.45,47,47.19,92.64,71.53,128.21q22.65-6.55,45.38-14.14C1311.87,1249.23,1288.32,1198.75,1265,1158.91Z"/><path class="cls-20" d="M1759.35,1191.62l.05,0,0,0,.2-.15.08,0,.28-.18.15-.09.45-.26.2-.1c.13-.08.28-.15.43-.23l.28-.14.69-.32.31-.12.58-.23.4-.15.92-.32.4-.12.77-.21.46-.12.84-.19c-.07-.07-.12-.14-.19-.2a13,13,0,0,0-1-1l-.34-.26c-.27-.22-.54-.44-.83-.64l-.52-.35-.77-.49-.58-.33-.85-.45-.58-.29c-.37-.18-.76-.35-1.16-.52l-.36-.16h0c-8.73,37.42-14.53,74.45-24.81,111.68-6.87,24.9-9.17,45.55-8.78,71.42.08,5.78,3.35,15.25-1.11,20.15-1.08,1.2-9.23-3.78-10.47-4.11-8.59-2.3-19.29-1.7-28-.32-2.22.35-7.7,1.86-6.65,5.34,3.1,10.33,45.64,15.47,55.48,20.64,3.62,1.91,12.36,11.42,16.3,19.48Z"/><path class="cls-21" d="M1992.54,1241.06c-25.3-7.69-145-25.66-173.64-34.22.66.21,1.41.42,2.19.63-6.18,47.24,3,96,3.32,143.22.22,32.77-6.48,70.49,2.5,102.42,4,14,18.92,18,29.73,25,7.29,4.76,13.89,9.39,22.2,12.23,6.23,2.11,11.53,5.08,18.23,5.18.61,0,4.3.4,4.63-.37,1.28-3.16-11.11-8.76-13.25-10.28-10.33-7.35-23.19-12.91-32.53-21.45-4.38-4-8.2-10.29-5.13-16.25,2.42-4.61,15.91,8,17.93,9.41,7.15,5.15,14.91,6.39,22.64,10,13.67,6.35,26.69,14.64,40.57,21,16.74,7.66,34.92,20,53.41,22.17,2.16.26,13.49-2.4,14.54-3.7a10.05,10.05,0,0,0,1.53-3,33.7,33.7,0,0,1-.92-5.4c-.08-.9,1.22,1.46,1.28,2.35a8.48,8.48,0,0,1-.36,3c1.19,5,3.21,10.17,4.54,14.9.36,1.25.64,5,2.19,5.4,4.49,1.23,9.12-1.4,13.69-4,2.75-31.56,7.66-88.77,11.62-142,3.52-47.42,6.28-91.72,6.11-112,0-6.39-.4-10.41-1.1-11.39C2031.89,1244.76,2017.87,1248.75,1992.54,1241.06Zm-147.15,211.32c-1.52,1.48-5.46-2.64-6-3.73-2.8-5.11-4.38-13-4.88-18.68l-1.91-7.49c5.38,6.62,10.11,11.22,12.19,19.84C1845.34,1444.81,1847.72,1450.13,1845.39,1452.38Zm145.5,42.67c-.92-.41-1.79-.74-2.84-1.16-3.21-1.29-6.48-2.48-9.81-3.5-10.94-3.34-21-8.52-31.62-12.58-13.33-5.07-28-7.55-41-13.06-19-8-41.41-29.29-49.14-48.28l-2.32-9.43c2.85,1.67,6.59-.06,9.28,1.88,13.49,9.76,20.81,25.66,35.75,34.27,16.87,9.71,40,8.9,56.11,19.33,7.76,5,15.94,9.75,22.12,16.74,4.32,4.89,7.94,11.84,13.45,15.79.39.17.78.36,1.21.58.77.4,3,1.68,2.21,1.35A17.18,17.18,0,0,1,1990.89,1495.05Z"/><path class="cls-21" d="M2019.7,1543.69c0-.55.26-3,.62-7.15,0-.55.1-1.12.15-1.72.23-2.53.49-5.54.79-9C2020.34,1536.27,2019.77,1542.77,2019.7,1543.69Z"/><path class="cls-22" d="M1797.41,1487c18.2,8.81,60.86,21.22,75.75,29.47a33,33,0,0,0,4.44,2c28.8,11,141.63,31.25,142.1,25.21.07-.92.64-7.42,1.56-17.86.18-2,.37-4.17.57-6.47h0c-4.57,2.62-9.2,5.25-13.69,4-1.55-.43-1.83-4.15-2.19-5.4-1.33-4.73-3.35-9.86-4.54-14.9a10.05,10.05,0,0,1-1.53,3c-1.05,1.3-12.38,4-14.54,3.7-18.49-2.15-36.67-14.51-53.41-22.17-13.88-6.36-26.9-14.65-40.57-21-7.73-3.59-15.49-4.83-22.64-10-2-1.45-15.51-14-17.93-9.41-3.07,6,.75,12.28,5.13,16.25,9.34,8.54,22.2,14.1,32.53,21.45,2.14,1.52,14.53,7.12,13.25,10.28-.33.77-4,.38-4.63.37-6.7-.1-12-3.07-18.23-5.18-8.31-2.84-14.91-7.47-22.2-12.23-10.81-7-25.77-11-29.73-25-9-31.93-2.28-69.65-2.5-102.42-.3-47.27-9.5-96-3.32-143.22-.78-.21-1.53-.42-2.19-.63a94.8,94.8,0,0,0-12.6-2.95Z"/><path class="cls-22" d="M2001.77,1500c-.06-.89-1.36-3.25-1.28-2.35a33.7,33.7,0,0,0,.92,5.4A8.48,8.48,0,0,0,2001.77,1500Z"/><path class="cls-21" d="M1767.66,1188.44l-.43.07Z"/><path class="cls-21" d="M1759.45,1191.55l0,0Z"/><path class="cls-21" d="M1762.52,1189.92l-.31.12Z"/><path class="cls-21" d="M1761.52,1190.36l-.28.14Z"/><path class="cls-21" d="M1760.16,1191.09l-.15.09Z"/><path class="cls-21" d="M1759.73,1191.36l-.08,0Z"/><path class="cls-21" d="M1760.81,1190.73l-.2.1Z"/><path class="cls-21" d="M1766.05,1188.77l-.46.12Z"/><path class="cls-21" d="M1763.5,1189.54l-.4.15Z"/><path class="cls-21" d="M1764.82,1189.1l-.4.12Z"/><path class="cls-21" d="M1806.3,1203.89l0-.52s-14.33-12-27-14.66a31,31,0,0,0-11.09-.36c-1.18,11.14-.19,22.93-.77,34-2.41,44.81-1.72,89.74-3.6,134.58-1.47,35.47-13.5,69.94-5.49,105.54a40.58,40.58,0,0,0,3.77,10.36c5.07,9.43,18.15,15.84,26.46,6.32,1.45-1.65,1.2-4.43.78-6.42-.17-.77-1.52-2.12-.75-2.27s2.47,4,3,4.59c1.83,2.32,3.79,5.75,6,8.85l-.22,7.21.13-4.09Zm-24.59,262.77c-.5.38-4-.4-5,0l-.83-.62a37.81,37.81,0,0,1-6-13.41c-.55-2.42-1.08-4.77-1.75-7.16-.27-1.11-3.27-11.72-2-12.49,3.44-2.11,8.68,12,9.09,13.46C1776,1449.22,1785.53,1463.68,1781.71,1466.66Z"/><path class="cls-22" d="M1754.27,1474.3a38.19,38.19,0,0,0,14.22,15.66c17,10.57,28.79,1.17,28.79,1.17l.22-7.21c-2.16-3.1-4.12-6.53-6-8.85-.5-.6-2.25-4.72-3-4.59s.58,1.5.75,2.27c.42,2,.67,4.77-.78,6.42-8.31,9.52-21.39,3.11-26.46-6.32a40.58,40.58,0,0,1-3.77-10.36c-8-35.6,4-70.07,5.49-105.54,1.88-44.84,1.19-89.77,3.6-134.58.58-11.09-.41-22.88.77-34h0l-.53.1-.43.07-.34.07h0l-.84.19-.46.12-.77.21-.4.12-.92.32-.4.15-.58.23-.31.12-.69.32-.28.14c-.15.08-.3.15-.43.23l-.2.1-.45.26-.15.09-.28.18-.08,0-.2.15,0,0-.05,0-7.7,236.58-.36,11-.73,22.55A36,36,0,0,0,1754.27,1474.3Z"/><path class="cls-22" d="M1766.05,1433c-1.25.77,1.75,11.38,2,12.49.67,2.39,1.2,4.74,1.75,7.16a37.81,37.81,0,0,0,6,13.41l.83.62c1-.38,4.52.4,5,0,3.82-3-5.76-17.44-6.57-20.24C1774.73,1445,1769.49,1430.85,1766.05,1433Z"/><path class="cls-22" d="M1832.56,1422.48l1.91,7.49c.5,5.71,2.08,13.57,4.88,18.68.58,1.09,4.52,5.21,6,3.73,2.33-2.25-.05-7.57-.64-10.06C1842.67,1433.7,1837.94,1429.1,1832.56,1422.48Z"/><path class="cls-22" d="M1977.44,1479.26c-6.18-7-14.36-11.72-22.12-16.74-16.15-10.43-39.24-9.62-56.11-19.33-14.94-8.61-22.26-24.51-35.75-34.27-2.69-1.94-6.43-.21-9.28-1.88l2.32,9.43c7.73,19,30.15,40.24,49.14,48.28,13,5.51,27.65,8,41,13.06,10.67,4.06,20.68,9.24,31.62,12.58,3.33,1,6.6,2.21,9.81,3.5,1,.42,1.92.75,2.84,1.16C1985.38,1491.1,1981.76,1484.15,1977.44,1479.26Z"/><path class="cls-22" d="M1992.1,1495.63c-.43-.22-.82-.41-1.21-.58a17.18,17.18,0,0,0,3.42,1.93C1995.12,1497.31,1992.87,1496,1992.1,1495.63Z"/><path class="cls-19" d="M1099.7,171.21l10.47,64.92c14.25,67.11,39,131.38,54.32,198.15,46.87,204.51,103.08,474,264.08,620.67,49.6,45.19,121.51,81,164,132.11,1.63,2,11.8,17.93,12.79,17.46,43.26-19.93-105.9-144.39-113.35-150.72-89.8-76.35-181.9-170.69-222.33-285.7-44.88-127.66-85-271.72-107.12-405.3C1161.07,353.66,1111.8,132.13,1099.7,171.21Z"/><path class="cls-23" d="M246.83,1603.93c17.54,15.21,35.67,30,54,45.44,11.64,9.81,20.17,22.65,32,32.09,39.63,31.56,105.3,57.84,156.54,48.47,69.7-12.73,140.2-23.16,210-34.82,31.15-5.21,56.64-.18,56.61.18-.49,5.17-29,10.12-32.72,10.93-38.27,8.47-76.88,22.4-111.15,41.74-15.94,9-31,19.59-46.27,29.67l69.29-1.19c28.21-13,55-29.75,86-36.59,29.62-6.54,69.11-7.17,99.54-7.61,11.14-.17,84.82-1,90.34-13.57,7.59-17.42-25.28-16.11-28-30.43-1.22-6.34,27.74-5.26,28.37-19.34.22-4.68-19.17-15.23-22.28-16.75-27.57-13.56-57.64-20.32-87-29-24.27-7.14-46.72-19.6-66.95-35-2.74-2.1-19.51-13.85-15.52-18.65,7.35-8.85,57.53,18,64.65,21.68,54.21,28,108.36,49,169.9,37.82,21.84-4,87.8-22.94,97.3-44.41,8-18.13,4.77-43.4,4.1-62.75-.19-5.94-5.37-19.17,3-22,25.36-8.57,70.7,21.15,107.33,14.75,111.88-19.53,242.15-101.14,304.42-196.08,2.67-4.11,5.12-8.36,7.4-12.71.16-1,.32-2,.44-3.07,5.6-47.39-52.07-45.78-82.89-34q-25.54,9.78-50.83,18.19-22.74,7.59-45.38,14.14c-91.51,26.51-182.65,40.87-281.25,47.31-48,3.14-96.41,3.18-144.93,2.45l-9-.14c-36.51-.61-73.08-1.58-109.59-1.92-43.6-.41-87.11.09-130.34,3.16-26.17,1.87-52.24,4.67-78.15,8.8A273.93,273.93,0,0,0,517.1,1367c-66.05,18-130.83,58.87-190.87,86.83l-3.31,1.57c-11.06,5.22-22,10.7-32.84,16.32-23.57,12.21-46.83,25-70.52,36.94l-1.93,1C224.2,1528.79,235.59,1563.35,246.83,1603.93Z"/><path class="cls-23" d="M1262.4,1518.94l.4-.21Z"/><path class="cls-23" d="M1266.89,1516.62l.46-.24Z"/><path class="cls-23" d="M1237.21,1530.78l.22-.09Z"/><path class="cls-23" d="M1271.45,1514.2l.52-.28Z"/><path class="cls-23" d="M1276.07,1511.7l.6-.33Z"/><path class="cls-23" d="M1245.24,1527.25a2.06,2.06,0,0,1,.26-.12A2.06,2.06,0,0,0,1245.24,1527.25Z"/><path class="cls-23" d="M1280.75,1509.11l.67-.38Z"/><path class="cls-23" d="M1258,1521.16l.34-.17Z"/><path class="cls-23" d="M1241.17,1529.07l.26-.12Z"/><path class="cls-23" d="M1253.65,1523.29l.31-.15Z"/><path class="cls-23" d="M1249.4,1525.32l.22-.11Z"/><path class="cls-23" d="M1314.69,1488.67l1.27-.82Z"/><path class="cls-23" d="M1430.84,1391.91l1.5-1.72Z"/><path class="cls-23" d="M1329.59,1478.81l1.51-1Z"/><path class="cls-23" d="M1324.62,1482.16l1.42-1Z"/><path class="cls-23" d="M1285.49,1506.43l.73-.43Z"/><path class="cls-23" d="M1344.51,1468.35l1.71-1.23Z"/><path class="cls-23" d="M1339.54,1471.9l1.66-1.17Z"/><path class="cls-23" d="M1427,1396.26l1.56-1.74Z"/><path class="cls-23" d="M1334.57,1475.38l1.58-1.1Z"/><path class="cls-23" d="M1300,1497.9c.32-.2.65-.41,1-.6C1300.6,1497.49,1300.27,1497.7,1300,1497.9Z"/><path class="cls-23" d="M1290.26,1503.67l.82-.49Z"/><path class="cls-23" d="M1319.65,1485.45l1.36-.9Z"/><path class="cls-23" d="M1295.09,1500.82l.88-.53Z"/><path class="cls-23" d="M1309.75,1491.82l1.19-.75Z"/><path class="cls-23" d="M1233.35,1532.39l.07,0Z"/><path class="cls-23" d="M1304.84,1494.9l1.08-.68Z"/><path class="cls-23" d="M1364.21,1453.6l1.87-1.47Z"/><path class="cls-23" d="M1373.88,1445.9l1.91-1.56Z"/><path class="cls-23" d="M1369.06,1449.77l1.91-1.52Z"/><path class="cls-23" d="M1397.24,1425.86l1.88-1.72Z"/><path class="cls-23" d="M1392.68,1430l1.91-1.7Z"/><path class="cls-23" d="M1388.06,1434l1.93-1.69Z"/><path class="cls-23" d="M1383.39,1438l1.92-1.64Z"/><path class="cls-23" d="M1378.66,1442l1.92-1.6Z"/><path class="cls-23" d="M1406.15,1417.56l1.82-1.75Z"/><path class="cls-23" d="M1359.32,1457.37l1.85-1.42Z"/><path class="cls-23" d="M1418.91,1404.87l1.69-1.77Z"/><path class="cls-23" d="M1416.48,1407.36c-.58.59-1.15,1.18-1.74,1.77C1415.33,1408.54,1415.9,1408,1416.48,1407.36Z"/><path class="cls-23" d="M1423,1400.57c.55-.58,1.09-1.16,1.63-1.75C1424.08,1399.41,1423.54,1400,1423,1400.57Z"/><path class="cls-23" d="M1410.49,1413.36l1.78-1.76Z"/><path class="cls-23" d="M1354.4,1461.09l1.82-1.37Z"/><path class="cls-23" d="M1349.47,1464.75l1.76-1.3Z"/><path class="cls-23" d="M1401.73,1421.73l1.86-1.74Z"/><path class="cls-23" d="M1476.82,1311.17c-.07.29-.13.58-.2.87C1476.69,1311.75,1476.75,1311.46,1476.82,1311.17Z"/><path class="cls-23" d="M1474.58,1319.88c-.1.33-.2.67-.31,1C1474.38,1320.55,1474.48,1320.21,1474.58,1319.88Z"/><path class="cls-23" d="M1473.18,1324.26c-.13.35-.25.71-.38,1.06C1472.93,1325,1473.05,1324.61,1473.18,1324.26Z"/><path class="cls-23" d="M1477.63,1306.84c-.05.27-.1.54-.14.81C1477.53,1307.38,1477.58,1307.11,1477.63,1306.84Z"/><path class="cls-23" d="M1475.8,1315.52c-.08.31-.17.62-.25.93C1475.63,1316.14,1475.72,1315.83,1475.8,1315.52Z"/><path class="cls-23" d="M1469.8,1333.05l-.51,1.18Z"/><path class="cls-23" d="M1471.58,1328.65c-.14.37-.29.75-.44,1.12C1471.29,1329.4,1471.44,1329,1471.58,1328.65Z"/><path class="cls-23" d="M1467.84,1337.45l-.58,1.24Z"/><path class="cls-23" d="M1454.6,1361l1-1.49Z"/><path class="cls-23" d="M1457.45,1356.56l.89-1.45Z"/><path class="cls-23" d="M1451.6,1365.47c.35-.51.71-1,1.05-1.53C1452.31,1364.45,1452,1365,1451.6,1365.47Z"/><path class="cls-23" d="M1462.68,1347.62c.25-.44.49-.89.73-1.34C1463.17,1346.73,1462.93,1347.18,1462.68,1347.62Z"/><path class="cls-23" d="M1460.14,1352.1l.82-1.4Z"/><path class="cls-23" d="M1438.26,1383.16l1.35-1.67Z"/><path class="cls-23" d="M1441.79,1378.76c.43-.54.86-1.09,1.28-1.64C1442.65,1377.67,1442.22,1378.22,1441.79,1378.76Z"/><path class="cls-23" d="M1465.05,1343.16l.52-1a2.59,2.59,0,0,0,.14-.29C1465.5,1342.3,1465.28,1342.73,1465.05,1343.16Z"/><path class="cls-23" d="M1445.19,1374.35l1.21-1.62Z"/><path class="cls-23" d="M1448.46,1369.92l1.14-1.58Z"/><path class="cls-23" d="M1434.61,1387.55l1.42-1.7Z"/><path class="cls-16" d="M565.84,1777.63c15.32-10.08,30.33-20.69,46.27-29.67,34.27-19.34,72.88-33.27,111.15-41.74,3.68-.81,32.23-5.76,32.72-10.93,0-.36-25.46-5.39-56.61-.18-69.83,11.66-140.33,22.09-210,34.82-51.24,9.37-116.91-16.91-156.54-48.47-11.84-9.44-20.37-22.28-32-32.09-18.29-15.42-36.42-30.23-54-45.44,15.59,56.28,30.89,124.13,32.68,178.58C369.3,1781,467.85,1779.3,565.84,1777.63Z"/><path class="cls-16" d="M1166,1514.61c-36.63,6.4-82-23.32-107.33-14.75-8.36,2.83-3.18,16.06-3,22,.67,19.35,3.94,44.62-4.1,62.75-9.5,21.47-75.46,40.44-97.3,44.41-61.54,11.2-115.69-9.79-169.9-37.82-7.12-3.69-57.3-30.53-64.65-21.68-4,4.8,12.78,16.55,15.52,18.65,20.23,15.43,42.68,27.89,66.95,35,29.32,8.63,59.39,15.39,87,29,3.11,1.52,22.5,12.07,22.28,16.75-.63,14.08-29.59,13-28.37,19.34,2.68,14.32,35.55,13,28,30.43-5.52,12.6-79.2,13.4-90.34,13.57-30.43.44-69.92,1.07-99.54,7.61-30.93,6.84-57.76,23.61-86,36.59,117.88-2,231.71-4,324.91-5.63-1.89-5-3.62-10-5.08-15.1-8.2-28.32-8.27-57.1,17.12-74.45,13-8.89,29.46-12.41,42.59-21.38,25.88-17.62,49.23-39.37,74.05-58.65a224.67,224.67,0,0,1,.1-33.8v0c0-.75.12-1.5.18-2.24,0-.08,0-.16,0-.24.13-1.5.28-3,.44-4.5l.06-.48c.06-.56.12-1.12.19-1.68,0-.21,0-.42.07-.63.08-.6.15-1.2.23-1.8l.09-.67c.08-.54.15-1.07.23-1.61,0-.32.09-.64.14-1s.1-.69.16-1,.11-.71.17-1.07.09-.53.13-.79c.13-.8.27-1.59.41-2.37,0-.14.05-.28.08-.41l.27-1.4c0-.13,0-.26.07-.39,3.56-18,9.91-32.24,19.77-33.75,14.85-2.27,49.17,18,73,32.71,13.76-2.1,27.62-4.13,40.83-8.65,1.44-.5,2.87-1,4.3-1.56,1.23-.48,2.47-1,3.74-1.5l.07,0c1.24-.51,2.51-1,3.79-1.58l.22-.09,3.74-1.62.26-.12,3.81-1.7a2.06,2.06,0,0,1,.26-.12c1.29-.59,2.59-1.19,3.9-1.81l.22-.11c1.33-.62,2.67-1.26,4-1.92l.31-.15c1.33-.65,2.67-1.3,4-2l.34-.17,4.07-2,.4-.21q2-1,4.09-2.11l.46-.24,4.1-2.18.52-.28,4.1-2.22.6-.33,4.08-2.26.67-.38,4.07-2.3.73-.43c1.34-.77,2.69-1.54,4-2.33l.82-.49c1.34-.78,2.67-1.56,4-2.36l.88-.53,4-2.39c.32-.2.65-.41,1-.6l3.91-2.4,1.08-.68,3.83-2.4,1.19-.75,3.75-2.4,1.27-.82,3.69-2.4,1.36-.9c1.2-.79,2.41-1.58,3.61-2.39l1.42-1c1.19-.79,2.37-1.59,3.55-2.39l1.51-1c1.16-.79,2.32-1.58,3.47-2.39l1.58-1.1,3.39-2.38,1.66-1.17,3.31-2.38,1.71-1.23c1-.74,2-1.47,3-2.22l.21-.15,1.76-1.3,3.17-2.36,1.82-1.37,3.1-2.35,1.85-1.42,3-2.35,1.87-1.47c1-.78,2-1.57,3-2.36l1.91-1.52,2.91-2.35,1.91-1.56,2.87-2.36,1.92-1.6,2.81-2.37,1.92-1.64,2.75-2.36,1.93-1.69c.9-.78,1.8-1.57,2.69-2.37l1.91-1.7,2.65-2.39,1.88-1.72,2.61-2.41,1.86-1.74,2.56-2.43,1.82-1.75,2.52-2.45,1.78-1.76,2.47-2.47c.59-.59,1.16-1.18,1.74-1.77q1.23-1.24,2.43-2.49l1.69-1.77c.8-.84,1.6-1.68,2.39-2.53.55-.58,1.09-1.16,1.63-1.75l2.11-2.3.24-.26,1.56-1.74q1.17-1.3,2.31-2.61l1.5-1.72.1-.11c.73-.84,1.45-1.69,2.17-2.53l1.42-1.7c.75-.89,1.49-1.79,2.23-2.69l1.35-1.67c.74-.91,1.46-1.82,2.18-2.73.43-.54.86-1.09,1.28-1.64.72-.92,1.42-1.85,2.12-2.77l1.21-1.62c.7-.94,1.38-1.87,2.06-2.81l1.14-1.58c.67-1,1.34-1.91,2-2.87.35-.51.71-1,1.05-1.53.66-1,1.31-2,1.95-2.92l1-1.49c.64-1,1.26-2,1.88-3l.89-1.45c.61-1,1.21-2,1.8-3l.82-1.4c.59-1,1.16-2,1.72-3.08.25-.44.49-.89.73-1.34.57-1,1.11-2.08,1.64-3.12.23-.43.45-.86.66-1.3.53-1,1-2.11,1.55-3.17l.58-1.24c.5-1.07,1-2.15,1.45-3.22l.51-1.18c.46-1.1.91-2.19,1.34-3.28.15-.37.3-.75.44-1.12.43-1.11.83-2.22,1.22-3.33.13-.35.25-.71.38-1.06.38-1.13.75-2.26,1.09-3.38.11-.33.21-.67.31-1,.35-1.14.67-2.29,1-3.43.08-.31.17-.62.25-.93.3-1.16.57-2.32.82-3.48.07-.29.13-.58.2-.87.24-1.18.46-2.35.67-3.52,0-.27.09-.54.14-.81s.14-.74.19-1.11a.41.41,0,0,1,0,.09c-2.28,4.35-4.73,8.6-7.4,12.71C1408.1,1413.47,1277.83,1495.08,1166,1514.61Z"/><path class="cls-24" d="M279.51,1782.51c-1.79-54.45-17.09-122.3-32.68-178.58-11.24-40.58-22.63-75.14-29.2-94.3-3.52-10.25-5.66-16.09-5.66-16.09l-39.68-6.12L4.72,1461.58,0,1460.85v326.41Z"/><path class="cls-23" d="M1093,1623a2.4,2.4,0,0,0-.11-.23A2.4,2.4,0,0,1,1093,1623Z"/><path class="cls-23" d="M1092.12,1620.85v0Z"/><path class="cls-23" d="M1090.41,1614.27a1.36,1.36,0,0,0,0-.17A1.36,1.36,0,0,1,1090.41,1614.27Z"/><path class="cls-23" d="M1090.72,1615.78l-.06-.26Z"/><path class="cls-23" d="M1092.59,1622.06a1.86,1.86,0,0,1-.1-.25A1.86,1.86,0,0,0,1092.59,1622.06Z"/><path class="cls-23" d="M1091.77,1619.8c0-.09,0-.19-.08-.28C1091.72,1619.61,1091.75,1619.71,1091.77,1619.8Z"/><path class="cls-23" d="M1089.12,1605.49Z"/><path class="cls-23" d="M1091.42,1618.6c0-.08-.05-.16-.07-.25C1091.37,1618.44,1091.4,1618.52,1091.42,1618.6Z"/><path class="cls-23" d="M1089.83,1611l0-.16A.78.78,0,0,0,1089.83,1611Z"/><path class="cls-23" d="M1098.39,1538.32c5.57,33,13.16,71.69,31.54,100.51,12.25,19.22,37.35,43.36,61.19,45.88,11.05,1.16,41.9-5.21,49.79,1.23,15.44,12.57-25.66,19.53-23.94,31.39,1.32,9.09,18,29.61,29.08,45.89,50.58-3.28,108.87-7.63,108.87-7.63l29.79,9s1,2.24,2.72,6.31c13-2.31,25.92-4.62,38.89-6.83l-.87-1.67c-7-13.31-14.73-26.24-22.37-39-15.32-25.62-29.65-58.91-52.46-78.91-44.39-39-95.63-59.11-145.82-87.86-4.4-2.53-11.66-7.14-20.32-12.5-23.78-14.7-58.1-35-73-32.71-9.86,1.51-16.21,15.76-19.77,33.75a104,104,0,0,1,4.5-16.33C1097.17,1532.88,1098,1536.32,1098.39,1538.32Z"/><path class="cls-23" d="M1089.71,1558.27c0-.21,0-.42.07-.63C1089.76,1557.85,1089.73,1558.06,1089.71,1558.27Z"/><path class="cls-23" d="M1091.42,1546.93l.27-1.4Z"/><path class="cls-23" d="M1089,1565.17c0-.08,0-.16,0-.24C1089,1565,1089,1565.09,1089,1565.17Z"/><path class="cls-23" d="M1090.33,1553.56c0-.32.09-.64.14-1C1090.42,1552.92,1090.37,1553.24,1090.33,1553.56Z"/><path class="cls-23" d="M1089.46,1560.43l.06-.48Z"/><path class="cls-23" d="M1090.93,1549.71c.13-.8.27-1.59.41-2.37C1091.2,1548.12,1091.06,1548.91,1090.93,1549.71Z"/><path class="cls-23" d="M1090.63,1551.57c0-.35.11-.71.17-1.07C1090.74,1550.86,1090.68,1551.22,1090.63,1551.57Z"/><path class="cls-23" d="M1090,1555.84l.09-.67Z"/><path class="cls-23" d="M1088.82,1567.43v0Z"/><path class="cls-17" d="M1089.12,1605.49c.2,1.87.43,3.65.69,5.32l0,.16c.17,1.09.35,2.14.54,3.13a1.36,1.36,0,0,1,0,.17c.08.43.17.84.25,1.25l.06.26c.2.9.41,1.77.63,2.57,0,.09.05.17.07.25l.27.92c0,.09.06.19.08.28.12.36.23.7.35,1v0c.12.34.24.66.37,1a1.86,1.86,0,0,0,.1.25c.09.23.19.45.28.66a2.4,2.4,0,0,1,.11.23c.13.27.26.53.4.77,21,37.88,64.7,71,93,107.1,8.2,10.44,13.66,22.42,18,34.92,12-.65,26.43-1.54,41.57-2.52-11.12-16.28-27.76-36.8-29.08-45.89-1.72-11.86,39.38-18.82,23.94-31.39-7.89-6.44-38.74-.07-49.79-1.23-23.84-2.52-48.94-26.66-61.19-45.88-18.38-28.82-26-67.55-31.54-100.51-.36-2-1.22-5.44-2.13-9.51a104,104,0,0,0-4.5,16.33c0,.13,0,.26-.07.39l-.27,1.4c0,.13-.05.27-.08.41-.14.78-.28,1.57-.41,2.37,0,.26-.09.53-.13.79s-.12.72-.17,1.07-.11.69-.16,1-.1.63-.14,1c-.08.54-.15,1.07-.23,1.61l-.09.67c-.08.6-.15,1.2-.23,1.8,0,.21,0,.42-.07.63-.07.56-.13,1.12-.19,1.68l-.06.48c-.16,1.49-.31,3-.44,4.5,0,.08,0,.16,0,.24-.06.74-.13,1.49-.18,2.24v0a224.67,224.67,0,0,0-.1,33.8c.12,1.47.25,2.88.4,4.26Z"/><path class="cls-23" d="M2240.18,2019.82l-.1,0h0Z"/><path class="cls-23" d="M2266,2019.52l-.45.07Z"/><path class="cls-23" d="M2269.77,2018.87l-.39.07Z"/><path class="cls-23" d="M2258.94,2020.43h0Z"/><path class="cls-23" d="M2239.6,2019.68l-.9-.24Z"/><path class="cls-23" d="M2268,2019.18l-.59.1Z"/><path class="cls-23" d="M2263.18,2019.94h.09Z"/><path class="cls-23" d="M2242.16,2020.21l.22,0,.14,0-.44-.07Z"/><path class="cls-23" d="M2246.84,2020.74h.3l-.37,0Z"/><path class="cls-23" d="M2244.37,2020.52h0Z"/><path class="cls-23" d="M2254,2020.78h.42l-.48,0Z"/><path class="cls-23" d="M2249.24,2020.84h0Z"/><path class="cls-23" d="M2261.44,2020.16h.1l-.45,0Z"/><path class="cls-23" d="M2256.46,2020.64h.22l-.48,0Z"/><path class="cls-23" d="M2477.73,1801.45c.28-1,.55-2.08.82-3.1-.26,1-.55,2.06-.83,3.1Z"/><path class="cls-23" d="M2470.9,1825.73l-.82,3Z"/><path class="cls-23" d="M2232,2016.13c-.31-.25-.6-.52-.88-.79C2231.4,2015.61,2231.69,2015.88,2232,2016.13Z"/><path class="cls-23" d="M2271.82,2018.46l-.51.1Z"/><path class="cls-23" d="M2230.87,2015.07c-.19-.21-.38-.42-.55-.64C2230.49,2014.65,2230.68,2014.86,2230.87,2015.07Z"/><path class="cls-23" d="M2469.8,1829.84,2469,1833Z"/><path class="cls-23" d="M2473.08,1817.9c-.18.65-.36,1.3-.55,2C2472.72,1819.2,2472.9,1818.55,2473.08,1817.9Z"/><path class="cls-23" d="M2229.37,2013.07c-.2-.35-.39-.71-.56-1.09C2229,2012.36,2229.17,2012.72,2229.37,2013.07Z"/><path class="cls-23" d="M2230.05,2014.08c-.16-.22-.32-.45-.47-.68C2229.73,2013.63,2229.89,2013.86,2230.05,2014.08Z"/><path class="cls-23" d="M2234.08,2017.55c-.24-.14-.47-.27-.69-.42C2233.61,2017.28,2233.84,2017.41,2234.08,2017.55Z"/><path class="cls-23" d="M2472,1821.7c-.25.92-.51,1.84-.76,2.77C2471.5,1823.54,2471.76,1822.62,2472,1821.7Z"/><path class="cls-23" d="M2468.74,1834l-.78,3.2Z"/><path class="cls-23" d="M2238.17,2019.28l-.85-.28Z"/><path class="cls-23" d="M2464.66,1854.81c-.12.93-.24,1.87-.33,2.79C2464.42,1856.68,2464.54,1855.74,2464.66,1854.81Z"/><path class="cls-23" d="M2465.26,1850.67c-.16,1-.32,2-.45,3C2464.94,1852.65,2465.1,1851.66,2465.26,1850.67Z"/><path class="cls-23" d="M2464.21,1859c-.07.82-.15,1.65-.2,2.46C2464.06,1860.69,2464.14,1859.86,2464.21,1859Z"/><path class="cls-23" d="M2273.29,2018.15l-.47.1Z"/><path class="cls-23" d="M2466.81,1842.35c-.22,1.06-.44,2.11-.64,3.15C2466.37,1844.46,2466.59,1843.41,2466.81,1842.35Z"/><path class="cls-23" d="M2235.37,2018.21c-.3-.13-.59-.28-.87-.43C2234.78,2017.93,2235.07,2018.08,2235.37,2018.21Z"/><path class="cls-23" d="M2467.74,1838.18c-.25,1.06-.49,2.13-.72,3.19C2467.25,1840.31,2467.49,1839.24,2467.74,1838.18Z"/><path class="cls-23" d="M2466,1846.52c-.19,1-.38,2-.55,3.07C2465.6,1848.58,2465.79,1847.55,2466,1846.52Z"/><path class="cls-23" d="M2236.86,2018.84c-.41-.15-.81-.31-1.19-.48C2236.05,2018.53,2236.45,2018.69,2236.86,2018.84Z"/><path class="cls-23" d="M2233,2016.87l-.71-.53Z"/><path class="cls-23" d="M2632.4,1904.94l-1.7,6.5Z"/><path class="cls-23" d="M2630.53,1912.12q-1.83,7.05-3.54,14.13C2628.12,1921.53,2629.31,1916.82,2630.53,1912.12Z"/><path class="cls-23" d="M2623.38,1942.3c-.47,2.28-.93,4.57-1.37,6.85C2622.45,1946.87,2622.91,1944.58,2623.38,1942.3Z"/><path class="cls-23" d="M2626.79,1927.09c-1.1,4.6-2.15,9.21-3.12,13.83C2624.64,1936.3,2625.69,1931.69,2626.79,1927.09Z"/><path class="cls-23" d="M2634.2,1898.17l-1.59,6Z"/><path class="cls-23" d="M2670.72,1692.42l-.51.67Z"/><path class="cls-23" d="M2342.2,1626.68c-13.42,3.23-26.84,6.22-40.26,8.77-75.27,14.3-157.9,13.29-233.3,12.28-68.6-.91-131.22-1.82-176.86,8.82-11.62,2.7-23.86,5.51-36.52,8.39-18,4.1-36.83,8.35-56,12.71-52.62,12-107.33,24.81-152.14,37.36-62.87,17.6-125.41,33.4-189.41,43.86-2.26.37-4.52.75-6.79,1.11q-12.33,1.93-24.65,4c-13,2.21-25.94,4.52-38.89,6.83,1.57,3.68,3.77,8.86,6.41,15.26l0,.07c.32.77.65,1.56,1,2.37l.24.57c.26.65.54,1.32.82,2,.12.3.24.6.37.9l.57,1.42c14.38,35.18,38.12,96.53,52,150,.08.3.16.61.23.91.27,1,.54,2.06.8,3.09,1.59,6.28,3,12.43,4.29,18.4a198.33,198.33,0,0,1,20.41,18.4c26.35,27.63,17.51,71.71,42,102.17,9.28,11.57,23.11-6.06,33.17,1,22.58,15.89,35.83,42.58,61.1,59,120.47,78.35,285.77,113.05,426.24,126.68,56.39,5.48,116.14,31.22,173.42,23.93,15.49-2,22.58-26,37.08-24.86,19.78,1.51,30.92,26.28,53.54,14,87.26-47.38,192.51-139.24,259.88-211.81,18.79-20.24,3-54.52,4.85-56.11,6.79-5.8,15,29.73,22.61,13.65,4.79-10.09,1.94-20.61,4.46-30.81,10.64-43.11,27.79-91.9,49-133,3.06-12.59,5.77-25.25,7.64-38.06,12-29.7,16.71-67.67,17.87-100.56.22-6,.31-11.9.31-17.51,0-1.45.07-3.85.15-6.83l-1.48,1.4a412.57,412.57,0,0,1-57.84,44.27c-5.08,7.51-10.26,15-15.3,22.52-15,22.49-24.3,48.07-45.08,66.36-19.62,17.26-40.35,30.56-57.64,50.48-5,5.8-13.14,11.53-15.91,18.89-2.27,6-6.46,23.42-3.69,29.44,2.5,5.37,11.09,11,15.66,14.35,13.55,9.85,28.88,18.42,41.93,28.82,8.7,6.94,17.43,12.52,24.41,21.41.53.67,6,11.55,5.21,11.57-3.65.06-11.55-10.84-14-13.52-7.76-8.61-18.68-16.51-29.74-20.19-13.22-4.4-41.93-13.52-55-5.08-7,4.52-9.15,18.43-16.91,20-12.5,2.52-24.11-7-36.58-4.3-10.83,2.29-21.09,13.65-30.95,18.4-15.16,7.27-30,7.76-46.28,9.8-20.73,2.61-36.61,5.68-57.61,2.35a32.85,32.85,0,0,0-7,0c-5,9.08-11.12,17.3-20.49,23.19-7.81,4.9-42.37,60.2-54.78,36.79-5.6-10.55,28.13-29.69,29.29-41.38,2.22-22.32-29.43-49.16-35.75-71-4.74-16.33,10.14-45.83-5-56.23-18-12.41-45.69-12-66.48-16.59-3.71-.82-23.08-5.78-19.42-12.8,3.21-6.18,38.65.1,45.61.8,39,3.94,81.72-9.45,118.58-20.37,18.73-5.55,46.69-22.87,62.38-35,11.75-9.11,17.51-23.23,32.5-28.83,20.87-7.8,43.57-6.84,65-12.93,45.28-12.89,83.55-38.59,126.84-55.86,9.89-4,19.72-7.64,29.44-11.46-2.44-.48-4.86-1-7.25-1.42-6.79-1.26-14.24-2.37-18.87-8.36-4.52-5.82-5.4-14.4-7.81-21.16-3.94-10.9-6.27-25.18-6.77-36.75-.16-4.22-1-8.16-1-12.42,0-1.9-.63-7,.7-5.67,3.63,3.79,3.9,12.2,5,16.95,2.13,9.16,5.07,19.6,9.36,28,12.09,23.49,35.24,25,58.08,27.33a238.29,238.29,0,0,0,22.23-12.19c20-12.5,43.23-23.49,61.41-38.93-.13.74-.28,1.47-.43,2.2a96.57,96.57,0,0,0,1.93-19.55c0-12.52-1.21-23.71-7.07-32.86a39.4,39.4,0,0,0-14.69-13.27c-40-22-83.71-14.23-126.5-9.94-27.43,2.75-54.78,8.09-82.07,14.53C2419.39,1606,2380.77,1617.39,2342.2,1626.68Zm-249,411.93c16.24-9.64,86.85-23.7,82.8-14.93l8.15-3.47c-7.95,17.53-89.07,51.86-99,24.12C2084.79,2043.35,2092.72,2038.9,2093.19,2038.61Z"/><path class="cls-23" d="M2681.88,1673.22c-.17.42-.35.84-.53,1.26C2681.53,1674.06,2681.71,1673.64,2681.88,1673.22Z"/><path class="cls-23" d="M2680.32,1676.76l-.32.69Z"/><path class="cls-23" d="M2676.85,1683.33l-.47.79Z"/><path class="cls-23" d="M2683.14,1670c-.17.46-.35.92-.52,1.37C2682.79,1670.94,2683,1670.48,2683.14,1670Z"/><path class="cls-23" d="M2686.39,1658.77c-.15.66-.31,1.32-.46,2C2686.08,1660.09,2686.24,1659.43,2686.39,1658.77Z"/><path class="cls-23" d="M2685.58,1662.15c-.16.62-.32,1.23-.49,1.84C2685.26,1663.38,2685.42,1662.77,2685.58,1662.15Z"/><path class="cls-23" d="M2684.62,1665.57c-.22.71-.44,1.42-.67,2.12C2684.18,1667,2684.4,1666.28,2684.62,1665.57Z"/><path class="cls-23" d="M2678.53,1680.32l-.46.86Z"/><path class="cls-23" d="M2672.75,1689.68l-.47.64Z"/><path class="cls-16" d="M2588.51,2032c-7.65,16.08-15.82-19.45-22.61-13.65-1.86,1.59,13.94,35.87-4.85,56.11-67.37,72.57-172.62,164.43-259.88,211.81-22.62,12.27-33.76-12.5-53.54-14-14.5-1.11-21.59,22.89-37.08,24.86-57.28,7.29-117-18.45-173.42-23.93-140.47-13.63-305.77-48.33-426.24-126.68-25.27-16.43-38.52-43.12-61.1-59-10.06-7.08-23.89,10.55-33.17-1-24.5-30.46-15.66-74.54-42-102.17a198.33,198.33,0,0,0-20.41-18.4q1.75,8.3,3,16.08v.06c.21,1.32.42,2.62.61,3.9,0,.06,0,.12,0,.17.19,1.27.37,2.53.53,3.77a1.1,1.1,0,0,1,0,.18c.17,1.3.33,2.58.47,3.84,4.68,41.23-2,119.34-9.73,186.53,28.57-1.07,57.48-1.76,85.11,4,22.61,4.73,45.84,20.71,67,29.78,49,21,97.07,42.89,147.12,61.73,67.84,25.54,139.31,38.78,207.51,62.89,65.4,23.13,125.62,41.68,194.51,47.93,21,1.9,48.35,12.45,69.05,5.53,67-22.44,122.6-74.1,178.8-114.94,125.2-91,195.26-177.24,223.77-328.17.44-2.28.9-4.57,1.37-6.85.09-.46.19-.92.29-1.38,1-4.62,2-9.23,3.12-13.83.06-.28.13-.56.2-.84q1.71-7.08,3.54-14.13c.06-.23.12-.45.17-.68l1.7-6.5.21-.79,1.59-6c2.65-10,5.32-20,7.77-30.06l0,0c-21.19,41.1-38.34,89.89-49,133C2590.45,2011.34,2593.3,2021.86,2588.51,2032Z"/><path class="cls-16" d="M2085.13,2044.33c9.94,27.74,91.06-6.59,99-24.12l-8.15,3.47c4.05-8.77-66.56,5.29-82.8,14.93C2092.72,2038.9,2084.79,2043.35,2085.13,2044.33Z"/><path class="cls-16" d="M2265.18,2019.65l.32-.05h0Z"/><path class="cls-16" d="M2258.76,2020.45l.18,0h0Z"/><path class="cls-16" d="M2251.77,2020.84h0Z"/><path class="cls-16" d="M2261,2020.21l.48,0-.35,0Z"/><path class="cls-16" d="M2668.13,1695.68c.71-.85,1.4-1.72,2.08-2.59l.51-.67c.27-.35.55-.7.82-1.06s.49-.69.74-1l.47-.64q1.92-2.7,3.63-5.56l.47-.79c.42-.71.82-1.43,1.22-2.15l.46-.86c.51-.94,1-1.9,1.47-2.87l.32-.69c.35-.75.7-1.51,1-2.28.18-.42.36-.84.53-1.26.26-.6.5-1.21.74-1.83.17-.45.35-.91.52-1.37.28-.77.55-1.54.81-2.33s.45-1.41.67-2.12c.16-.52.32-1,.47-1.58s.33-1.22.49-1.84.23-.94.35-1.41c.15-.65.31-1.31.46-2l.15-.78c.15-.73.3-1.46.43-2.2-18.18,15.44-41.4,26.43-61.41,38.93a238.29,238.29,0,0,1-22.23,12.19c1.78.18,3.56.36,5.33.56l4.62,7.51c-12.37,10.62-27.17,8.27-41.41,5.46-9.72,3.82-19.55,7.51-29.44,11.46-43.29,17.27-81.56,43-126.84,55.86-21.42,6.09-44.12,5.13-65,12.93-15,5.6-20.75,19.72-32.5,28.83-15.69,12.16-43.65,29.48-62.38,35-36.86,10.92-79.62,24.31-118.58,20.37-7-.7-42.4-7-45.61-.8-3.66,7,15.71,12,19.42,12.8,20.79,4.58,48.44,4.18,66.48,16.59,15.13,10.4.25,39.9,5,56.23,6.32,21.83,38,48.67,35.75,71-1.16,11.69-34.89,30.83-29.29,41.38,12.41,23.41,47-31.89,54.78-36.79,9.37-5.89,15.52-14.11,20.49-23.19-8.17.57-19,2.16-24-2.32h0l-.48-.12-.9-.24-.53-.16-.85-.28-.46-.16c-.41-.15-.81-.31-1.19-.48l-.3-.15c-.3-.13-.59-.28-.87-.43l-.42-.23c-.24-.14-.47-.27-.69-.42l-.41-.26-.71-.53-.27-.21c-.31-.25-.6-.52-.88-.79l-.25-.27c-.19-.21-.38-.42-.55-.64l-.27-.35c-.16-.22-.32-.45-.47-.68l-.21-.33c-.2-.35-.39-.71-.56-1.09-28.4-64.4,12.33-110.23,65.1-139,58.44-31.85,122.18-51.89,184.64-74.64-.27,1-.54,2.06-.82,3.1,34.33-14,68.77-31.64,100.47-49.48,10.39-5.86,20.79-11.82,31.34-17.18,2.91-1.48,9.76-7,13.08-6.58,1,.11-8.14,13.84-8.42,14.27-1.84,2.8-3.72,5.59-5.6,8.37a412.57,412.57,0,0,0,57.84-44.27l1.48-1.4h0C2668,1702.41,2668.1,1699.16,2668.13,1695.68Z"/><path class="cls-16" d="M2254.24,2020.77h0Z"/><path class="cls-16" d="M2256.6,2020.63h0Z"/><path class="cls-16" d="M2263.22,2019.93l.67-.09-.62.08Z"/><path class="cls-16" d="M2242.38,2020.24l-.22,0Z"/><path class="cls-16" d="M2244.43,2020.53l.26,0-.2,0Z"/><path class="cls-16" d="M2246.94,2020.74h0Z"/><path class="cls-16" d="M2249.26,2020.84h0Z"/><path class="cls-17" d="M2613.28,1715l-4.62-7.51c-1.77-.2-3.55-.38-5.33-.56-22.84-2.3-46-3.84-58.08-27.33-4.29-8.37-7.23-18.81-9.36-28-1.09-4.75-1.36-13.16-5-16.95-1.33-1.38-.67,3.77-.7,5.67,0,4.26.81,8.2,1,12.42.5,11.57,2.83,25.85,6.77,36.75,2.41,6.76,3.29,15.34,7.81,21.16,4.63,6,12.08,7.1,18.87,8.36,2.39.45,4.81.94,7.25,1.42C2586.11,1723.25,2600.91,1725.6,2613.28,1715Z"/><path class="cls-16" d="M2622.62,1728.21c-3.32-.39-10.17,5.1-13.08,6.58-10.55,5.36-20.95,11.32-31.34,17.18-31.7,17.84-66.14,35.52-100.47,49.48h0c-1.42,5.24-3,10.78-4.64,16.45-.18.65-.36,1.3-.55,2s-.34,1.22-.52,1.84c-.25.92-.51,1.84-.76,2.77-.12.42-.23.84-.35,1.26l-.82,3c-.09.36-.18.72-.28,1.07L2469,1833c-.08.33-.17.66-.25,1l-.78,3.2c-.07.33-.15.65-.22,1-.25,1.06-.49,2.13-.72,3.19l-.21,1c-.22,1.06-.44,2.11-.64,3.15-.07.34-.13.68-.19,1-.19,1-.38,2.06-.55,3.07-.07.36-.12.72-.17,1.08-.16,1-.32,2-.45,3-.06.4-.1.79-.15,1.18-.12.93-.24,1.87-.33,2.79,0,.49-.08,1-.12,1.44-.07.82-.15,1.65-.2,2.46-.08,1.28-.13,2.55-.15,3.8-12.16,43.56-20,88.8-66.28,107.64-40,16.28-80.84,35.11-123,44.92l-1.25.29-.47.1-1,.21-.51.1-1.54.31-.39.07-1.35.24-.59.1-1.43.24-.45.07h-.06l-.32.05-1.29.19-.67.09h0l-1.64.21h-.1l-.48,0-2,.22h0l-.18,0-2.08.17h-.48c-.6,0-1.2.08-1.8.11h-.48l-2.15.06H2249c-.62,0-1.23,0-1.84-.08h-.37c-.7,0-1.39-.1-2.08-.18l-.26,0h-.06c-.62-.07-1.24-.16-1.85-.26l-.14,0-.22,0-.08,0c-.64-.11-1.28-.23-1.9-.37l-.06,0h0c5.07,4.48,15.86,2.89,24,2.32a32.85,32.85,0,0,1,7,0c21,3.33,36.88.26,57.61-2.35,16.27-2,31.12-2.53,46.28-9.8,9.86-4.75,20.12-16.11,30.95-18.4,12.47-2.65,24.08,6.82,36.58,4.3,7.76-1.56,9.87-15.47,16.91-20,13.1-8.44,41.81.68,55,5.08,11.06,3.68,22,11.58,29.74,20.19,2.41,2.68,10.31,13.58,14,13.52.83,0-4.68-10.9-5.21-11.57-7-8.89-15.71-14.47-24.41-21.41-13.05-10.4-28.38-19-41.93-28.82-4.57-3.34-13.16-9-15.66-14.35-2.77-6,1.42-23.41,3.69-29.44,2.77-7.36,10.86-13.09,15.91-18.89,17.29-19.92,38-33.22,57.64-50.48,20.78-18.29,30.06-43.87,45.08-66.36,5-7.53,10.22-15,15.3-22.52,1.88-2.78,3.76-5.57,5.6-8.37C2614.48,1742.05,2623.59,1728.32,2622.62,1728.21Z"/><path class="cls-25" d="M3121.1,2219.19c5.82-7.68,5.85-14.64,6.43-24.17Z"/><path class="cls-26" d="M46.92,2299.37c70.94-4.06,142.28-.85,213.16-5.86,136-9.62,274.71-37.61,411-36.11,70.25.77,107.61,44.63,165.17,52,66.42,8.45,134.4-12.34,197.75-25.68,22.5-4.74,46.33,1.13,69.08-2.21,37.19-5.46,77.12-18.37,113.15-29.44,29.4-9,52.71-155.56,61.21-187.1,3.55-13.19,17.6-22.14,19.4-34.93,1.06-7.38-24.74-12.76-28.18-18.92-2.8-5-10.7-56.85-4.24-55.33,36,8.52,121.32,120,114.48,164.69-3,19.51-55.68,167.22-14.94,148.63,35.83-16.34,74.08-169.24,77.23-208.26,2.11-26-4.51-52.6-3.6-79,.2-6,3.47-28.66,7.87-50.88q1.79,6.32,3.4,12.52c-13.91-53.49-37.65-114.84-52-150,4.09,10,8.92,22.07,14.07,35.5-.23,3-.5,6.08-.84,9.19-2.94,27.12-6.44,61.46-22.16,84.82-1.59,2.39-37.89-40.84-40.06-44.86-27.38-50.72-41.42-116.35-115.29-90.34-78.29,27.58,34.12,120.15,33.59,126.67-.49,6.12-12.23,0-18.35,0-21.22,0-135.63-25.11-139-21.77-10.13,10,47.13,143.58-7.76,159.41C966.18,2091,890.77,1920,789.25,1873.19c-113.49-52.27-276.58-40.29-398.87-45.58-85.57-3.69-174.39-2.86-259.56,5.85-39.52,4-84.45,12.11-130.82,19v448.77C15.71,2300.86,31.36,2300.26,46.92,2299.37Zm1246.4-476.43c20.23,14.12,28.9,38.26,36.16,62.42,12.72,42.37,27.74,86.13,44.09,127.17,3.66,9.19,19.76,38.47,15.71,48.32-.52,1.33-1.8-2.27-3-3.12a59.57,59.57,0,0,1-9.29-8.44c-12-13.36-14.18-33.42-27.43-45.77-22.95-21.34-30.68-60.39-42.62-87.84-9.87-22.71-26.66-44.54-28.66-69.91l-10.47-34.4C1269.37,1807,1289.3,1820.15,1293.32,1822.94Z"/><path class="cls-26" d="M1449.91,1947.46c-.26-1-.53-2.06-.8-3.09C1449.38,1945.4,1449.65,1946.43,1449.91,1947.46Z"/><path class="cls-26" d="M1396.28,1792c-.13-.3-.25-.6-.37-.9C1396,1791.42,1396.15,1791.72,1396.28,1792Z"/><path class="cls-26" d="M1395.09,1789.13l-.24-.57C1394.93,1788.75,1395,1788.93,1395.09,1789.13Z"/><path class="cls-26" d="M1393.87,1786.19l0-.07Z"/><path class="cls-26" d="M1458.42,1990a1.1,1.1,0,0,0,0-.18A1.1,1.1,0,0,1,1458.42,1990Z"/><path class="cls-26" d="M1457.87,1986.07s0-.11,0-.17S1457.86,1986,1457.87,1986.07Z"/><path class="cls-26" d="M1457.24,1982v0Z"/><path class="cls-15" d="M960,1770.81h0l14.43-.26h0Z"/><path class="cls-27" d="M960,1770.81h0l14.43-.26h0Z"/><path class="cls-15" d="M1053.27,1769.16h0l26.09-.47h0Z"/><path class="cls-28" d="M1053.27,1769.16h0l26.09-.47h0Z"/><path class="cls-16" d="M974.48,1770.55h0c28.56-.5,55-1,78.8-1.39h0Z"/><path class="cls-29" d="M974.48,1770.55h0c28.56-.5,55-1,78.8-1.39h0Z"/><path class="cls-16" d="M1183.74,1766.69c-6.37.2-44.72.93-104.39,2h0c59.67-1.07,98-1.8,104.38-2,5.35-.17,12.46-.51,20.75-1h0C1196.2,1766.18,1189.08,1766.52,1183.74,1766.69Z"/><path class="cls-30" d="M1183.74,1766.69c-6.37.2-44.72.93-104.39,2h0c59.67-1.07,98-1.8,104.38-2,5.35-.17,12.46-.51,20.75-1h0C1196.2,1766.18,1189.08,1766.52,1183.74,1766.69Z"/><path class="cls-23" d="M565.84,1777.63h0l69.27-1.18h0Z"/><path class="cls-31" d="M565.84,1777.63h0l69.27-1.18h0Z"/><path class="cls-16" d="M279.51,1782.51h0l286.32-4.89h0C467.85,1779.3,369.3,1781,279.51,1782.51Z"/><path class="cls-32" d="M279.51,1782.51h0l286.32-4.89h0C467.85,1779.3,369.3,1781,279.51,1782.51Z"/><path class="cls-16" d="M635.13,1776.44h0c117.9-2,231.74-4,324.94-5.63h0C866.84,1772.44,753,1774.41,635.13,1776.44Z"/><path class="cls-33" d="M635.13,1776.44h0c117.9-2,231.74-4,324.94-5.63h0C866.84,1772.44,753,1774.41,635.13,1776.44Z"/><path class="cls-24" d="M279.51,1782.52h0L0,1787.26H0Z"/><path class="cls-34" d="M279.51,1782.52h0L0,1787.26H0Z"/><path class="cls-23" d="M1384.71,1764.55l-29.79-9s-58.29,4.35-108.87,7.63h0c50.57-3.29,108.86-7.63,108.86-7.63l29.79,9s3.56,8.1,9.13,21.56c-2.64-6.4-4.84-11.58-6.41-15.26C1385.69,1766.79,1384.71,1764.55,1384.71,1764.55Z"/><path class="cls-35" d="M1384.71,1764.55l-29.79-9s-58.29,4.35-108.87,7.63h0c50.57-3.29,108.86-7.63,108.86-7.63l29.79,9s3.56,8.1,9.13,21.56c-2.64-6.4-4.84-11.58-6.41-15.26C1385.69,1766.79,1384.71,1764.55,1384.71,1764.55Z"/><path class="cls-17" d="M1204.48,1765.74h0c12-.65,26.43-1.54,41.57-2.52h0C1230.91,1764.2,1216.47,1765.09,1204.48,1765.74Z"/><path class="cls-36" d="M1204.48,1765.74h0c12-.65,26.43-1.54,41.57-2.52h0C1230.91,1764.2,1216.47,1765.09,1204.48,1765.74Z"/><path class="cls-23" d="M1395.91,1791.12c-.28-.67-.56-1.34-.82-2C1395.35,1789.78,1395.63,1790.45,1395.91,1791.12Z"/><path class="cls-37" d="M1395.91,1791.12c-.28-.67-.56-1.34-.82-2C1395.35,1789.78,1395.63,1790.45,1395.91,1791.12Z"/><path class="cls-23" d="M1394.85,1788.56c-.33-.81-.66-1.6-1-2.37C1394.19,1787,1394.52,1787.75,1394.85,1788.56Z"/><path class="cls-38" d="M1394.85,1788.56c-.33-.81-.66-1.6-1-2.37C1394.19,1787,1394.52,1787.75,1394.85,1788.56Z"/><path class="cls-23" d="M1396.85,1793.44l-.57-1.42Z"/><path class="cls-39" d="M1396.85,1793.44l-.57-1.42Z"/><path class="cls-26" d="M130.82,1833.46c85.17-8.71,174-9.54,259.56-5.85,122.29,5.29,285.38-6.69,398.87,45.58C890.77,1920,966.18,2091,1101,2052.05c54.89-15.83-2.37-149.38,7.76-159.41,3.38-3.34,117.79,21.74,139,21.77,6.12,0,17.86,6.13,18.35,0,.53-6.52-111.88-99.09-33.59-126.67,73.87-26,87.91,39.62,115.29,90.34,2.17,4,38.47,47.25,40.06,44.86,15.72-23.36,19.22-57.7,22.16-84.82.34-3.11.61-6.18.84-9.19-5.15-13.43-10-25.51-14.07-35.5l-.57-1.42c-.13-.3-.25-.6-.37-.9-.28-.67-.56-1.34-.82-2-.08-.2-.16-.38-.24-.57-.33-.81-.66-1.6-1-2.37l0-.07c-5.57-13.46-9.13-21.56-9.13-21.56l-29.79-9s-58.29,4.34-108.86,7.63c-15.14,1-29.59,1.87-41.57,2.52-8.29.44-15.4.78-20.75,1-6.37.2-44.71.93-104.38,2l-26.09.47c-23.81.43-50.24.89-78.8,1.39l-14.43.26c-93.2,1.63-207,3.6-324.94,5.63l-69.27,1.18-286.32,4.89L0,1787.27v65.24C46.37,1845.57,91.3,1837.5,130.82,1833.46Z"/><path class="cls-40" d="M130.82,1833.46c85.17-8.71,174-9.54,259.56-5.85,122.29,5.29,285.38-6.69,398.87,45.58C890.77,1920,966.18,2091,1101,2052.05c54.89-15.83-2.37-149.38,7.76-159.41,3.38-3.34,117.79,21.74,139,21.77,6.12,0,17.86,6.13,18.35,0,.53-6.52-111.88-99.09-33.59-126.67,73.87-26,87.91,39.62,115.29,90.34,2.17,4,38.47,47.25,40.06,44.86,15.72-23.36,19.22-57.7,22.16-84.82.34-3.11.61-6.18.84-9.19-5.15-13.43-10-25.51-14.07-35.5l-.57-1.42c-.13-.3-.25-.6-.37-.9-.28-.67-.56-1.34-.82-2-.08-.2-.16-.38-.24-.57-.33-.81-.66-1.6-1-2.37l0-.07c-5.57-13.46-9.13-21.56-9.13-21.56l-29.79-9s-58.29,4.34-108.86,7.63c-15.14,1-29.59,1.87-41.57,2.52-8.29.44-15.4.78-20.75,1-6.37.2-44.71.93-104.38,2l-26.09.47c-23.81.43-50.24.89-78.8,1.39l-14.43.26c-93.2,1.63-207,3.6-324.94,5.63l-69.27,1.18-286.32,4.89L0,1787.27v65.24C46.37,1845.57,91.3,1837.5,130.82,1833.46Z"/><path class="cls-24" d="M393.34,2458.38c49.36-7.75,98.9-15.49,146.72-22.89,135.92-21,257.87-39.34,321.77-47.57,8.66-1.12,16.26-2.05,22.69-2.78,10.36-1.17,17.65-1.82,21.41-1.85,13-.13,45.71-4.14,88.79-10.33,38.22-5.48,84.63-12.68,132.76-20.4,144.92-23.23,305.5-51.15,305.5-51.15s8.61-55.28,16.18-121c7.74-67.19,14.41-145.3,9.73-186.53-.14-1.26-.3-2.54-.47-3.84a1.1,1.1,0,0,0,0-.18c-.16-1.24-.34-2.5-.53-3.77,0,0,0-.11,0-.17-.19-1.28-.4-2.58-.61-3.9v-.06q-1.26-7.77-3-16.08c-1.27-6-2.7-12.12-4.29-18.4-.26-1-.53-2.06-.8-3.09-.07-.3-.15-.61-.23-.91q-1.62-6.2-3.4-12.52c-4.4,22.22-7.67,44.84-7.87,50.88-.91,26.39,5.71,52.94,3.6,79-3.15,39-41.4,191.92-77.23,208.26-40.74,18.59,12-129.12,14.94-148.63,6.84-44.71-78.48-156.17-114.48-164.69-6.46-1.52,1.44,50.36,4.24,55.33,3.44,6.16,29.24,11.54,28.18,18.92-1.8,12.79-15.85,21.74-19.4,34.93-8.5,31.54-31.81,178.06-61.21,187.1-36,11.07-76,24-113.15,29.44-22.75,3.34-46.58-2.53-69.08,2.21-63.35,13.34-131.33,34.13-197.75,25.68-57.56-7.33-94.92-51.19-165.17-52-136.31-1.5-275.06,26.49-411,36.11-70.88,5-142.22,1.8-213.16,5.86-15.56.89-31.21,1.49-46.92,1.91V2500H130.7C209.18,2487.47,300.92,2472.9,393.34,2458.38Z"/><path class="cls-24" d="M1267.85,1811.37l10.47,34.4c2,25.37,18.79,47.2,28.66,69.91,11.94,27.45,19.67,66.5,42.62,87.84,13.25,12.35,15.41,32.41,27.43,45.77a59.57,59.57,0,0,0,9.29,8.44c1.16.85,2.44,4.45,3,3.12,4-9.85-12-39.13-15.71-48.32-16.35-41-31.37-84.8-44.09-127.17-7.26-24.16-15.93-48.3-36.16-62.42C1289.3,1820.15,1269.37,1807,1267.85,1811.37Z"/></g></svg>