<svg xmlns="http://www.w3.org/2000/svg" xmlns:xlink="http://www.w3.org/1999/xlink" viewBox="0 0 4800 2700"><defs><style>.cls-1{isolation:isolate;}.cls-2{fill:#ffc8c6;}.cls-3{fill:#faa4a0;}.cls-23,.cls-38,.cls-4,.cls-41,.cls-47,.cls-48{fill:#fff0f1;}.cls-5,.cls-6,.cls-8{fill:#ffa091;}.cls-6{opacity:0.3;}.cls-6,.cls-8{mix-blend-mode:multiply;}.cls-10,.cls-7{fill:#ffe2c0;}.cls-11,.cls-8,.cls-9{opacity:0.5;}.cls-10{opacity:0.8;}.cls-11,.cls-30{mix-blend-mode:screen;}.cls-12{fill:#f6c01c;}.cls-13{fill:#f9960d;}.cls-14{fill:#fbdede;}.cls-15{fill:#703e03;}.cls-16{fill:#1a9cf1;}.cls-17{fill:#1651da;}.cls-18{fill:#0089bc;}.cls-19,.cls-39,.cls-40{fill:#f57385;}.cls-20{fill:#e94546;}.cls-21,.cls-30,.cls-49{fill:#fff;}.cls-22{fill:#ea4546;}.cls-23{font-size:102.15px;}.cls-23,.cls-38,.cls-39,.cls-40,.cls-47,.cls-48,.cls-49{font-family:OpenSans-SemiBold, Open Sans;font-weight:600;}.cls-24{fill:#606060;opacity:0.14;}.cls-25{fill:#11b7a3;}.cls-26{fill:#0e766d;}.cls-27{fill:#124d4c;}.cls-28{fill:#e6e6e6;}.cls-29{fill:#c4dcf6;}.cls-31{fill:url(#Áåçûìÿííûé_ãðàäèåíò_14);}.cls-32{fill:#666;}.cls-33{fill:#834d03;}.cls-34{fill:#603808;}.cls-35{fill:#e0527d;}.cls-36{fill:#ff9382;}.cls-37{fill:#ffa496;}.cls-38{font-size:92.36px;}.cls-39{font-size:161.27px;}.cls-40{font-size:61.72px;}.cls-41{font-size:124.55px;font-family:OpenSans-Bold, Open Sans;font-weight:700;}.cls-42,.cls-43,.cls-44,.cls-45,.cls-46{fill:none;stroke:#fff;stroke-linecap:round;stroke-linejoin:round;stroke-width:7px;}.cls-43{stroke-dasharray:14.99 14.99;}.cls-44{stroke-dasharray:15.03 15.03;}.cls-45{stroke-dasharray:15.13 15.13;}.cls-46{stroke-dasharray:15;}.cls-47{font-size:73.68px;}.cls-48{font-size:252.14px;}.cls-49{font-size:100px;}</style><linearGradient id="Áåçûìÿííûé_ãðàäèåíò_14" x1="2449.65" y1="1030.48" x2="2708.98" y2="1878.4" gradientTransform="matrix(-1, 0, 0, 1, 5507.4, 0)" gradientUnits="userSpaceOnUse"><stop offset="0" stop-color="#155159"/><stop offset="1" stop-color="#a4cda1"/></linearGradient></defs><g class="cls-1"><g id="Background"><rect class="cls-2" width="4800" height="2700"/></g><g id="Layer_6" data-name="Layer 6"><g class="cls-1"><path class="cls-3" d="M342.63,2353.07l-19.36-11.25c-13.93-8.1-22.57-25.31-22.64-49.78L320,2303.29C320.06,2327.76,328.7,2345,342.63,2353.07Z"/><path class="cls-3" d="M854.71,1074.46l19.36,11.25c-14.11-8.21-33.66-7-55.23,5.4l-19.35-11.25C821.05,1067.41,840.6,1066.25,854.71,1074.46Z"/><polygon class="cls-3" points="319.99 2303.29 300.63 2292.04 298.27 1458.57 317.63 1469.82 319.99 2303.29"/><polygon class="cls-3" points="394.98 1335.83 375.62 1324.58 799.49 1079.86 818.84 1091.11 394.98 1335.83"/><path class="cls-3" d="M317.63,1469.82l-19.36-11.25c-.14-49.26,34.49-109.24,77.35-134L395,1335.83C352.12,1360.58,317.49,1420.56,317.63,1469.82Z"/><path class="cls-4" d="M818.84,1091.11c42.86-24.74,77.73-4.88,77.87,44.37L899.07,1969c.14,49.25-34.5,109.24-77.36,134L397.85,2347.66c-42.86,24.75-77.72,4.88-77.86-44.37l-2.36-833.47c-.14-49.26,34.49-109.24,77.35-134Z"/></g><path class="cls-5" d="M470.41,1583.44s37.47,180.11,36.28,207.46l17.09-20.47-39.74-198Z"/><path class="cls-6" d="M470.41,1583.44s37.47,180.11,36.28,207.46l17.09-20.47-39.74-198Z"/><path class="cls-5" d="M450,1808.21c8.11-45.15,20.41-224.77,20.41-224.77l13.63-11s-16.84,162.32,0,208Z"/><path class="cls-5" d="M799.67,1393.34s-37.46,223.37-36.28,249.36l-17.08-.75L786,1398.09Z"/><path class="cls-6" d="M799.67,1393.34s-37.46,223.37-36.28,249.36l-17.08-.75L786,1398.09Z"/><path class="cls-5" d="M820.09,1594.54c-8.12-35.78-20.42-201.2-20.42-201.2L786,1398.09s16.85,142.88,0,208.05Z"/><path class="cls-7" d="M422.78,1920.54s-22.95,28.43-27.06,32.69l13.53,66.67s12.79-8.33,20.19-11.66,19.17-2.38,30.43-4.37S422.78,1920.54,422.78,1920.54Z"/><path class="cls-5" d="M422.78,1920.54s-22.95,28.43-27.06,32.69l1.72,8.5h0l30.2-32.83C424.69,1923.77,422.78,1920.54,422.78,1920.54Z"/><path class="cls-5" d="M409.25,2019.9s12.79-8.33,20.19-11.66,19.17-2.38,30.43-4.37c4-.7.51-11.3-5.62-24.71-15.21,4.57-35.64,17.79-47.91,26.38Z"/><path class="cls-8" d="M458.9,1990.32c.22,1.59-.32,2.39-1.79,2.65-11.26,2-22.36,7-29.76,10.38-6.24,2.81-16.2,9.1-19.22,11l1.12,5.52s12.79-8.33,20.19-11.66,19.17-2.38,30.43-4.37C462.64,2003.39,461.75,1998,458.9,1990.32Z"/><path class="cls-5" d="M450,1808.21c-8.2,15.8-28.48,70.73-27.14,120.87,1.52,57.09,25.5,70.13,37,74.79s92-38.58,119.61-75.26,39.12-50.87,55.56-60.36V1816.4s-30.32-43-96.41-40.3C494.19,1777.93,458.31,1792.18,450,1808.21Z"/><g class="cls-9"><path class="cls-10" d="M522.69,1789.6a10.16,10.16,0,0,0-4.63,8c0,2.93,2.07,4.11,4.63,2.64a10.21,10.21,0,0,0,4.62-8C527.31,1789.3,525.24,1788.12,522.69,1789.6Z"/><ellipse class="cls-10" cx="535.9" cy="1917.83" rx="6.52" ry="3.76" transform="translate(-1389.79 1410.9) rotate(-59.64)"/><ellipse class="cls-10" cx="555.43" cy="1813.27" rx="6.52" ry="3.76" transform="translate(-1289.91 1376.04) rotate(-59.64)"/><path class="cls-10" d="M556.61,1780.62a9.51,9.51,0,0,0,3.39-3.72c-2.51-.29-5.08-.51-7.74-.65A8.16,8.16,0,0,0,552,1778C552,1780.91,554.06,1782.09,556.61,1780.62Z"/><path class="cls-10" d="M551.9,1921.83a10.19,10.19,0,0,0-4.63,8c0,2.93,2.07,4.11,4.63,2.64a10.21,10.21,0,0,0,4.62-8C556.52,1921.53,554.45,1920.36,551.9,1921.83Z"/><path class="cls-10" d="M534.72,1950.49a10.18,10.18,0,0,0-4.62,8c0,2.93,2.07,4.1,4.62,2.63a10.2,10.2,0,0,0,4.63-8C539.35,1950.19,537.28,1949,534.72,1950.49Z"/><path class="cls-10" d="M554.25,1845.92a10.21,10.21,0,0,0-4.62,8c0,2.92,2.07,4.1,4.62,2.63a10.19,10.19,0,0,0,4.63-8C558.88,1845.62,556.81,1844.45,554.25,1845.92Z"/><ellipse class="cls-10" cx="572.19" cy="1822.33" rx="6.52" ry="3.76" transform="translate(-1289.45 1394.99) rotate(-59.64)"/><path class="cls-10" d="M520.33,1865.51a10.18,10.18,0,0,0-4.62,8c0,2.93,2.07,4.11,4.62,2.63a10.16,10.16,0,0,0,4.63-8C525,1865.21,522.89,1864,520.33,1865.51Z"/><ellipse class="cls-10" cx="519.15" cy="1908.77" rx="6.52" ry="3.76" transform="translate(-1390.25 1391.97) rotate(-59.64)"/><ellipse class="cls-10" cx="521.51" cy="1832.86" rx="6.52" ry="3.76" transform="translate(-1323.59 1356.46) rotate(-59.64)"/><path class="cls-10" d="M537.08,1874.58a10.16,10.16,0,0,0-4.63,8c0,2.93,2.07,4.11,4.63,2.63a10.2,10.2,0,0,0,4.63-8C541.71,1874.28,539.63,1873.1,537.08,1874.58Z"/><ellipse class="cls-10" cx="538.26" cy="1841.92" rx="6.52" ry="3.76" transform="translate(-1323.12 1375.39) rotate(-59.64)"/><ellipse class="cls-10" cx="539.44" cy="1803.97" rx="6.52" ry="3.76" transform="translate(-1289.79 1357.63) rotate(-59.64)"/><path class="cls-10" d="M553.07,1883.88a10.18,10.18,0,0,0-4.62,8c0,2.93,2.07,4.11,4.62,2.64a10.2,10.2,0,0,0,4.63-8C557.7,1883.58,555.63,1882.4,553.07,1883.88Z"/><path class="cls-10" d="M435.31,1933.34a10.16,10.16,0,0,0-4.63,8c0,2.93,2.07,4.1,4.63,2.63a10.21,10.21,0,0,0,4.62-8C439.93,1933,437.86,1931.86,435.31,1933.34Z"/><ellipse class="cls-10" cx="453.66" cy="1872.03" rx="6.52" ry="3.76" transform="translate(-1390.94 1317.28) rotate(-59.64)"/><ellipse class="cls-10" cx="436.49" cy="1900.68" rx="6.52" ry="3.76" transform="translate(-1424.16 1316.63) rotate(-59.64)"/><path class="cls-10" d="M452.48,1904.68a10.18,10.18,0,0,0-4.63,8c0,2.92,2.07,4.1,4.63,2.63a10.22,10.22,0,0,0,4.63-8C457.11,1904.38,455,1903.21,452.48,1904.68Z"/><ellipse class="cls-10" cx="569.82" cy="1898.25" rx="6.52" ry="3.76" transform="translate(-1356.12 1430.49) rotate(-59.64)"/><path class="cls-10" d="M450.12,1980.59a10.19,10.19,0,0,0-4.62,8c0,2.93,2.07,4.11,4.62,2.64a10.19,10.19,0,0,0,4.62-8C454.74,1980.3,452.68,1979.12,450.12,1980.59Z"/><path class="cls-10" d="M451.3,1942.64a10.15,10.15,0,0,0-4.62,8c0,2.93,2.06,4.11,4.62,2.64a10.21,10.21,0,0,0,4.62-8C455.92,1942.34,453.85,1941.16,451.3,1942.64Z"/><path class="cls-10" d="M568.74,1787.05c0,2.93,2.07,4.11,4.63,2.63a10.18,10.18,0,0,0,4.62-8,3.93,3.93,0,0,0-.29-1.45c-1.45-.39-2.88-.79-4.4-1.14A10.23,10.23,0,0,0,568.74,1787.05Z"/><ellipse class="cls-10" cx="437.67" cy="1862.73" rx="6.52" ry="3.76" transform="translate(-1390.82 1298.88) rotate(-59.64)"/><path class="cls-10" d="M454.84,1828.77a10.2,10.2,0,0,0-4.63,8c0,2.93,2.08,4.11,4.63,2.64a10.2,10.2,0,0,0,4.63-8C459.47,1828.47,457.4,1827.29,454.84,1828.77Z"/><path class="cls-10" d="M571,1855a10.16,10.16,0,0,0-4.63,8c0,2.93,2.07,4.11,4.63,2.63a10.18,10.18,0,0,0,4.62-8C575.63,1854.69,573.56,1853.51,571,1855Z"/><path class="cls-10" d="M456,1801.42a9.26,9.26,0,0,0,3.12-3.24,43,43,0,0,0-4.22,3.62A4,4,0,0,0,456,1801.42Z"/><path class="cls-10" d="M422.85,1925.25c0,1.22,0,2.45,0,3.66a7.58,7.58,0,0,0,.32-2A4.07,4.07,0,0,0,422.85,1925.25Z"/><path class="cls-10" d="M438.75,1973.92c0-2.93-2.06-4.11-4.62-2.63a9.19,9.19,0,0,0-2.91,2.94,72.43,72.43,0,0,0,3.47,7.21A10.19,10.19,0,0,0,438.75,1973.92Z"/><path class="cls-10" d="M443.18,1824c-.29.73-.56,1.42-.84,2.17A10.13,10.13,0,0,0,443.18,1824Z"/><path class="cls-10" d="M518,1941.42a10.2,10.2,0,0,0-4.63,8c0,2.93,2.08,4.11,4.63,2.63a10.16,10.16,0,0,0,4.63-8C522.6,1941.12,520.53,1940,518,1941.42Z"/><ellipse class="cls-10" cx="620.93" cy="1850.01" rx="6.52" ry="3.76" transform="translate(-1289.22 1450.71) rotate(-59.64)"/><path class="cls-10" d="M635,1826.15v-5.66a8.64,8.64,0,0,0-.81,3.3A3.5,3.5,0,0,0,635,1826.15Z"/><path class="cls-10" d="M622.11,1806.75a10.16,10.16,0,0,0-4.63,8c0,2.93,2.07,4.11,4.63,2.63a10.18,10.18,0,0,0,4.62-8C626.73,1806.45,624.66,1805.27,622.11,1806.75Z"/><path class="cls-10" d="M633.05,1861.74c0,1.78.82,2.81,2,3.1v-8.49A9.8,9.8,0,0,0,633.05,1861.74Z"/><path class="cls-10" d="M466.87,2000.26a10.16,10.16,0,0,0,4.63-8c0-2.93-2.07-4.1-4.63-2.63a10.18,10.18,0,0,0-4.63,8C462.24,2000.56,464.31,2001.74,466.87,2000.26Z"/><path class="cls-10" d="M516.79,1979.38a8,8,0,0,0-1.92,1.61c1.19-.71,2.38-1.46,3.58-2.19A4.47,4.47,0,0,0,516.79,1979.38Z"/><path class="cls-10" d="M568.64,1930.9a10.19,10.19,0,0,0-4.62,8c0,2.48,1.52,3.6,3.53,3,1.73-1.69,3.34-3.37,4.91-5a8.78,8.78,0,0,0,.81-3.32C573.27,1930.6,571.2,1929.43,568.64,1930.9Z"/><ellipse class="cls-10" cx="603.75" cy="1878.66" rx="6.52" ry="3.76" transform="matrix(0.51, -0.86, 0.86, 0.51, -1322.43, 1450.07)"/><ellipse class="cls-10" cx="501.98" cy="1937.42" rx="6.52" ry="3.76" transform="translate(-1423.47 1391.31) rotate(-59.64)"/><path class="cls-10" d="M585.82,1912.85a10.18,10.18,0,0,0,4.62-8c0-2.93-2.07-4.11-4.62-2.63a10.16,10.16,0,0,0-4.63,8C581.19,1913.15,583.26,1914.33,585.82,1912.85Z"/><path class="cls-10" d="M587,1864.29a10.2,10.2,0,0,0-4.63,8c0,2.92,2.07,4.1,4.63,2.63a10.21,10.21,0,0,0,4.62-8C591.62,1864,589.55,1862.82,587,1864.29Z"/><ellipse class="cls-10" cx="606.11" cy="1802.75" rx="6.52" ry="3.76" transform="translate(-1255.76 1414.56) rotate(-59.64)"/><ellipse class="cls-10" cx="468.05" cy="1957.01" rx="6.52" ry="3.76" transform="translate(-1457.15 1371.72) rotate(-59.64)"/><path class="cls-10" d="M588.18,1826.34a10.16,10.16,0,0,0-4.63,8c0,2.93,2.07,4.1,4.63,2.63a10.22,10.22,0,0,0,4.63-8C592.81,1826,590.73,1824.86,588.18,1826.34Z"/><path class="cls-10" d="M604.93,1835.4a10.21,10.21,0,0,0-4.62,8c0,2.93,2.07,4.11,4.62,2.64a10.2,10.2,0,0,0,4.63-8C609.56,1835.1,607.49,1833.93,604.93,1835.4Z"/><path class="cls-10" d="M589.36,1788.38a10.19,10.19,0,0,0-4.63,8c0,2.93,2.08,4.11,4.63,2.64a10.22,10.22,0,0,0,4.63-8C594,1788.08,591.91,1786.9,589.36,1788.38Z"/><ellipse class="cls-10" cx="506.69" cy="1785.6" rx="6.52" ry="3.76" transform="translate(-1290.13 1320.29) rotate(-59.64)"/><ellipse class="cls-10" cx="485.23" cy="1928.35" rx="6.52" ry="3.76" transform="translate(-1423.93 1372.37) rotate(-59.64)"/><ellipse class="cls-10" cx="505.51" cy="1823.56" rx="6.52" ry="3.76" transform="matrix(0.51, -0.86, 0.86, 0.51, -1323.47, 1338.05)"/><path class="cls-10" d="M484,1961a10.18,10.18,0,0,0-4.62,8c0,2.93,2.07,4.11,4.62,2.63a10.16,10.16,0,0,0,4.63-8C488.67,1960.71,486.6,1959.53,484,1961Z"/><path class="cls-10" d="M469.23,1924.35a10.16,10.16,0,0,0,4.63-8c0-2.93-2.07-4.11-4.63-2.63a10.19,10.19,0,0,0-4.63,8C464.6,1924.65,466.68,1925.83,469.23,1924.35Z"/><path class="cls-10" d="M503.16,1894.16a10.19,10.19,0,0,0-4.63,8c0,2.93,2.07,4.11,4.63,2.63a10.19,10.19,0,0,0,4.63-8C507.79,1893.86,505.71,1892.69,503.16,1894.16Z"/><ellipse class="cls-10" cx="504.34" cy="1861.51" rx="6.52" ry="3.76" transform="translate(-1356.8 1355.8) rotate(-59.64)"/><path class="cls-10" d="M500.8,1970.07a10.19,10.19,0,0,0-4.63,8c0,2.93,2.07,4.11,4.63,2.64a10.21,10.21,0,0,0,4.62-8C505.42,1969.77,503.35,1968.6,500.8,1970.07Z"/><path class="cls-10" d="M486.41,1885.1a10.16,10.16,0,0,0-4.63,8c0,2.93,2.07,4.1,4.63,2.63a10.21,10.21,0,0,0,4.62-8C491,1884.79,489,1883.62,486.41,1885.1Z"/><path class="cls-10" d="M472.77,1799.88a10.17,10.17,0,0,0-4.62,8c0,2.93,2.06,4.11,4.62,2.63a10.18,10.18,0,0,0,4.62-8C477.39,1799.58,475.32,1798.4,472.77,1799.88Z"/><ellipse class="cls-10" cx="470.41" cy="1881.09" rx="6.52" ry="3.76" transform="matrix(0.51, -0.86, 0.86, 0.51, -1390.47, 1336.21)"/><ellipse class="cls-10" cx="471.59" cy="1843.14" rx="6.52" ry="3.76" transform="translate(-1357.14 1318.46) rotate(-59.64)"/><path class="cls-10" d="M488.77,1809.18a10.2,10.2,0,0,0-4.63,8c0,2.93,2.07,4.1,4.63,2.63a10.21,10.21,0,0,0,4.62-8C493.39,1808.89,491.32,1807.71,488.77,1809.18Z"/><ellipse class="cls-10" cx="487.59" cy="1852.44" rx="6.52" ry="3.76" transform="translate(-1357.26 1336.87) rotate(-59.64)"/></g><path class="cls-8" d="M464.69,1990.34c-11.19-4.55-34.51-17.22-36-72.74-1.21-45.62,16-95.31,24.72-114.1a26.18,26.18,0,0,0-3.42,4.71c-8.2,15.8-28.48,70.73-27.14,120.87,1.52,57.09,25.5,70.13,37,74.79s92-38.58,119.61-75.26,39.12-50.87,55.56-60.36v-9.8c-16,9.23-27.19,23-54,58.69S475.89,1994.87,464.69,1990.34Z"/><path class="cls-7" d="M553.62,1761.58c-42.84-2.64-95.31,30.6-103.62,46.63a161,161,0,0,0-7.8,19.19s137.86-91,192.84,40.85V1816.4S624.27,1765.94,553.62,1761.58Z"/><path class="cls-7" d="M847.31,1675.43s23,1.94,27.05,1.46l-13.52,82.29s-12.79,6.43-20.2,11.65-19.17,19.76-30.42,30.77S847.31,1675.43,847.31,1675.43Z"/><path class="cls-5" d="M847.31,1675.43s23,1.94,27.05,1.46l-1.72,10.49h0l-30.21,2C845.39,1680.88,847.31,1675.43,847.31,1675.43Z"/><path class="cls-5" d="M860.84,1759.18s-12.79,6.43-20.2,11.65-19.17,19.76-30.42,30.77c-4,3.88-.51-10.72,5.62-31.2,15.21-13,35.63-23.36,47.91-29Z"/><path class="cls-8" d="M811.19,1786.92c-.23,1.85.31,2,1.79.59,11.26-11,22.35-18.77,29.76-24,6.23-4.39,16.2-9.61,19.21-11.16l-1.11,6.81s-12.79,6.43-20.2,11.65-19.17,19.76-30.42,30.77C807.45,1804.31,808.34,1797.92,811.19,1786.92Z"/><path class="cls-5" d="M820.09,1594.54c8.19,6.34,28.47,37.85,27.14,89.53-1.52,58.85-25.5,99.57-37,117.53s-92,67.66-119.61,62.85-39.12-5.7-55.57,3.8V1816.4s30.33-78,96.42-151.63C775.9,1615.29,811.77,1588.11,820.09,1594.54Z"/><g class="cls-9"><path class="cls-10" d="M747.39,1659.87c2.56-1.48,4.63-.3,4.63,2.63a10.16,10.16,0,0,1-4.63,8c-2.55,1.48-4.62.29-4.62-2.63A10.18,10.18,0,0,1,747.39,1659.87Z"/><ellipse class="cls-10" cx="734.18" cy="1803.36" rx="6.52" ry="3.76" transform="translate(-1192.95 1525.37) rotate(-59.64)"/><ellipse class="cls-10" cx="714.65" cy="1721.34" rx="6.52" ry="3.76" transform="translate(-1131.84 1467.96) rotate(-59.64)"/><path class="cls-10" d="M713.47,1690.06a3.12,3.12,0,0,1-3.39.2c2.52-3.2,5.09-6.39,7.74-9.6a4.32,4.32,0,0,1,.28,1.42A10.2,10.2,0,0,1,713.47,1690.06Z"/><path class="cls-10" d="M718.19,1825.82c2.55-1.47,4.63-.3,4.63,2.63a10.22,10.22,0,0,1-4.63,8c-2.56,1.47-4.63.29-4.63-2.63A10.2,10.2,0,0,1,718.19,1825.82Z"/><path class="cls-10" d="M735.36,1834.65c2.56-1.48,4.63-.3,4.63,2.62a10.2,10.2,0,0,1-4.63,8c-2.55,1.48-4.62.3-4.62-2.63A10.18,10.18,0,0,1,735.36,1834.65Z"/><path class="cls-10" d="M715.83,1752.64c2.55-1.48,4.62-.3,4.62,2.63a10.18,10.18,0,0,1-4.62,8c-2.56,1.48-4.62.29-4.62-2.63A10.15,10.15,0,0,1,715.83,1752.64Z"/><ellipse class="cls-10" cx="697.9" cy="1749.75" rx="6.52" ry="3.76" transform="translate(-1164.64 1467.55) rotate(-59.64)"/><path class="cls-10" d="M749.75,1733.05c2.56-1.47,4.63-.3,4.63,2.63a10.16,10.16,0,0,1-4.63,8c-2.55,1.48-4.62.3-4.62-2.62A10.2,10.2,0,0,1,749.75,1733.05Z"/><ellipse class="cls-10" cx="750.94" cy="1774.95" rx="6.52" ry="3.76" transform="translate(-1160.15 1525.77) rotate(-59.64)"/><ellipse class="cls-10" cx="748.57" cy="1701.76" rx="6.52" ry="3.76" transform="translate(-1098.17 1487.54) rotate(-59.64)"/><path class="cls-10" d="M733,1761.46c2.56-1.47,4.63-.3,4.63,2.63a10.16,10.16,0,0,1-4.63,8c-2.55,1.48-4.62.3-4.62-2.63A10.19,10.19,0,0,1,733,1761.46Z"/><path class="cls-10" d="M731.83,1724.86c2.55-1.47,4.62-.29,4.62,2.64a10.19,10.19,0,0,1-4.62,8c-2.56,1.47-4.63.29-4.63-2.63A10.2,10.2,0,0,1,731.83,1724.86Z"/><ellipse class="cls-10" cx="730.65" cy="1693.57" rx="6.52" ry="3.76" transform="translate(-1099.97 1468.02) rotate(-59.64)"/><ellipse class="cls-10" cx="717.01" cy="1794.53" rx="6.52" ry="3.76" transform="translate(-1193.83 1506.19) rotate(-59.64)"/><path class="cls-10" d="M834.78,1702.7c2.55-1.47,4.62-.3,4.62,2.63a10.21,10.21,0,0,1-4.62,8c-2.56,1.47-4.62.29-4.62-2.64A10.17,10.17,0,0,1,834.78,1702.7Z"/><ellipse class="cls-10" cx="816.43" cy="1662.58" rx="6.52" ry="3.76" transform="translate(-1030.81 1526.72) rotate(-59.64)"/><ellipse class="cls-10" cx="833.6" cy="1671.41" rx="6.52" ry="3.76" transform="translate(-1029.93 1545.9) rotate(-59.64)"/><path class="cls-10" d="M817.61,1693.88c2.55-1.48,4.62-.3,4.62,2.63a10.19,10.19,0,0,1-4.62,8c-2.56,1.47-4.63.3-4.63-2.63A10.16,10.16,0,0,1,817.61,1693.88Z"/><path class="cls-10" d="M700.26,1817.64c2.55-1.48,4.62-.3,4.62,2.63a10.21,10.21,0,0,1-4.62,8c-2.55,1.47-4.62.29-4.62-2.64A10.18,10.18,0,0,1,700.26,1817.64Z"/><path class="cls-10" d="M820,1767.07c2.56-1.48,4.63-.3,4.63,2.62a10.2,10.2,0,0,1-4.63,8c-2.55,1.47-4.62.3-4.62-2.63A10.18,10.18,0,0,1,820,1767.07Z"/><path class="cls-10" d="M818.78,1730.47c2.56-1.47,4.63-.3,4.63,2.63a10.2,10.2,0,0,1-4.63,8c-2.55,1.47-4.62.29-4.62-2.63A10.21,10.21,0,0,1,818.78,1730.47Z"/><path class="cls-10" d="M701.35,1710.49a10.2,10.2,0,0,1-4.63,8c-2.56,1.47-4.63.29-4.63-2.64a7.59,7.59,0,0,1,.29-1.78c1.45-2.07,2.89-4.13,4.4-6.22C699.3,1706.42,701.35,1707.59,701.35,1710.49Z"/><ellipse class="cls-10" cx="832.42" cy="1634.82" rx="6.52" ry="3.76" transform="translate(-998.94 1526.78) rotate(-59.64)"/><path class="cls-10" d="M815.25,1620.69c2.55-1.48,4.62-.3,4.62,2.63a10.21,10.21,0,0,1-4.62,8c-2.56,1.47-4.63.29-4.63-2.64A10.19,10.19,0,0,1,815.25,1620.69Z"/><path class="cls-10" d="M699.08,1781c2.56-1.47,4.63-.29,4.63,2.63a10.2,10.2,0,0,1-4.63,8c-2.55,1.47-4.63.29-4.63-2.63A10.22,10.22,0,0,1,699.08,1781Z"/><path class="cls-10" d="M814.07,1594.7a3.28,3.28,0,0,1-3.13.36,21.38,21.38,0,0,1,4.23-1.25A8.1,8.1,0,0,1,814.07,1594.7Z"/><path class="cls-10" d="M847.23,1680.24c0,1.23,0,2.41,0,3.67a4.23,4.23,0,0,1-.33-1.64A7.68,7.68,0,0,1,847.23,1680.24Z"/><path class="cls-10" d="M831.33,1747.27a10.2,10.2,0,0,1,4.63-8,3.39,3.39,0,0,1,2.9-.41c-1.1,3.87-2.24,7.63-3.46,11.21C833.12,1751.08,831.33,1750,831.33,1747.27Z"/><path class="cls-10" d="M826.91,1602.4c.28.41.55.78.83,1.21A2.65,2.65,0,0,1,826.91,1602.4Z"/><path class="cls-10" d="M752.12,1806.24c2.55-1.48,4.62-.3,4.62,2.63a10.19,10.19,0,0,1-4.62,8c-2.56,1.48-4.63.3-4.63-2.63A10.16,10.16,0,0,1,752.12,1806.24Z"/><path class="cls-10" d="M649.16,1828.4c2.56-1.47,4.63-.3,4.63,2.63a10.2,10.2,0,0,1-4.63,8c-2.55,1.47-4.62.29-4.62-2.63A10.21,10.21,0,0,1,649.16,1828.4Z"/><path class="cls-10" d="M635,1826.15v-5.66a3.44,3.44,0,0,1,.81,2.36A8.5,8.5,0,0,1,635,1826.15Z"/><path class="cls-10" d="M648,1791.81c2.56-1.48,4.63-.3,4.63,2.63a10.16,10.16,0,0,1-4.63,8c-2.55,1.48-4.63.3-4.63-2.63A10.19,10.19,0,0,1,648,1791.81Z"/><path class="cls-10" d="M637,1859.44a9.8,9.8,0,0,1-2,5.4v-8.49C636.22,1856.63,637,1857.66,637,1859.44Z"/><path class="cls-10" d="M803.21,1806.08c-2.55,1.47-4.63.3-4.63-2.63a10.22,10.22,0,0,1,4.63-8c2.55-1.47,4.63-.3,4.63,2.63A10.22,10.22,0,0,1,803.21,1806.08Z"/><path class="cls-10" d="M753.3,1842.83a4.17,4.17,0,0,1,1.92-.6c-1.19.66-2.39,1.29-3.58,1.94A7.94,7.94,0,0,1,753.3,1842.83Z"/><path class="cls-10" d="M701.44,1854.23c2.55-1.47,4.62-.3,4.62,2.63a10.2,10.2,0,0,1-3.53,7.09c-1.72.31-3.34.5-4.9.63a3.52,3.52,0,0,1-.82-2.38A10.19,10.19,0,0,1,701.44,1854.23Z"/><ellipse class="cls-10" cx="666.34" cy="1842.53" rx="6.52" ry="3.76" transform="translate(-1260.3 1486.2) rotate(-59.64)"/><ellipse class="cls-10" cx="768.11" cy="1783.77" rx="6.52" ry="3.76" transform="translate(-1159.27 1544.96) rotate(-59.64)"/><path class="cls-10" d="M684.26,1856c-2.55,1.47-4.62.29-4.62-2.64a10.18,10.18,0,0,1,4.62-8c2.56-1.47,4.63-.3,4.63,2.63A10.2,10.2,0,0,1,684.26,1856Z"/><path class="cls-10" d="M683.09,1808.81c2.55-1.47,4.62-.29,4.62,2.64a10.18,10.18,0,0,1-4.62,8c-2.56,1.48-4.63.3-4.63-2.63A10.2,10.2,0,0,1,683.09,1808.81Z"/><ellipse class="cls-10" cx="663.97" cy="1769.34" rx="6.52" ry="3.76" transform="translate(-1198.32 1447.97) rotate(-59.64)"/><ellipse class="cls-10" cx="802.04" cy="1764.18" rx="6.52" ry="3.76" transform="translate(-1125.59 1564.54) rotate(-59.64)"/><path class="cls-10" d="M681.91,1772.22c2.55-1.47,4.62-.3,4.62,2.63a10.21,10.21,0,0,1-4.62,8c-2.56,1.47-4.63.29-4.63-2.63A10.18,10.18,0,0,1,681.91,1772.22Z"/><path class="cls-10" d="M665.16,1800.63c2.55-1.47,4.62-.3,4.62,2.63a10.21,10.21,0,0,1-4.62,8c-2.56,1.47-4.63.29-4.63-2.64A10.19,10.19,0,0,1,665.16,1800.63Z"/><ellipse class="cls-10" cx="680.73" cy="1740.93" rx="6.52" ry="3.76" transform="translate(-1165.52 1448.37) rotate(-59.64)"/><path class="cls-10" d="M763.39,1632.09c2.56-1.48,4.62-.3,4.62,2.63a10.19,10.19,0,0,1-4.62,8c-2.55,1.47-4.62.29-4.62-2.64A10.18,10.18,0,0,1,763.39,1632.09Z"/><ellipse class="cls-10" cx="784.86" cy="1755.36" rx="6.52" ry="3.76" transform="translate(-1126.47 1545.36) rotate(-59.64)"/><path class="cls-10" d="M764.57,1668.69c2.55-1.48,4.62-.3,4.62,2.63a10.18,10.18,0,0,1-4.62,8c-2.56,1.48-4.62.3-4.62-2.63A10.15,10.15,0,0,1,764.57,1668.69Z"/><path class="cls-10" d="M786,1786.65c2.55-1.47,4.62-.3,4.62,2.63a10.18,10.18,0,0,1-4.62,8c-2.55,1.48-4.62.3-4.62-2.63A10.18,10.18,0,0,1,786,1786.65Z"/><path class="cls-10" d="M800.86,1732.89c-2.56,1.47-4.63.3-4.63-2.63a10.16,10.16,0,0,1,4.63-8c2.55-1.48,4.62-.3,4.62,2.62A10.21,10.21,0,0,1,800.86,1732.89Z"/><path class="cls-10" d="M766.93,1741.87c2.55-1.47,4.62-.29,4.62,2.63a10.21,10.21,0,0,1-4.62,8c-2.56,1.47-4.63.29-4.63-2.64A10.19,10.19,0,0,1,766.93,1741.87Z"/><path class="cls-10" d="M765.75,1705.28c2.55-1.48,4.62-.3,4.62,2.63a10.18,10.18,0,0,1-4.62,8c-2.56,1.48-4.63.3-4.63-2.63A10.16,10.16,0,0,1,765.75,1705.28Z"/><path class="cls-10" d="M769.29,1815.06c2.56-1.48,4.63-.3,4.63,2.63a10.16,10.16,0,0,1-4.63,8c-2.55,1.48-4.63.3-4.63-2.63A10.19,10.19,0,0,1,769.29,1815.06Z"/><path class="cls-10" d="M783.68,1713.46c2.56-1.47,4.63-.3,4.63,2.64a10.19,10.19,0,0,1-4.63,8c-2.55,1.47-4.63.29-4.63-2.63A10.22,10.22,0,0,1,783.68,1713.46Z"/><ellipse class="cls-10" cx="797.31" cy="1617.81" rx="6.52" ry="3.76" transform="translate(-1001.63 1488.08) rotate(-59.64)"/><ellipse class="cls-10" cx="799.67" cy="1690.99" rx="6.52" ry="3.76" transform="translate(-1063.61 1526.31) rotate(-59.64)"/><ellipse class="cls-10" cx="798.49" cy="1654.4" rx="6.52" ry="3.76" transform="translate(-1032.62 1507.19) rotate(-59.64)"/><path class="cls-10" d="M781.32,1640.28c2.55-1.48,4.63-.3,4.63,2.63a10.19,10.19,0,0,1-4.63,8c-2.56,1.48-4.63.3-4.63-2.63A10.16,10.16,0,0,1,781.32,1640.28Z"/><ellipse class="cls-10" cx="782.5" cy="1682.17" rx="6.52" ry="3.76" transform="translate(-1064.49 1507.13) rotate(-59.64)"/></g><path class="cls-8" d="M805.39,1793.63c11.2-17.46,34.51-57.06,36-114.29,1.21-47-16-76.86-24.71-85.56a5.74,5.74,0,0,1,3.42.76c8.19,6.34,28.47,37.85,27.14,89.53-1.52,58.85-25.5,99.57-37,117.53s-92,67.66-119.61,62.85-39.12-5.7-55.57,3.8v-9.8c16-9.24,27.19-8.37,54-3.7S794.19,1811.1,805.39,1793.63Z"/><path class="cls-7" d="M716.46,1667.57c42.85-52.12,95.31-79.46,103.63-73,2,1.57,4.79,5.06,7.79,10.19,0,0-137.85,68.14-192.84,263.52V1816.4S645.81,1753.5,716.46,1667.57Z"/><path class="cls-7" d="M623.66,1890.84l-2.56-1.23c-.94-.49-1-2.19-.06-3.79l26-47.28c.91-1.6,2.41-2.49,3.34-2l4.29,2.28c.94.5,1,2.2.06,3.79L627,1888.85C626.1,1890.45,624.6,1891.34,623.66,1890.84Z"/><path class="cls-7" d="M647.24,1877.23l2.56-4.19c.94-1.58,1-3.31.06-3.86l-26-17.25c-.9-.56-2.4.28-3.34,1.86l-4.29,7.23c-.94,1.58-1,3.31-.05,3.86l27.73,14.21C644.8,1879.65,646.3,1878.81,647.24,1877.23Z"/><g class="cls-11"><path class="cls-7" d="M623.66,1890.84l-2.56-1.23c-.94-.49-1-2.19-.06-3.79l26-47.28c.91-1.6,2.41-2.49,3.34-2l4.29,2.28c.94.5,1,2.2.06,3.79L627,1888.85C626.1,1890.45,624.6,1891.34,623.66,1890.84Z"/><path class="cls-7" d="M647.24,1877.23l2.56-4.19c.94-1.58,1-3.31.06-3.86l-26-17.25c-.9-.56-2.4.28-3.34,1.86l-4.29,7.23c-.94,1.58-1,3.31-.05,3.86l27.73,14.21C644.8,1879.65,646.3,1878.81,647.24,1877.23Z"/></g><g class="cls-1"><path class="cls-3" d="M1159.33,1885.08,1140,1873.83c-13.94-8.09-22.57-25.31-22.64-49.77l19.36,11.25C1136.77,1859.77,1145.4,1877,1159.33,1885.08Z"/><path class="cls-3" d="M1671.42,606.47l19.35,11.25c-14.11-8.2-33.65-7-55.22,5.41l-19.36-11.25C1637.76,599.43,1657.3,598.27,1671.42,606.47Z"/><polygon class="cls-3" points="1136.7 1835.31 1117.34 1824.06 1114.97 990.58 1134.33 1001.83 1136.7 1835.31"/><polygon class="cls-3" points="1211.69 867.85 1192.33 856.6 1616.19 611.88 1635.55 623.13 1211.69 867.85"/><path class="cls-3" d="M1134.33,1001.83,1115,990.58c-.14-49.25,34.5-109.24,77.36-134l19.36,11.25C1168.82,892.59,1134.19,952.58,1134.33,1001.83Z"/><path class="cls-4" d="M1635.55,623.13c42.86-24.75,77.72-4.88,77.86,44.37l2.37,833.47c.13,49.25-34.5,109.24-77.36,134l-423.86,244.72c-42.87,24.74-77.72,4.87-77.86-44.37l-2.37-833.48c-.14-49.25,34.49-109.24,77.36-134Z"/></g><polygon class="cls-12" points="1320.2 1026.88 1591.11 1340.3 1562.43 1356.86 1292.77 1051.8 1320.2 1026.88"/><polygon class="cls-13" points="1320.2 1026.88 1591.11 1340.3 1562.43 1356.86 1292.77 1051.8 1320.2 1026.88"/><polygon class="cls-12" points="1579.46 877.19 1308.56 1503.43 1337.23 1486.87 1606.9 870.43 1579.46 877.19"/><polygon class="cls-13" points="1579.46 877.19 1308.56 1503.43 1337.23 1486.87 1606.9 870.43 1579.46 877.19"/><path class="cls-14" d="M1230.75,1441.41c-6.38-45.51,13-106.31,24.12-135.45h0c2.14-10.27,5.15-28.1,8.54-49.71-2.34,8.72-16.69,36-24,62.55l0,.24c-15.35,47.7-24.85,119.28,3.66,164.3C1237.41,1473.41,1233.3,1459.53,1230.75,1441.41Z"/><path class="cls-14" d="M1636.06,1039.93c2.33,6,16.89,17.83,24.15,35.94s-23.76-20-23.76-20Z"/><path class="cls-14" d="M1636.45,1055.84c-145.67,105.73-186.62,302.43-186.62,302.43s-24.52-89.21-102.92-100.88l-.79-.18c-39.1-7.91-53-14.49-53-14.49l-2.38,19h0l-2.14,17.07c19.44-3.56,46.69-3.64,72.75,7.76,43,18.79,65.09,71.3,65.67,91.78.4,14.36-70.44,84-122.41,113.64-26.25,14.95-45.93,14.09-58.83-4.37.17.24.3.51.48.74,6,24.27,7.1,36.91,7.16,62.56,0,0,57.74-24.25,100.76-58.18s60.57-50.54,95.67-70.81,52.65-23.9,95.67-39.66S1646.26,1324,1646.26,1324c-1.46-23.88,1.14-39.6,7.16-70.83C1702.09,1130.29,1656.08,1048,1636.45,1055.84Z"/><path class="cls-12" d="M1472.66,1351.92c.58-21.15,22.7-99.2,65.67-167.61,46-73.31,95.86-115.13,99.63-112.11s39.25,47.41,31,116.24-33.29,112-73.84,135.77C1543.1,1354.6,1472.26,1366.75,1472.66,1351.92Z"/><path class="cls-12" d="M1427,1378.28c-.58-20.48-22.7-73-65.67-91.78-46-20.14-95.85-4.45-99.63,2.93s-39.25,92.74-31,152,33.29,73.61,73.84,50.51C1356.56,1462.31,1427.4,1392.64,1427,1378.28Z"/><path class="cls-12" d="M1608.29,1295.89c-.36,5-1.48,10-2.16,14.55-.48,2.6-.85,5-1.24,7.34,2.85-2,5.62-4.2,8.29-6.45.15-1.21.29-2.37.47-3.65.5-4.61,1.41-9.76,1.55-14.85s.77-10.67.75-16.1,0-11.07-.37-16.52c-.58-5.34-.68-11.08-1.66-16.19a155.21,155.21,0,0,0-6.82-29,114,114,0,0,0-9.74-21.54c-6.69-11.56-13-16.85-13-16.85s5.85,6,11.7,18.28a122.61,122.61,0,0,1,8.28,22.63,167.71,167.71,0,0,1,5.08,29.66c.68,5.18.49,11,.78,16.29.11,5.46-.32,11.15-.44,16.46S1608.73,1290.86,1608.29,1295.89Z"/><path class="cls-12" d="M1291.37,1478.86c.36,4.58,1.48,8.34,2.16,12.06.48,2,.85,4,1.24,5.9a75.21,75.21,0,0,1-8.29,3.13c-.15-1-.29-2-.47-3.11-.5-4-1.41-8.13-1.55-13.06s-.77-9.78-.75-15.23,0-11,.37-17c.57-6,.68-11.86,1.66-18.1a310.32,310.32,0,0,1,6.82-36.84c2.92-11.92,6.34-23.17,9.74-32.78a291.64,291.64,0,0,1,13-31.85,281.28,281.28,0,0,0-11.7,31.79,322.54,322.54,0,0,0-8.28,32.19,285,285,0,0,0-5.08,35.52c-.68,6-.49,11.53-.78,17.2-.12,5.6.32,10.78.44,16S1290.93,1474.35,1291.37,1478.86Z"/><path class="cls-12" d="M1644.8,1080.83c-9.86-35.8-37.9-210.39-37.9-210.39l-27.44,6.75,32.67,222.5Z"/><path class="cls-14" d="M1606.46,1061.09s-13.82,23.31-52.92,76.36c-35.78,48.57,56.36-53,56.36-53Z"/><path class="cls-12" d="M1254.86,1306c9.86-47.18,37.9-254.16,37.9-254.16l27.44-24.92-32.67,260.22Z"/><path class="cls-15" d="M1638.65,1091.6c-.28.16-.56.3-.83.44l-21.8,10.23c-4.88,2.29-8.48-.62-8-6.48l.17-2.23a19.2,19.2,0,0,1,3.19-8.73,17.28,17.28,0,0,1,6.51-6.06l21.79-10.22c2.36-1.12,4.5-1.06,6,.17s2.22,3.47,2,6.31l-.17,2.22C1647.07,1082.77,1643.18,1089,1638.65,1091.6Zm-22.26,6,21.79-10.23c2.83-1.27,5.2-5,5.46-8.34l.18-2.22a4.07,4.07,0,0,0-1.13-3.56,3.12,3.12,0,0,0-3.39-.1l-21.8,10.24a9.57,9.57,0,0,0-3.67,3.41,10.7,10.7,0,0,0-1.79,4.92l-.18,2.23c-.26,3.3,1.77,4.94,4.53,3.65Z"/><path class="cls-15" d="M1261,1309.63c-4.53,2.62-8.42.89-8.86-4.13l-.17-2a16.54,16.54,0,0,1,2-8.61,19.36,19.36,0,0,1,6-7.13l21.8-14.93c2.38-1.57,4.67-2.15,6.5-1.47s3,2.48,3.19,5.06l.17,2c.46,5.33-3.14,12.39-8,15.74l-21.79,14.94C1261.57,1309.29,1261.29,1309.47,1261,1309.63Zm21.64-32.91a4.42,4.42,0,0,0-.49.31l-21.8,14.93a11,11,0,0,0-3.39,4,9.32,9.32,0,0,0-1.12,4.87l.17,2c.26,3,2.72,4,5.47,2l21.78-14.93c2.76-1.89,4.79-5.87,4.53-8.87l-.18-2a3,3,0,0,0-1.79-2.85A3.76,3.76,0,0,0,1282.65,1276.72Z"/><path class="cls-14" d="M1449.83,1358.27V1287.8s-8.18,2.9-22.83-.61-37.91-16.88-57.09-23.71Z"/><path class="cls-14" d="M1449.83,1358.27V1287.8s8.18-6.54,22.83-27,37.91-60.66,57.09-89.64Z"/><path class="cls-12" d="M1361.33,1286.5c54,18.42,67.8,36,88.5,24.47v76.14S1421.65,1404,1331.37,1474Z"/><path class="cls-12" d="M1538.33,1184.31c-54,80.79-67.8,114.29-88.5,126.66v76.14s29.48-16.33,119.77-50.58Z"/><g class="cls-1"><path class="cls-3" d="M819.35,1739.6,800,1728.35c-13.93-8.1-22.57-25.31-22.64-49.78l19.36,11.25C796.78,1714.29,805.42,1731.5,819.35,1739.6Z"/><path class="cls-3" d="M1331.43,461l19.36,11.25c-14.11-8.2-33.66-7.05-55.22,5.4l-19.36-11.25C1297.78,453.94,1317.32,452.79,1331.43,461Z"/><polygon class="cls-3" points="796.71 1689.82 777.35 1678.57 774.99 845.1 794.35 856.35 796.71 1689.82"/><polygon class="cls-3" points="871.7 722.36 852.34 711.11 1276.21 466.39 1295.57 477.64 871.7 722.36"/><path class="cls-3" d="M794.35,856.35,775,845.1c-.14-49.26,34.49-109.24,77.35-134l19.36,11.25C828.84,747.11,794.21,807.09,794.35,856.35Z"/><path class="cls-4" d="M1295.57,477.64c42.86-24.74,77.72-4.88,77.86,44.37l2.36,833.48c.14,49.25-34.5,109.24-77.36,134L874.57,1734.19c-42.86,24.75-77.72,4.88-77.86-44.37l-2.36-833.47c-.14-49.26,34.49-109.24,77.35-134Z"/></g><polygon class="cls-16" points="980.21 881.39 1251.12 1194.82 1222.44 1211.37 952.78 906.32 980.21 881.39"/><polygon class="cls-17" points="980.21 881.39 1251.12 1194.82 1222.44 1211.37 952.78 906.32 980.21 881.39"/><polygon class="cls-16" points="1239.48 731.7 968.57 1357.95 997.25 1341.39 1266.91 724.95 1239.48 731.7"/><polygon class="cls-17" points="1239.48 731.7 968.57 1357.95 997.25 1341.39 1266.91 724.95 1239.48 731.7"/><path class="cls-14" d="M890.77,1295.92c-6.38-45.5,13-106.31,24.12-135.45h0c2.15-10.27,5.16-28.1,8.55-49.72-2.34,8.73-16.69,36-24,62.55,0,.11,0,.14-.06.25-15.34,47.7-24.85,119.28,3.66,164.3C897.43,1327.92,893.31,1314,890.77,1295.92Z"/><path class="cls-14" d="M1296.07,894.45c2.34,6,16.89,17.82,24.16,35.93s-23.77-20-23.77-20Z"/><path class="cls-14" d="M1296.46,910.36c-145.67,105.73-186.62,302.42-186.62,302.42s-24.51-89.21-102.92-100.88c-.28-.05-.49-.12-.79-.17-39.09-7.92-53-14.49-53-14.49l-2.38,19h0l-2.14,17.07c19.45-3.56,46.7-3.64,72.75,7.75,43,18.8,65.09,71.3,65.67,91.79.41,14.36-70.44,84-122.41,113.63-26.24,15-45.93,14.09-58.83-4.36.17.24.31.51.48.74,6,24.27,7.1,36.91,7.16,62.55,0,0,57.74-24.25,100.77-58.17s60.57-50.55,95.66-70.81,52.65-23.91,95.67-39.66,100.77-58.18,100.77-58.18c-1.46-23.87,1.13-39.59,7.16-70.82C1362.11,984.81,1316.09,902.48,1296.46,910.36Z"/><path class="cls-16" d="M1132.68,1206.43c.57-21.15,22.7-99.2,65.66-167.61,46-73.3,95.86-115.12,99.63-112.11s39.25,47.42,31,116.24-33.28,112-73.83,135.77C1203.12,1209.12,1132.27,1221.26,1132.68,1206.43Z"/><path class="cls-16" d="M1087,1232.8c-.58-20.49-22.7-73-65.67-91.79-46-20.14-95.85-4.44-99.63,2.94s-39.25,92.73-30.94,152,33.28,73.61,73.83,50.51C1016.57,1316.82,1087.42,1247.16,1087,1232.8Z"/><path class="cls-16" d="M1268.3,1150.4c-.36,5-1.47,10-2.15,14.55-.48,2.61-.85,5-1.25,7.34,2.86-2,5.62-4.19,8.3-6.45.15-1.2.28-2.37.46-3.64.5-4.62,1.41-9.76,1.55-14.86s.77-10.66.76-16.1,0-11.07-.38-16.52c-.57-5.34-.67-11.07-1.66-16.18a154.53,154.53,0,0,0-6.82-29,113.7,113.7,0,0,0-9.74-21.54c-6.68-11.56-13-16.84-13-16.84s5.85,6,11.71,18.27a123.65,123.65,0,0,1,8.27,22.63,167.87,167.87,0,0,1,5.08,29.66c.68,5.19.49,11,.78,16.3.12,5.46-.32,11.14-.44,16.45S1268.75,1145.38,1268.3,1150.4Z"/><path class="cls-16" d="M951.39,1333.37c.36,4.59,1.47,8.35,2.15,12.06.48,2.06.85,4,1.25,5.91a79.61,79.61,0,0,1-8.3,3.13c-.15-1-.28-2-.47-3.11-.5-4-1.41-8.13-1.54-13.07s-.77-9.78-.76-15.22,0-11,.37-17c.58-6,.68-11.85,1.66-18.1a312.19,312.19,0,0,1,6.82-36.83c2.92-11.93,6.34-23.18,9.75-32.79a289.48,289.48,0,0,1,13-31.84,281.37,281.37,0,0,0-11.71,31.79,327.37,327.37,0,0,0-8.28,32.19,284.66,284.66,0,0,0-5.07,35.52c-.69,6-.49,11.52-.79,17.2-.11,5.59.33,10.77.45,15.94S950.94,1328.86,951.39,1333.37Z"/><path class="cls-16" d="M1304.82,935.35c-9.87-35.8-37.91-210.4-37.91-210.4l-27.43,6.75,32.67,222.51Z"/><path class="cls-14" d="M1266.48,915.61s-13.83,23.3-52.92,76.36c-35.79,48.57,56.35-53,56.35-53Z"/><path class="cls-16" d="M914.87,1160.48c9.86-47.18,37.91-254.16,37.91-254.16l27.43-24.93-32.67,260.23Z"/><path class="cls-18" d="M1298.66,946.12a9.33,9.33,0,0,1-.83.43L1276,956.78c-4.89,2.29-8.49-.62-8-6.47l.18-2.23a19.1,19.1,0,0,1,3.18-8.74,17.32,17.32,0,0,1,6.51-6.05l21.79-10.23c2.37-1.11,4.5-1,6,.18s2.22,3.46,2,6.3l-.17,2.22C1307.08,937.29,1303.2,943.5,1298.66,946.12Zm-22.26,6,21.79-10.22c2.83-1.27,5.21-5,5.47-8.34l.17-2.22a4.09,4.09,0,0,0-1.13-3.57,3.12,3.12,0,0,0-3.39-.09l-21.8,10.23a9.7,9.7,0,0,0-3.66,3.41,10.72,10.72,0,0,0-1.8,4.92l-.17,2.23c-.26,3.31,1.77,5,4.52,3.65Z"/><path class="cls-18" d="M921,1164.15c-4.54,2.61-8.43.89-8.86-4.13l-.18-2a16.52,16.52,0,0,1,2-8.62,19.14,19.14,0,0,1,6-7.12l21.79-14.94c2.38-1.57,4.68-2.14,6.51-1.46s3,2.48,3.18,5.06l.18,2c.45,5.33-3.14,12.4-8,15.75l-21.79,14.93C921.58,1163.81,921.3,1164,921,1164.15Zm21.63-32.91-.49.3-21.79,14.94a10.79,10.79,0,0,0-3.39,4,9.23,9.23,0,0,0-1.13,4.86l.17,2c.26,3,2.72,4,5.47,2l21.79-14.93c2.75-1.89,4.78-5.88,4.52-8.88l-.17-2a3,3,0,0,0-1.8-2.84A3.77,3.77,0,0,0,942.66,1131.24Z"/><path class="cls-14" d="M1109.84,1212.78v-70.47s-8.18,2.91-22.83-.6-37.91-16.89-57.09-23.72Z"/><path class="cls-14" d="M1109.84,1212.78v-70.47s8.18-6.54,22.83-27,37.92-60.67,57.09-89.64Z"/><path class="cls-16" d="M1021.34,1141c54,18.43,67.8,36,88.5,24.48v76.14s-28.17,16.93-118.46,86.93Z"/><path class="cls-16" d="M1198.34,1038.82c-54,80.79-67.79,114.3-88.5,126.67v76.14s29.49-16.34,119.77-50.59Z"/><path class="cls-19" d="M1476.08,222.06l-14,98.38c-2-38.46-9.16-52.88-27.6-62.88-10.42-5.64-30.94-7.75-69.46,14.51L821.51,585.82c-38.52,22.28-59,48-69.3,65.65-22.16,37.7-27.85,62.88-27.66,122.34L725.68,1170l.41,146,2.8,990.76c.19,59.45,6,78,28.26,90.08a33.35,33.35,0,0,0,15.45,3.74l-42,42.87-49.76-33.9c-34-18.47-39.62-53.41-39.81-114.69L636.74,761.88c-.16-61.28,5.19-102.6,39-160.2,32.61-55.68,79.88-84.19,95.87-93.41l543.44-313.75c16-9.26,63.23-35.28,96.09-17.44a69.38,69.38,0,0,1,12.71,8.81Z"/><path class="cls-20" d="M1497.72,1620.49l0-14.61-.09-31.34,0-15.52-3.5-1229.49c-.19-61-5.88-93.09-37.8-110.4-14.6-7.93-42.3-11.43-91.36,16.9L821.44,549.81c-49.1,28.33-76.7,63.77-91.24,88.5-31.7,54.08-37.21,92.63-37,153.62l4.35,1532.92c.15,61,5.85,93.09,37.76,110.4,14.64,7.9,42.3,11.43,91.34-16.86l543.53-313.82c49.13-28.36,76.7-63.8,91.21-88.53,31.73-54,37.23-92.56,37.05-153.59Zm-58.32,382.42c-10.35,17.66-30.81,43.37-69.36,65.62L826.53,2382.35c-38.46,22.19-58.94,20.11-69.39,14.45-22.25-12.09-28.08-30.6-28.23-90.05L724.56,773.81c-.19-59.46,5.51-84.6,27.64-122.34,10.35-17.66,30.78-43.37,69.33-65.62L1365,272.07c38.52-22.22,59-20.15,69.46-14.51,22.25,12.08,28.08,30.62,28.23,90.07l3.47,1223.57.06,15.74.06,21.81,0,14.6.73,257.23C1467.23,1940,1461.53,1965.18,1439.4,2002.91Z"/><path class="cls-21" d="M821.41,542.16l543.42-313.74c16-9.24,63.26-35.28,96.12-17.44,34,18.46,39.62,53.4,39.8,114.7l4.34,1532.92c.17,61.31-5.22,102.58-39,160.21-32.45,55.31-79.33,83.84-95.9,93.4l-543.7,313.91c-16.28,9.4-63.17,35-95.82,17.29-34-18.48-39.62-53.41-39.79-114.71L686.51,795.77c-.17-61.29,5.21-102.58,39-160.19C758.16,579.93,805.4,551.41,821.41,542.16ZM697.52,2324.86c.17,61,5.88,93.08,37.78,110.39,14.61,7.92,42.31,11.43,91.32-16.87l543.53-313.81c49.13-28.36,76.73-63.79,91.23-88.53,31.7-54,37.21-92.58,37-153.58l-4.35-1532.93c-.17-61-5.88-93.08-37.78-110.4-14.6-7.94-42.32-11.43-91.39,16.9L821.43,549.8c-49.1,28.35-76.7,63.78-91.23,88.53-31.7,54-37.2,92.59-37,153.6l4.35,1532.93"/><path class="cls-22" d="M1362.15,1850.16,873.21,2132.45c-34.58,20-62.61-1.23-62.61-47.34v-2.59c0-46.11,28-99.67,62.61-119.63l488.94-282.29c34.58-20,62.61,1.23,62.61,47.33v2.6C1424.76,1776.63,1396.73,1830.19,1362.15,1850.16Z"/><text class="cls-23" transform="matrix(0.87, -0.5, 0, 1, 920.2, 2052.8)">Purchase</text><path class="cls-24" d="M1467,1880.57c.16,59.46-5.5,84.6-27.65,122.32-10.36,17.66-30.8,43.38-69.34,65.63l-543.53,313.8c-38.47,22.23-59,20.14-69.38,14.48-22.27-12.08-28.07-30.61-28.26-90.08l-2.8-990.78c131.18,178.68,372.88,417.9,740.64,448.56l.24,88.21Z"/><g class="cls-1"><path class="cls-20" d="M2454,2501.94c62.15,36.11,163.25,36.12,225.81,0l-.21-73.1c-62.56,36.12-163.66,36.12-225.81,0Z"/><polygon class="cls-20" points="2679.82 2501.94 3432.76 2067.23 3432.55 1994.14 2679.61 2428.84 2679.82 2501.94"/><polygon class="cls-20" points="1705.97 2067.22 2454.01 2501.94 2453.8 2428.84 1705.77 1994.13 1705.97 2067.22"/><path class="cls-20" d="M3479.68,1928.28c.07,23.83-15.65,47.68-47.13,65.86l.2,73.09c31.48-18.17,47.2-42,47.14-65.85C3479.82,1979.45,3479.74,1950.21,3479.68,1928.28Z"/><path class="cls-20" d="M1659.57,2002.28c.07,23.52,15.53,47,46.4,65l-.2-73.1c-30.88-17.94-46.34-41.42-46.4-64.94Z"/><polygon class="cls-20" points="2459.64 1501.72 2459.43 1428.63 1706.5 1863.33 1706.71 1936.43 2459.64 1501.72"/><path class="cls-20" d="M3479.89,2001.38l-.21-73.1c-.07-23.51-15.52-47-46.4-64.94l.21,73.1C3464.37,1954.38,3479.82,1977.86,3479.89,2001.38Z"/><path class="cls-20" d="M1659.37,1929.19l.2,73.09c-.06-23.82,15.66-47.68,47.14-65.85l-.21-73.1C1675,1881.51,1659.3,1905.37,1659.37,1929.19Z"/><polygon class="cls-20" points="3433.49 1936.44 3433.28 1863.34 2685.24 1428.63 2685.45 1501.72 3433.49 1936.44"/><path class="cls-20" d="M2685.45,1501.72l-.21-73.09c-62.15-36.12-163.25-36.12-225.81,0l.21,73.09C2522.2,1465.61,2623.3,1465.6,2685.45,1501.72Z"/><path class="cls-19" d="M3432.55,1994.14c62.55-36.12,62.88-94.68.73-130.8l-748-434.71c-62.15-36.12-163.25-36.12-225.81,0l-752.93,434.7c-62.56,36.12-62.89,94.68-.73,130.8l748,434.71c62.15,36.12,163.25,36.12,225.81,0Z"/></g><path class="cls-22" d="M3200.77,2041.47l-409.2,236.26a150.87,150.87,0,0,1-150.87,0L2456,2171.11c-33.22-19.18-33.22-67.13,0-86.3l412.38-238.09a122.74,122.74,0,0,1,122.75,0l209.62,121C3229.15,1984.13,3229.15,2025.09,3200.77,2041.47Z"/><ellipse class="cls-22" cx="2363.49" cy="1819.24" rx="177.97" ry="308.26" transform="translate(529.41 4171.24) rotate(-89.64)"/><polygon class="cls-25" points="3061.76 2042.08 3089.59 2026.31 2827.82 1877.03 2799.99 1892.79 3061.76 2042.08"/><polygon class="cls-26" points="3061.76 2081.01 3061.76 2042.08 3089.59 2026.31 3089.59 2065.25 3061.76 2081.01"/><polygon class="cls-27" points="2799.99 1892.79 2799.99 1931.72 3061.76 2081.01 3061.76 2042.08 2799.99 1892.79"/><polygon class="cls-26" points="2960.47 1416.88 2988.25 1401.04 2982.49 1965.39 2954.71 1981.23 2960.47 1416.88"/><polygon class="cls-28" points="2927.02 1396.95 2960.47 1416.88 2988.25 1401.04 2954.81 1381.11 2927.02 1396.95"/><polygon class="cls-27" points="2954.71 1981.23 2921.26 1961.3 2927.02 1396.95 2960.47 1416.88 2954.71 1981.23"/><path class="cls-25" d="M2644.62,1726.36,2785.44,976.6c23.43-124.78,114.77-267.71,204-319.23h0c35-20.21,64.44-23.29,85.93-12.12l0-.06,1.32.76c.57.32,1.14.65,1.7,1l41.59,24L3105.62,682c9.83,25.9,11.5,62.59,3,108l-140.81,749.76c-23.44,124.79-114.78,267.72-204,319.24h0c-21.13,12.2-40.22,18.11-56.78,18.47l10.42,16.45-41-23.55c-.51-.28-1-.56-1.5-.86l-.94-.54.08,0C2643.47,1849.77,2630.93,1799.25,2644.62,1726.36Z"/><path class="cls-26" d="M2803.15,1881.64h0c89.24-51.52,180.58-194.45,204-319.23L3148,812.65c23.44-124.79-29.91-184.18-119.15-132.66h0c-89.24,51.53-180.58,194.45-204,319.24L2684,1749C2660.57,1873.77,2713.91,1933.16,2803.15,1881.64Z"/><path class="cls-29" d="M2744.72,1866.69c7.89,0,21.53-2.44,41.68-14.08,80.35-46.39,166.37-182.11,187.83-296.39L3115,806.47c13.17-70.12-3.23-96.56-8.56-103-4.9-5.91-10.83-8.54-19.22-8.54-7.89,0-21.52,2.44-41.67,14.08-80.35,46.39-166.37,182.13-187.83,296.39L2717,1755.17c-13.17,70.11,3.23,96.55,8.56,103C2730.41,1864.06,2736.33,1866.69,2744.72,1866.69Z"/><path class="cls-30" d="M2730.27,1684.23l145.5,84a565.16,565.16,0,0,0,57.51-93.72l-181.52-104.82Z"/><polygon class="cls-30" points="2815.27 1231.74 3013.67 1346.26 3024.41 1289.04 2826.02 1174.45 2815.27 1231.74"/><polygon class="cls-30" points="2794.54 1342.21 2992.94 1456.73 3003.69 1399.51 2805.29 1284.92 2794.54 1342.21"/><path class="cls-30" d="M2907.45,869.84,3084,971.72l31.06-165.24c13.11-70.14-3.28-96.59-8.59-103-4.88-5.93-10.82-8.51-19.19-8.51-7.95,0-21.56,2.44-41.73,14C2996.22,737.46,2944.79,799.64,2907.45,869.84Z"/><path class="cls-31" d="M2738.86,1861.38c7.89,0,21.52-2.44,41.67-14.07,80.36-46.4,166.38-182.12,187.83-296.39l140.82-749.76c12.85-68.46-2.45-95.23-8.14-102.44a23.86,23.86,0,0,1,5.44,4.76c5.33,6.43,21.73,32.87,8.56,103l-140.81,749.75c-21.46,114.28-107.48,250-187.83,296.39-20.15,11.64-33.79,14.08-41.68,14.08-8.39,0-14.31-2.63-19.21-8.53-.13-.15-.29-.38-.43-.55A24.23,24.23,0,0,0,2738.86,1861.38Z"/><polygon class="cls-25" points="2787.44 2199.68 2815.27 2183.91 2553.5 2034.63 2525.67 2050.39 2787.44 2199.68"/><polygon class="cls-26" points="2787.44 2238.61 2787.44 2199.68 2815.27 2183.91 2815.27 2222.85 2787.44 2238.61"/><polygon class="cls-27" points="2525.67 2050.39 2525.67 2089.33 2787.44 2238.61 2787.44 2199.68 2525.67 2050.39"/><polygon class="cls-26" points="2686.15 1574.48 2713.93 1558.64 2708.17 2122.99 2680.39 2138.83 2686.15 1574.48"/><polygon class="cls-32" points="2652.7 1554.55 2686.15 1574.48 2713.93 1558.64 2680.49 1538.71 2652.7 1554.55"/><polygon class="cls-27" points="2680.39 2138.83 2646.94 2118.9 2652.7 1554.55 2686.15 1574.48 2680.39 2138.83"/><path class="cls-33" d="M2263.28,663c-10.11,9-13.55,23.92-11.1,38.22,2.16,12.58,9.81,26.08,20.92,32.82a41.82,41.82,0,0,0,28.72,5.3,34.32,34.32,0,0,0,16.13-7.26A25.3,25.3,0,0,0,2326.8,717c1-6.32-.78-12.71-2.54-18.87q-3.59-12.51-7.16-25c-1.4-4.89-3-10.14-7.12-13.16a21.85,21.85,0,0,0-7.76-3.16c-7.95-2-16.58-3-24.64-1A32.44,32.44,0,0,0,2263.28,663Z"/><path class="cls-34" d="M2280.46,665.37c-5.07,3-7.47,9.06-9,14.78-2.5,9.3-.72,18.57,3.76,27.14,4.37,8.34,11.5,15.68,20.69,18.47a24.16,24.16,0,0,0,17.49-1.62c5.69-2.81,8.62-7.19,10.72-13a32.28,32.28,0,0,0-.2-21.49,41.5,41.5,0,0,0-12.53-17.68C2304.17,665.84,2289.49,660,2280.46,665.37Z"/><path class="cls-35" d="M2430.16,1033.52s1.85.34,4.66,1.17l2.55-2.6Z"/><path class="cls-36" d="M2315.71,1522.94c8.46,63.38,26.61,158.65,26.61,158.65l-18.71,34.56s0,11.54,1.43,18.75,37.46,18.71,43.2,18.71,20.18,23,33.14,36,24.46,14.43,48.95,20.17,27.35,0,30.25-14.38-20.18-38.89-20.18-38.89-69.13-47.52-70.55-74.91,8.64-99.37,15.85-131,7.17-87.84,7.17-87.84,2.9-11.53,7.22-18.75-1.43-37.41,4.32-56.16,14.39-25.93,25.92-63.34c9.81-31.8,22.68-111.43,20.13-157.65a104.71,104.71,0,0,0-2.85-21c-10.06-37.41-1.42-66.23-4.32-86.41-1-6.82-5.09-12-10.11-15.85-6.13-4.71-13.61-7.48-18.36-8.9l-99.71,101.09-7.18,269.3s-10.11,41.78-15.85,64.8C2310.44,1476.58,2312.25,1497.1,2315.71,1522.94Z"/><path class="cls-36" d="M2415.59,732.54s40.32-18.72,50.4,11.52-2.88,80.65-2.88,99.37,37.45,200.19,40.33,213.15,11.52,36,11.52,36,20.88,33.84,20.52,38.52,2.52,26.29,2.52,31-.72,15.12.36,20.52-8.28,5.76-10.44,2.52-9.36-40-12.6-41.4,2.88,36.36,2.88,36.36-5.4,26.28-5.4,30.24-2.52,7.56-5,5.4-5.4-17.28-5.4-17.28-.36,19.8-3.6,20.16-7.2-9.72-7.2-9.72a4.18,4.18,0,0,1-5.4-2.52c-1.8-4-2.88-16.92-2.88-16.92s-3.25-24.84-6.13-42.12,2.52-49.33,2.52-49.33L2425,988.89s-24.12-118.45-19.08-176.42S2415.59,732.54,2415.59,732.54Z"/><path class="cls-37" d="M2239.9,1099.8s84.94,96.47,106.55,102.22,76.34-56.17,89.3-82.09c28.14-56.27,12.2-60.38,11.54-90.73l15.46-71.63s6.22.56,15.17-8.43a76.48,76.48,0,0,0,11.1-15c14.43-24.45-2.85-50.38-11.49-67.66-2.12-4.23-5.49-11.79-9.51-21.3-12.35-29.12-31.15-76.51-40.91-102.57-5.18-13.78-16.72-14.51-28.77-10.41-18.19,6.18-37.46,23.38-37.46,23.38l-52-9.73-44,34.78-17.8,15.26-1.43,123.86s5.92,16.89,12.27,37c2.77,8.68,5.57,18,8,26.74.31,1,.61,2,.87,3,3.63,13.27,6.22,25,6.22,31.2C2273,1037.84,2239.9,1099.8,2239.9,1099.8Z"/><path class="cls-37" d="M2212.45,1218.91c7.52,70,42,216.41,42,216.41s-40.36,64.81-33.14,116.65,36,136.83,37.46,165.65-10.11,44.63-10.11,51.84,4.32,20.14,14.43,24.46a50.82,50.82,0,0,1,24.45,21.6c5.79,10.11,17.28,23.07,27.39,28.82s18.71,15.94,25.45,16.46l6.74.56s6,1.34,10.8,1.9,9.46-3.8,9.46-3.8,2.16.52,8.13-.52,10.49-8.38,10.49-8.38,8.95-.26,10.81-1.9,7.3-14.86,1.38-17.8-13.22-6.79-14.61-7.61-5.09-15.64-11.06-19.7-21.34-15.12-24.84-17.8-40.48-40-43.77-53.48,2.47-190.88,7.05-200.34c1-2.12,2.68-5.23,4.71-9,6.95-13.09,17.93-33.87,19.61-46.66,2.16-16.46,6.74-49.12,9.16-61s30.76-158.25,28.6-182.53c-.43-4.84-.82-15-1.94-28-.22-2.42-.48-4.92-.74-7.52-1.68-16.46-4.58-36.2-10-55.12a178.6,178.6,0,0,0-8.38-23.55c-14.13-32-38.32-55.65-80.27-46.19l-25.88,27.35s-.65,1-1.69,2.77c-6.43,10.67-29.2,50.93-32.92,88C2210.63,1196.92,2211.15,1206.77,2212.45,1218.91Z"/><path class="cls-36" d="M2389.67,744.06s-8.65,15.85-5.76,28.81,18.18,68.76-39.43,31.32-35.1-55.63-30.78-74.53c3.53-15.44,4-34.56,4-34.56Z"/><path class="cls-20" d="M2242.41,904.64s0,35.65,2.16,42.13c1.64,5,7.13,20.17,21.34,36.72a128.58,128.58,0,0,0,15.38,15.12c25.93,21.6,41.05,33.48,67,32.4s99.37-40,106.93-47.52a12.19,12.19,0,0,1,2.38-1.82l5.18-24.1s6.22.56,15.17-8.43a76.48,76.48,0,0,0,11.1-15c14.43-24.45-2.85-50.38-11.49-67.66-2.12-4.23-5.49-11.79-9.51-21.3-12.35-29.12-31.15-76.51-40.91-102.57-5.18-13.78-16.72-14.51-28.77-10.41l-1.47,6.09s22.68,17.29,32.4,37.81,40,92.89,27,108-24.84,27-29.16,32.4-4.32,14-4.32,14-27-13-42.12-13-18.37,1.08-18.37,1.08-35.64-87.49-49.68-104.77-47.74-33.27-47.74-33.27l-17.8,15.26s24.49,7.21,43.94,27.73,34.56,85.33,32.4,94-1.08,20.52-25.92,15.12S2256.45,910,2256.45,910Z"/><path class="cls-20" d="M2443.31,1139.57l19.44-62.11.54-18-10.8-17.08s0,32.94-12.42,42.12-18.9,22.68-30.24,28.08-59.95,14.58-74,10.8-65.35,1.08-75.07-13.5-8.1-34.56-8.1-34.56l-10.26,18.9,7.56,42.67,38.35,41.58,62.64,17.82,91.81-9.18Z"/><path class="cls-20" d="M2321.24,1250.79a67.16,67.16,0,0,0,10.93-4.23c28.25-13.18,41.91-43.35,46.87-42.19,4.76,1.12,26.7,2.94,36.73,2.16,18.27-1.42,47-12.42,54.69-39.72a104.71,104.71,0,0,0-2.85-21c-10.06-37.41-1.42-66.23-4.32-86.41,0,0-1.37,15.62-13.82,32.28a85,85,0,0,1-9.42,10.58c-21,20-20.48,29.16-52.36,35.64-9.08,1.82-18.24,3.24-27.27,4.2-8.68.9-17.28,1.42-25.53,1.47a174.89,174.89,0,0,1-36.29-3,150.63,150.63,0,0,1-20.57-5.53c-13.87-4.79-23.93-10.8-28.08-16.07-3.33-4.23-6.76-19.55-7.54-24.82-6.44,10.67-36.18,22.68-31.13,96.32C2211.72,1196.94,2257.53,1268.1,2321.24,1250.79Z"/><path class="cls-33" d="M2395.07,629.57c3.24.72,28.8-.36,28.8-.36s10.44-20.52-23-49S2318,554.33,2300,570.17s-34.21,46.8-24.85,77.4S2291,682.86,2294.26,685s60.12,6.12,60.12,6.12Z"/><path class="cls-37" d="M2408,598.25s18.36,30.6,18.36,40-.72,11.17-.72,11.17,7.2,16.2,7.92,23.4-5.76,37.8-5.4,47.52-5.4,30.61-18.72,33.49-33.13-1.45-45-7.57S2318,705.54,2318,705.54s0,10.08-13.68,2.52-20.89-19.08-24.13-32,16.57-19.8,20.53-16.92,19.8,15.12,19.8,15.12,12.24-14,16.56-26.65S2403,610.49,2408,598.25Z"/><rect class="cls-19" x="3509.4" y="303.04" width="1103.78" height="1026.04" rx="96.48"/><rect class="cls-4" x="3579.18" y="571.55" width="964.21" height="200.73" rx="82.44"/><text class="cls-38" transform="translate(3622.52 940.57)">Bust Size</text><rect class="cls-4" x="3579.18" y="982.57" width="964.21" height="200.73" rx="82.44"/><text class="cls-38" transform="translate(3622.52 540.69)">Band Size</text><text class="cls-39" transform="translate(4093.29 734.4)">31</text><text class="cls-40" transform="translate(4315.04 733.17)">Inches</text><text class="cls-39" transform="translate(4093.29 1143.03)">36</text><text class="cls-40" transform="translate(4315.04 1141.79)">Inches</text><rect class="cls-19" x="3621.6" y="1446.91" width="879.38" height="205.51" rx="102.75"/><text class="cls-41" transform="translate(3765.03 1585.2)">Calculate</text><path class="cls-37" d="M2271.21,846s-4,60.84-12.6,79.2-21.6,113.06-21.6,113.06,7.56,78.12,5,109.81-12.6,104-12.6,104,13.68,26.28,14,30.6,9.72,31.32,9.72,31.32-1.8,27.73-1.8,29.17-4,4-7.92-1.44-3.6-24.13-5.4-25.57-13-16.2-13-16.2l-7.2,25.92,7.56,34.21s6.12,11.16,5.4,15.84-2.88,7.2-6.48,3.6-15.84-15.48-15.84-15.48-11.16-14.4-13.32-17.64-4.32-10.08-4.32-10.08-8.29-12.25-8.65-13.33-1.08-24.84-1.08-24.84l17.29-63s-13.33-130.34-14-148,14-149.06,17.64-190.82,27-100.46,45-100.46S2271.21,846,2271.21,846Z"/><path class="cls-42" d="M2497.57,918.66a30.89,30.89,0,0,1-3.91,6.38"/><path class="cls-43" d="M2483.39,935.92c-13.29,11.64-38.2,26.84-83.75,37.89-36.57,8.87-79.68.7-113.49-15.82l-36.64-22-130.12.92"/><polyline class="cls-42" points="2111.88 936.99 2104.38 937.04 2104.38 929.54"/><line class="cls-44" x1="2104.38" y1="914.51" x2="2104.38" y2="531.29"/><polyline class="cls-42" points="2104.38 523.78 2104.38 516.28 2096.88 516.28"/><line class="cls-45" x1="2081.75" y1="516.28" x2="1877.51" y2="516.28"/><line class="cls-42" x1="1869.95" y1="516.28" x2="1862.45" y2="516.28"/><path class="cls-46" d="M2457.57,981.67s-53.34,46.27-110,46.27S2261.77,984,2261.77,984l-446.3,4.09"/><rect class="cls-19" x="3543.5" y="1792.87" width="1035.57" height="447.32" rx="137.87"/><text class="cls-47" transform="translate(3647.79 1898.9)">Size:</text><text class="cls-48" transform="translate(3801.39 2131.49)">34 B</text><text class="cls-49" transform="translate(1846.84 496.73)">Bust</text><text class="cls-49" transform="translate(1802.92 962.56)">Band</text></g></g></svg>