<?xml version="1.0" encoding="UTF-8" standalone="no"?><!DOCTYPE svg PUBLIC "-//W3C//DTD SVG 1.1//EN" "http://www.w3.org/Graphics/SVG/1.1/DTD/svg11.dtd"><svg width="4000px" height="2500px" version="1.1" xmlns="http://www.w3.org/2000/svg" xmlns:xlink="http://www.w3.org/1999/xlink" xml:space="preserve" xmlns:serif="http://www.serif.com/" style="fill-rule:evenodd;clip-rule:evenodd;stroke-linejoin:round;stroke-miterlimit:2;"><g id="c99"></g><g transform="matrix(2.2689,0,0,2.2689,-4306.79,14.0132)"><g id="c35"><g transform="matrix(0.441052,0,0,0.441052,1898.92,-6.23997)"><rect x="111.817" y="218.725" width="3805.79" height="2107.56" style="fill:rgb(174,211,240);"/></g><path d="M1948.24,865.745L1948.24,1019.77L3214.49,1019.77C3188.95,1003.87 3164,985.936 3139.77,966.344C3090.94,926.875 3040.69,873.067 2973.87,868.726C2685.31,849.982 2411.2,1096.62 2122.72,973.714C2064.18,948.773 2002.67,911.322 1948.24,865.745ZM3160.63,90.229L1948.24,90.229L1948.24,338.483C2173.61,207.843 2488.79,287.686 2731.67,257.88C2872.42,240.609 3028.88,178.325 3160.63,90.229Z" style="fill:rgb(195,220,243);"/><g transform="matrix(0.441052,0,0,0.441052,1898.92,-6.23997)"><rect x="111.817" y="218.725" width="3805.79" height="2107.56" style="fill:none;"/><clipPath id="_clip1"><rect x="111.817" y="218.725" width="3805.79" height="2107.56"/></clipPath><g clip-path="url(#_clip1)"><g transform="matrix(2.26731,0,0,2.26731,-4305.44,14.1479)"><path d="M2250.67,602.083C2193.84,527.29 2148.56,384.64 2140.84,290.858C2135.61,227.337 2138.35,204.324 2140.75,202.633C2141.43,202.151 2152.74,226.684 2153.48,228.147C2164.83,250.557 2181.1,272.12 2193.96,294.038C2195.34,296.385 2196.74,298.719 2198.13,301.056C2274.18,428.507 2289.19,505.057 2289.19,656.371" style="fill:rgb(54,139,127);"/><path d="M1973.38,805.641C1930,762.815 1944.77,619.682 1966.14,565.175C1966.68,563.799 1966.26,561.156 1967.74,561.038C1968.33,560.99 1968.76,561.699 1969.13,562.172C2003.19,606.127 2026.66,673.761 2035.08,727.866C2038.54,750.12 2032.53,769.908 2026.66,790.915" style="fill:rgb(54,139,127);"/><path d="M3433.65,745.124C3463.26,677.751 3457.95,595.705 3480.8,525.29C3501.04,462.896 3524.3,388.883 3568.31,338.661C3583.1,321.783 3628.81,261.199 3658.83,263.948C3666.56,264.656 3654.98,301.732 3654.2,306.187C3634.08,420.687 3635.67,536.829 3605.05,649.541C3587.66,713.551 3558.52,808.812 3499.87,849.759" style="fill:rgb(54,139,127);"/><path d="M3147.45,1150.85C3153.88,1012.37 3167.59,852.169 3244.67,732.057C3265.8,699.141 3256.22,787.247 3255,794.707C3238.37,896.255 3222.29,990.012 3181.16,1085.49C3166.02,1120.63 3129.34,1151.43 3111.03,1187.93" style="fill:rgb(54,139,127);"/><path d="M3211,1094.68C3191.12,1039.49 3299.9,926.637 3347.2,907.093C3350.43,905.756 3381.29,887.295 3383.82,892.761C3391.94,910.362 3377.23,953.106 3375.95,972.475C3374.52,994.068 3369.16,1016.07 3361.11,1036.06C3348.71,1066.81 3332.61,1095.23 3314.02,1122.7C3289.49,1158.95 3268.64,1207.88 3223.14,1216.78" style="fill:rgb(54,139,127);"/><path d="M2257.08,861.801C2212.47,746.274 2193.16,575.893 2137.78,495.899C2134.62,491.32 2131.08,488.534 2127.39,484.193C2093.06,443.813 2066.85,379.102 2043.79,331.209C2042.35,328.216 2040.97,325.189 2039.39,322.265C2012.92,273.142 1991.11,219.758 1990.67,162.271C1990.66,160.484 1989.48,144.755 1991.91,144.342C1998.37,143.244 2011.41,180.795 2013.32,184.945C2028.17,217.118 2053.43,246.535 2080.89,268.513C2128.88,306.935 2181.81,339.138 2213.22,394.786C2270.54,496.317 2295.31,751.803 2299.67,894.879C2380.49,958.855 2454.41,1028.62 2470.15,1138.11L2324.47,1129.12C2287.03,1120.99 2259.28,1099.85 2237.5,1072.49C2237.71,1082.97 2235.93,1092.72 2231.26,1101.03L2209.27,1132.32L2215.29,1173.93C2121.97,1139.83 2036.37,1167.78 1978.11,1063.2C1977.13,1061.45 1976.3,1059.62 1975.37,1057.83C1938.44,986.413 1900.62,890.895 1894.42,809.346C1894.09,804.904 1892.56,796.246 1897.01,796.234C1954.7,796.076 2020.88,870.401 2079.28,940.271C2072.62,921.291 2067.03,901.894 2062.8,881.983C2049.36,818.68 2048.04,754.032 2037.81,690.402C2028.6,633.12 2009.46,574.049 1991.94,518.628C1987.28,503.858 1980.9,489.314 1977.88,474.213C1976.8,468.833 1961.38,444.849 1962.94,440.641C1967.16,429.295 2014.99,468.505 2020.33,471.819C2052.73,491.936 2084.31,528.441 2101.86,561.881C2127.89,611.464 2124.2,668.551 2135.05,721.638C2138.2,737.039 2141.25,752.362 2144.35,767.593C2164.37,780.951 2191.24,809.283 2203.03,819.041C2220.56,833.556 2238.77,847.683 2257.08,861.801ZM3167.28,1040.92C3173.47,996.428 3192.63,947.312 3213.99,908.173C3224.29,889.32 3252.36,822.899 3276.75,819.029C3281.89,818.214 3280.89,850.604 3280.9,853.096C3281.11,916.41 3290.3,991.1 3253.96,1047.46C3238.97,1070.71 3216.05,1096.25 3193.26,1111.36L3167.28,1040.92Z" style="fill:rgb(68,174,158);"/><path d="M2221.17,922.087C2208.98,908.743 2192.99,899.596 2181.78,885.368C2112.64,797.592 2075.89,675.986 2054.6,568.06C2046.52,527.098 2050.11,483.509 2044.35,442.096C2042.15,426.276 2039.49,410.056 2036.03,394.474C2034.48,387.493 2024.94,370.877 2031.6,373.484C2044.24,378.435 2057.79,413.436 2063.83,424.216C2070.99,436.992 2083.66,445.951 2090.34,459.281C2141.19,560.803 2162.19,682.194 2176.61,793.668C2180.88,826.668 2177.18,860.114 2182.33,893.077" style="fill:rgb(54,139,127);"/><path d="M1963.2,440.106C1970.95,451.272 1978.67,462.624 1984.98,474.098C2010.34,520.19 2028.34,561.891 2046.39,611.417C2063,656.975 2085.74,702.512 2099.29,748.743C2121.72,825.246 2130.25,907.307 2147.06,985.38C2152.36,1010.01 2165.02,1035.28 2168.5,1059.68C2169.28,1065.11 2167.04,1072.15 2160.84,1069.31C2136.19,1058.01 2123.6,1031.18 2105.14,1012.92C2072.87,981.005 2030.91,988.151 1989.87,967.272C1975.79,960.108 1963.63,943.072 1962.32,944.045C1952.06,951.678 1961.87,1006.2 1978.88,1064.59C1978.62,1064.12 1978.36,1063.66 1978.11,1063.2C1977.13,1061.45 1976.3,1059.62 1975.37,1057.83C1938.44,986.413 1900.62,890.895 1894.42,809.346C1894.09,804.904 1892.56,796.246 1897.01,796.234C1954.7,796.076 2020.88,870.401 2079.28,940.271C2072.62,921.291 2067.03,901.894 2062.8,881.983C2049.36,818.68 2048.04,754.032 2037.81,690.402C2028.6,633.12 2009.46,574.049 1991.94,518.628C1987.28,503.858 1980.9,489.314 1977.88,474.213C1976.8,468.833 1961.38,444.849 1962.94,440.641C1963.02,440.448 1963.1,440.27 1963.2,440.106ZM1990.5,148.852C1995.08,173.495 1998.35,200.022 2010.67,221.761C2019.55,237.422 2034.26,246.51 2045.77,259.51C2069.19,285.968 2082.83,314.688 2097.17,346.59C2099.84,352.525 2108.89,364.54 2108.1,371.375C2107.87,373.346 2105.12,368.75 2103.66,367.401C2098.99,363.071 2095.23,358.191 2091.25,353.208C2079.9,339.017 2067.34,326.914 2058.09,310.861C2057.2,309.311 2038.44,284.502 2038.85,290.84C2041.84,336.872 2098.2,376.042 2118.55,414.989C2137.74,451.722 2177.71,471.932 2198.07,507.602C2243.68,587.491 2266.74,784.331 2266.79,873.437C2266.81,916.126 2278.84,957.25 2279.45,999.475C2279.47,1000.69 2281.29,1019.38 2280.72,1019.5C2278.8,1019.9 2273.7,1004.57 2273.49,1002.29C2269.3,958.37 2247.95,908.8 2235.32,866.513C2232.71,857.769 2230.18,848.54 2227.69,838.937C2237.4,846.602 2247.23,854.203 2257.08,861.801C2212.47,746.274 2193.16,575.893 2137.78,495.899C2134.62,491.32 2131.08,488.534 2127.39,484.193C2093.06,443.813 2066.85,379.102 2043.79,331.209C2042.35,328.216 2040.97,325.189 2039.39,322.265C2012.92,273.142 1991.11,219.758 1990.67,162.271C1990.67,161.086 1990.14,153.766 1990.5,148.852Z" style="fill:rgb(54,139,127);"/><g transform="matrix(1.03368,0,0,1.03368,-95.2838,-30.1687)"><path d="M2214.93,89.89C2183.52,112.434 2175.28,156.643 2204.34,266.456C2233.41,376.269 2262.38,537.179 2283.92,584.208C2305.46,631.236 2388.18,836.191 2388.18,836.191C2388.18,836.191 2301.56,1055.69 2299.63,1067.94C2297.7,1080.2 3282.24,1081.74 3282.24,1081.74C3282.24,1081.74 3242.99,992.171 3225.41,950.827C3207.82,909.483 3194.75,865.422 3194.75,865.422C3194.75,865.422 3233.28,774.153 3258.23,659.781C3258.23,659.781 3310.59,924.461 3322.69,973.36C3334.8,1022.26 3347.1,1077.51 3347.1,1077.51L3639.53,1081.46C3639.53,1081.46 3629.76,959.711 3631.46,891.377C3633.15,823.044 3583.13,653.573 3575.87,574.633C3568.62,495.693 3578.73,395.014 3555.9,267.649C3533.08,140.284 3512.93,108.277 3512.93,108.277C3512.93,108.277 2246.33,67.346 2214.93,89.89Z" style="fill:rgb(255,199,135);"/></g><g transform="matrix(0.440742,0,0,0.440742,1898.18,-6.1762)"><path d="M3264.9,185.752C3311.67,266.985 3350.71,359.25 3379.86,448.055C3415.45,556.453 3444.37,672.255 3455.98,785.824C3470.95,932.325 3419.82,1118.9 3485.11,1256.22C3526.6,1343.47 3668.41,1293.92 3699.95,1365.23C3730.78,1434.93 3610.59,1538.29 3606.13,1614.4C3600.35,1712.96 3709.51,1993.7 3742.12,2091.6C3785.43,2221.61 3825.46,2353.07 3876.99,2480.08L4012.86,2481.92C4012.86,2481.92 3989.95,2196.39 3993.92,2036.12C3997.89,1875.86 3880.58,1478.4 3863.56,1293.26C3846.54,1108.12 3870.25,871.994 3816.72,573.284C3763.18,274.574 3715.93,199.507 3715.93,199.507C3715.93,199.507 3536.6,193.712 3264.9,185.752Z" style="fill:url(#_Linear2);"/></g><g transform="matrix(0.440742,0,0,0.440742,1898.18,-6.1762)"><path d="M1069.43,126.385C1043.86,207.474 1188.45,546.382 1238.04,614.263C1272.4,661.298 1328.13,695.085 1368.77,736.909C1382.81,751.355 1471.99,842.115 1495.34,831.72C1511.07,824.714 1510.11,773.781 1511.73,758.709C1525.94,626.092 1525.99,495.817 1548.44,362.963C1558.79,301.702 1589.28,244.329 1598.47,183.587C1602.71,155.624 1602.05,122.581 1586.85,98.095C1534.63,13.953 1373.49,30.441 1292.26,34.958C1237.1,38.025 1172.19,39.02 1119.43,56.504" style="fill:url(#_Linear3);"/></g><g transform="matrix(0.440742,0,0,0.440742,1898.18,-6.1762)"><path d="M1770.4,154.103C1758.99,151.054 1725.22,143.306 1714.68,151.206C1692.37,167.933 1625.4,891.178 1921.33,849.985C2091.13,826.349 2600.74,220.921 2462.48,54.331C2416.53,-1.03 2342.1,-7.116 2276.39,-18.285C2218.67,-28.095 2102.53,-77.54 2045.75,-49.23" style="fill:url(#_Linear4);"/></g><g transform="matrix(0.440742,0,0,0.440742,1898.18,-6.1762)"><path d="M2749.13,118.724C2647.03,135.559 2528.89,600.184 2675.53,592.678C2675.78,592.666 2908.16,463.333 2950.25,443.955C3084.62,382.09 3267.95,515.461 3270.69,275.084C3271.14,235.515 3257.43,176.985 3224.66,151.502C3118.92,69.258 2937.71,32.102 2807.37,15.519" style="fill:url(#_Linear5);"/></g><g transform="matrix(0.440742,0,0,0.440742,1898.18,-6.1762)"><path d="M3343.01,416.988C3337.24,518.121 3350.39,620.522 3354.83,721.535C3357.58,784.336 3363.11,847.055 3380.57,907.778C3397.91,968.121 3507.88,1216.14 3585.22,1065.54C3610.8,1015.74 3599.35,957.732 3602.21,904.148C3611.65,727.643 3648.06,453.809 3452.91,358.781C3411.5,338.613 3365.23,323.536 3323.68,352.395" style="fill:url(#_Linear6);"/></g><g transform="matrix(0.440742,0,0,0.440742,1898.18,-6.1762)"><path d="M652.348,442.14C666.008,560.365 703.504,685.356 735.663,799.623C758.087,879.3 794.024,954.265 818.196,1033.28C844.841,1120.38 882.87,1228.59 954.23,1289.5C972.688,1305.26 990.459,1308.57 985.694,1277.21C959.977,1108 938.983,926.472 884.295,763.257C864.156,703.153 835.895,647.579 812.631,588.969C789.479,530.641 732.609,309.798 647.939,426.574" style="fill:url(#_Linear7);"/></g><g transform="matrix(1.03368,0,0,1.03368,-95.2838,-30.1687)"><path d="M3262.57,681.644C3261.67,671.666 3260.99,661.696 3260.63,651.748C3257.24,559.587 3232.84,471.059 3232.84,377.516C3232.84,371.084 3232.18,356.425 3242.05,355.283C3247.84,354.611 3249.56,376.544 3249.74,379.258C3253.35,433.434 3245.81,490.165 3266.25,541.545C3279.23,574.171 3280.18,637.466 3311.51,661.343C3321.99,669.323 3373.96,647.339 3379.44,659.121C3387.17,675.773 3379.15,702.113 3376.66,719.085C3362.96,812.553 3375.69,897.513 3395.98,988.158C3399.04,1001.84 3409.37,1037.89 3418.86,1078.47L3347.1,1077.51C3347.1,1077.51 3334.8,1022.26 3322.69,973.36C3312.72,933.043 3275.37,746.038 3262.57,681.644Z" style="fill:rgb(255,183,101);"/></g><g transform="matrix(1.03368,0,0,1.03368,-95.2838,-30.1687)"><path d="M2364.35,392.264C2352.9,386.552 2343.12,365.729 2335.25,355.618C2302.64,313.758 2285.05,263.923 2259.7,217.975C2251.89,203.828 2242.79,190.056 2235.67,175.537C2234.95,174.065 2228.74,163.971 2229.53,162.69C2229.62,162.537 2239.34,170.881 2245.03,178.835C2257.09,195.681 2264.17,215.317 2275.74,232.343C2276.5,233.463 2286.07,247.248 2286.45,246.966C2287.73,246.014 2273.92,205.677 2281.02,197.89C2281.2,197.683 2284.03,210.541 2284.29,211.622C2286.67,221.593 2290.22,231.424 2293.58,241.094C2299.8,259.004 2322.8,342.586 2352.26,339.811C2371.29,338.019 2368.14,301.151 2368.15,288.708C2368.15,260.606 2358.39,232.16 2352,205.067C2348.01,188.174 2347.28,170.64 2343.14,153.86C2341.92,148.914 2334.66,106.955 2336.43,104.92C2338.84,102.135 2346.28,112.794 2346.93,114.044C2353.48,126.585 2352.05,145.371 2364.2,152.798C2382.76,164.138 2385.17,377.981 2364.35,392.264Z" style="fill:rgb(255,183,101);"/></g><g transform="matrix(1.03368,0,0,1.03368,-95.2838,-30.1687)"><path d="M2267.68,205.294C2266.34,188.736 2251.55,174.55 2249.42,158.007C2249.09,155.449 2251.66,162.69 2253.21,164.755C2256.32,168.903 2260.31,173.028 2262.69,177.656C2270.6,193.007 2271.92,209.577 2276.58,225.765" style="fill:rgb(255,183,101);"/></g><g transform="matrix(1.03368,0,0,1.03368,-95.2838,-30.1687)"><path d="M2416.32,370.372C2433.84,402.044 2455.1,433.638 2480.39,459.692C2494.36,474.091 2509.08,487.963 2525.74,499.174C2543.38,511.039 2603.81,546.959 2623.43,524.367C2628.99,517.975 2623.25,471.193 2622.6,462.19C2617.89,397.492 2609.59,333.374 2609.59,268.358C2609.59,239.652 2613.64,212.096 2619.85,184.197C2620.58,180.904 2624.5,162.646 2628.39,162.288C2629.8,162.157 2628.4,191.588 2627.58,202.091C2625.68,226.289 2625.27,250.469 2625.27,274.772C2625.27,340.803 2620.53,404.827 2633.54,470.068C2638.73,496.079 2649.64,532.694 2674.03,547.564C2686.42,555.123 2704.84,555.73 2718.67,553.743C2790.98,543.353 2850.45,479.476 2876.27,413.623C2884.43,392.81 2891.27,371.609 2899.81,350.916C2900.64,348.883 2907.43,331.329 2910.19,331.5C2912.49,331.642 2909.92,355.112 2909.8,356.739C2908.7,371.563 2908.42,386.25 2905.61,400.937C2893.65,463.398 2877.41,539.865 2831.44,587.257C2809.66,609.716 2776.93,610.097 2747.85,611.831C2674.91,616.181 2601.59,602.914 2545.1,553.646" style="fill:rgb(255,183,101);"/></g><g transform="matrix(1.03368,0,0,1.03368,-95.2838,-30.1687)"><path d="M2992.97,168.637C2996.07,149.237 3006.34,117.902 3022.01,104.034C3023.74,102.503 3031.14,101.263 3032.05,103.785C3039.81,125.169 3022.66,154.607 3017.93,175.06C3002.41,242.252 2975.5,307.08 2964.96,375.748C2962.28,393.231 2946.59,443.366 2963.18,457.489C3007.47,495.196 3172.62,526.908 3215.45,491.265C3216.22,490.624 3217.09,489.108 3217.39,488.158C3218.47,484.777 3166.81,408.629 3168.21,384.508C3168.28,383.328 3184.79,397.038 3186.35,398.807C3196.42,410.224 3204.43,423.402 3213,435.817C3213.64,436.734 3219.6,447.458 3220.43,447C3223.57,445.267 3210.52,367.482 3225.39,357.018C3226.29,356.391 3227.88,376.315 3227.88,377.655C3227.93,391.784 3226.46,406.676 3227.89,420.734C3229.44,435.954 3246.37,536.477 3238.03,543.64C3223.09,556.471 3159.62,549.317 3136.81,553.581C3111.03,558.402 3082.32,556.925 3056.53,553.194C2907.05,531.57 2920.8,454.665 2951.25,330.582C2960.45,293.105 2964.86,254.569 2976.65,217.969" style="fill:rgb(255,183,101);"/></g><g transform="matrix(1.03368,0,0,1.03368,-95.2838,-30.1687)"><path d="M3225.86,328.719C3226.32,310.481 3231.6,252.582 3242.65,241.339C3244.54,239.413 3243.39,246.698 3243.47,249.396C3243.76,258.131 3242.18,266.216 3241.72,274.854C3240.6,296.129 3233.7,316.241 3229.29,336.578" style="fill:rgb(255,183,101);"/></g><g transform="matrix(1.03368,0,0,1.03368,-95.2838,-30.1687)"><path d="M2503.69,728.918C2527.55,735.239 2556.68,662.15 2580.6,666.366C2590.74,668.153 2596.07,678.009 2603.07,684.388C2608.76,689.588 2622.49,696.063 2624.86,703.316C2631.53,723.702 2615.45,758.588 2611.91,779.032C2602.56,832.928 2602.77,890.108 2598.24,944.63C2596.21,968.944 2591.09,992.674 2588.57,1016.89C2587.8,1024.37 2585.84,1031.41 2585.01,1038.92C2584.91,1039.91 2581.99,1048.06 2582.46,1047.99C2593.11,1046.44 2605.42,971.27 2606.86,960.483C2616.42,888.583 2624.35,818.522 2641.8,748.06C2644.55,736.949 2646.77,699.712 2651.99,691.506C2666.36,668.913 2694.27,679.176 2717.18,680.152C2756.95,681.846 2854.2,700.683 2886.37,692.753C2887.9,692.377 2884.83,689.995 2883.91,688.723C2878.03,680.65 2872.41,672.026 2863.96,666.372C2839.03,649.686 2809.53,644.158 2780.6,639.099C2716.72,627.924 2653.74,612.563 2589.38,602.972C2584.66,602.269 2533.96,594.316 2528.77,601.313" style="fill:rgb(255,183,101);"/></g><g transform="matrix(1.03368,0,0,1.03368,-95.2838,-30.1687)"><path d="M2346.63,939.863C2358.61,958.097 2458.25,993.505 2474.31,987.835C2487.09,983.327 2495.8,949.723 2513.94,954.79C2522.26,957.115 2529.61,963.012 2537.9,965.807C2572.95,977.616 2610.84,982.545 2646.87,990.948C2689.7,1000.94 2732.17,1013.63 2775.75,1019.87C2819.27,1026.1 2867.45,1028.61 2904.01,999.467C2928.64,979.836 2958.29,931.419 2953.19,898.178C2952.25,892.074 2943.61,886.266 2941.25,880.11C2931.9,855.693 2936.06,816.962 2940.07,792.052C2941.88,780.791 2958.23,709.312 2947.15,705.53C2936.64,701.941 2910.67,774.499 2905.35,786.253C2896.82,805.112 2885.24,821.76 2874.05,839.037C2837.44,895.537 2813.2,922.853 2747.76,887.165C2714.66,869.117 2722.9,807.529 2721.41,806.531C2704.38,795.057 2667.64,817.804 2652.64,822.121C2588.36,840.623 2525.65,859.901 2463.23,883.592" style="fill:rgb(255,183,101);"/></g><g transform="matrix(1.03368,0,0,1.03368,-95.2838,-30.1687)"><path d="M2574.49,652.591C2566.8,649.725 2619.97,677.018 2632.03,681.408C2680.08,698.9 2726.66,710.906 2776.76,721.281C2865.82,739.724 3000.13,743.234 3092.07,736.595C3106.78,735.532 3185.32,731.31 3187.97,755.402C3190.43,777.777 3179.5,837.612 3172.87,859.564C3166.83,879.573 3124.94,916.484 3183.3,914.94C3184.81,914.901 3184.85,910.817 3185.02,910.061C3188.18,896.223 3187.23,881.463 3190.01,867.423C3195.43,840 3208.24,813.358 3217.42,787.025C3224.32,767.221 3270.35,638.786 3251.23,627.778C3218.05,608.674 3154.52,635.213 3121.74,642.766C3028.24,664.306 2935.76,685.965 2839.2,685.966" style="fill:rgb(255,183,101);"/></g><g transform="matrix(1.03368,0,0,1.03368,-95.2838,-30.1687)"><path d="M3192.38,374.428C3182.21,345.56 3177.89,310.024 3175.14,279.604C3174.62,273.882 3174.27,267.001 3174.75,261.21C3175.47,252.594 3181.2,252.581 3183.38,261.271C3193.26,300.604 3196.79,342.416 3203.27,382.319" style="fill:rgb(255,183,101);"/></g><g transform="matrix(1.03368,0,0,1.03368,-95.2838,-30.1687)"><path d="M2703.31,543.78C2684.88,539.907 2667.96,482.618 2688.6,506.743C2692.24,511.007 2695.56,515.558 2699.19,519.842C2704.14,525.677 2707.87,532.535 2711.43,539.282C2713.21,542.66 2713.97,546.329 2715.61,549.686" style="fill:rgb(255,183,101);"/></g><g transform="matrix(1.03368,0,0,1.03368,-95.2838,-30.1687)"><path d="M2589.32,509.113C2567.08,506.902 2545.4,441.112 2575.3,468.695C2586.95,479.439 2594.14,493.836 2598.84,508.746" style="fill:rgb(255,183,101);"/></g><g transform="matrix(1.03368,0,0,1.03368,-95.2838,-30.1687)"><path d="M2470.07,614.153C2479.36,617.252 2491.95,614.691 2501.6,614.691C2523.1,614.691 2552.94,616.668 2570.84,630.242C2576.39,634.453 2566.63,646.114 2564.72,648.932C2554.5,664.067 2539.12,686.973 2532.65,703.723C2526.44,719.795 2513.96,736.172 2502.92,749.216C2498.34,754.637 2493.81,761.952 2487.19,765.192C2468.06,774.553 2442.73,773.635 2422.08,774.641C2405.81,775.434 2389.63,778.529 2373.33,779.512C2354.49,780.648 2336.31,777.109 2317.57,776.803C2311.07,776.697 2298.82,777.113 2294.5,770.854C2290.81,765.514 2293.92,756.472 2296.01,751.145C2302.98,733.383 2313.15,717.101 2326.6,703.497C2338.48,691.486 2351.24,680.134 2364.92,670.209C2387.21,654.044 2412.33,640.334 2437.07,628.362" style="fill:rgb(255,210,164);"/></g><g transform="matrix(1.03368,0,0,1.03368,-95.2838,-30.1687)"><path d="M2433.1,650.828C2424.37,652.093 2412.62,668.49 2423.43,677.279C2446.37,695.935 2473.06,698.697 2487.69,729.208C2490.18,734.405 2493.39,753.888 2489.53,759.959C2487.32,763.456 2481.53,766.349 2478.38,768.754C2451.7,789.098 2430.04,781.364 2401.51,777.435C2393.11,776.277 2381.84,778.548 2374.31,773.596C2370.07,770.807 2365.75,745.354 2360.63,737.054C2358.48,733.57 2355.53,730.578 2353.12,727.23C2351.88,725.519 2350.14,720.535 2349.08,722.358C2344.29,730.593 2360.86,753.246 2358.52,763.502C2358.43,763.906 2341.63,764.253 2340.1,764.612C2335.83,765.62 2331.38,766.385 2327.19,767.68C2325.38,768.237 2321.68,771.149 2321.74,769.26C2322.01,760.779 2330.95,753.384 2331.57,744.313C2331.66,743.11 2331.21,732.461 2330.65,733.202C2322.31,744.333 2324.74,752.746 2312.01,747.356C2309,746.086 2305.9,744.678 2305.18,741.176C2302.91,730.04 2316.44,713.46 2322.69,704.986C2340.38,680.986 2364.36,664.525 2388.73,648.172C2394.22,644.487 2413.33,633.067 2420.23,632.277" style="fill:rgb(255,205,154);"/></g><g transform="matrix(1.03368,0,0,1.03368,-95.2838,-30.1687)"><path d="M2470.66,633.952C2465.67,640.385 2461.17,647.433 2456.48,654.099C2453.81,657.892 2451.29,661.831 2448.91,665.806C2447.53,668.118 2446.53,670.474 2445.36,672.881C2444.35,674.935 2441.33,687.081 2447.04,680.882C2451.62,675.915 2454.5,669.457 2458.62,664.115C2461.04,660.974 2463.51,657.782 2466.12,654.797C2468.49,652.08 2471.11,649.594 2473.44,646.841C2475.12,644.842 2476.84,642.863 2478.51,640.853C2483.06,635.401 2494.7,623.274 2491.14,614.582" style="fill:rgb(255,197,137);"/><path d="M2513.49,627.068C2514.35,626.368 2511.23,632.684 2510.69,633.501C2507.76,637.954 2504.05,641.841 2501.16,646.335C2492.11,660.456 2481.86,673.743 2473.25,688.155C2471.39,691.265 2469.04,694.03 2467.25,697.22C2467.14,697.426 2465.32,699.967 2465.92,700.359C2467.74,701.53 2469.9,699.365 2470.98,698.178C2474.66,694.14 2477.81,689.445 2481.17,685.123C2492.92,670.017 2504.82,655.036 2516.38,639.758C2519.25,635.967 2520.83,631.703 2523.03,627.593C2524.23,625.364 2522.21,624.059 2520.14,625.048" style="fill:rgb(255,197,137);"/><path d="M2390.05,698.754C2395.78,699.553 2403.31,693.408 2406.82,689.233C2408.33,687.432 2409.15,685.173 2410.74,683.462C2411.05,683.129 2412.15,681.787 2412.7,682.471C2413.86,683.91 2411.84,687.566 2411.04,688.674C2407.68,693.305 2402.84,696.518 2397.7,698.874C2396.58,699.388 2391.69,701.75 2390.87,699.711" style="fill:rgb(104,173,227);"/><path d="M2700.4,570.613C2700.4,570.613 2768.4,582.796 2820.26,522.888C2872.11,462.979 2864.08,462.897 2889.84,382.316C2915.59,301.734 2974.07,114.152 2974.07,114.152L3024.81,109.587C3024.81,109.587 2929.36,439.982 2938.33,462.804C2947.3,485.626 3066.23,518.329 3140.83,517.377C3215.43,516.425 3241.6,519.176 3241.6,519.176L3259,658.41C3259,658.41 3114.2,727.666 3001.3,728.938C2888.41,730.211 2696.34,665.373 2696.34,665.373L2700.4,570.613Z" style="fill:rgb(236,97,152);"/><g transform="matrix(0.426383,0,0,0.426383,1928.52,23.2108)"><path d="M2528.73,206.395L2571.13,202.58C2571.13,202.58 2347.27,977.459 2368.31,1030.98C2389.34,1084.51 2668.28,1161.21 2843.24,1158.97C3018.21,1156.74 3079.59,1163.19 3079.59,1163.19L3091.42,1257.91C3049.87,1262.13 3002.43,1252.97 2968.24,1251.03C2868.74,1245.37 2396.32,1189.69 2347.72,1094.53C2316.24,1032.9 2379.63,882.829 2394.8,818.935C2425.65,689 2460.4,559.832 2491.6,430.095C2508.41,360.158 2513.18,280.746 2528.73,206.395Z" style="fill:rgb(241,141,181);"/></g><g transform="matrix(0.426383,0,0,0.426383,1928.52,23.2108)"><path d="M2156.98,1151.47C2094.67,1200.19 2027.14,1243.95 1966.06,1293.91C1964.46,1295.22 1962.26,1297.08 1962.73,1299.6C1965.12,1312.23 1994.04,1318.89 2002.91,1328.89C2036.15,1366.34 2063.01,1393.9 2105.8,1419.84C2106.53,1420.28 2110.18,1423.22 2111.14,1421.68C2134.39,1384.21 2056.61,1302.57 2066.47,1277.75C2079.52,1244.92 2185.31,1206.89 2155.64,1160.46" style="fill:rgb(241,141,181);"/></g><path d="M3231.39,518.461C3238.5,518.85 3241.6,519.176 3241.6,519.176L3259,658.41C3259,658.41 3114.2,727.666 3001.3,728.938C2888.41,730.211 2696.34,665.373 2696.34,665.373L2698.84,607.106C2716.69,612.918 2733.69,625.512 2750.02,632.452C2754.81,634.488 2791.42,648.752 2792.04,653.246C2792.26,654.875 2783.3,655.073 2782.43,654.978C2774.32,654.103 2718.33,634.765 2714.96,642.069C2714.43,643.216 2718.31,646.324 2718.59,646.551C2739.91,663.995 2770.22,675.497 2796.96,680.93C2890.16,699.87 2991.46,697.976 3085.02,678.021C3094.91,675.912 3105.32,673.183 3114.97,670.067C3121.82,667.855 3128.83,665.609 3135.81,663.749C3142.52,661.962 3149.24,660.917 3155.74,658.318C3187.85,645.484 3112.46,651.585 3106.58,632.21C3106.3,631.272 3112.02,630.056 3112.2,630.004C3124.68,626.394 3137.67,622.205 3149.46,616.797C3177.82,603.78 3209.8,593.97 3232.97,571.819C3234.57,570.296 3232.98,562.069 3232.33,559.809C3230.89,554.837 3234.08,547.81 3232.23,543.533C3231.03,540.752 3192.7,546.606 3189.17,534.295C3188.06,530.409 3219.69,523.331 3224.51,522.12C3227.09,521.471 3229.32,520.138 3231.39,518.461Z" style="fill:rgb(233,69,134);"/><path d="M3044.51,659.153C3020.75,658.381 2986.13,668.559 2961.09,671.851C2945.6,673.889 2930.14,673.733 2914.55,673.733C2904.69,673.733 2894.85,673.905 2885.02,673.278C2878.18,672.843 2870.64,672.692 2863.98,674.026C2856.91,675.442 2858.86,680.456 2865.72,681.581C2868.83,682.09 2871.65,682.519 2874.81,682.772C2879.59,683.156 2884.18,683.373 2889,683.381C2898.12,683.396 2907.16,683.271 2916.25,682.834C2965.88,680.45 3013.87,675.842 3062.76,667.675C3076.55,665.371 3091.44,664.545 3104.78,660.346C3105.38,660.159 3107.36,659.836 3107.43,658.957C3107.67,655.583 3089.51,653.768 3086.51,652.576" style="fill:rgb(233,69,134);"/><g transform="matrix(1,0,0,1,-201.842,127.369)"><path d="M2922.95,466.757C2936.18,481.84 2953.5,497.576 2974.21,500.42C2976.15,500.686 2971.78,497.327 2970.8,495.628C2968.38,491.412 2965.79,487.71 2962.72,483.93C2953.55,472.657 2931.85,473.585 2924.37,462.114" style="fill:rgb(233,69,134);"/></g><path d="M2340.46,113.806C2340.46,113.806 2381.42,303.632 2374.85,335.599C2368.28,367.566 2352.24,378.337 2352.24,378.337C2352.24,378.337 2404.62,501.456 2419.92,538.365C2435.22,575.273 2464.76,609.684 2464.76,609.684C2464.76,609.684 2547.43,628.448 2564.81,635.815C2582.2,643.183 2611.51,646.998 2611.51,646.998C2611.51,646.998 2615,558.311 2615.81,548.932C2616.62,539.553 2606.47,543.251 2594.14,535.666C2581.82,528.081 2487.81,481.06 2457.76,424.84C2427.71,368.621 2382.93,156.554 2383.49,111.347L2340.46,113.806Z" style="fill:rgb(236,97,152);"/><path d="M2355.45,187.817C2357.29,192.301 2358.97,196.645 2359.94,200.602C2368.28,234.665 2376.44,269.299 2383.21,303.694C2390.53,340.885 2366.64,367.655 2370.84,393.064C2379.12,443.128 2408.1,490.254 2433.42,533.337C2444.37,551.981 2455.45,577.11 2473.71,590.181C2485.11,598.343 2502.05,596.458 2514.03,601.892C2521.25,605.168 2520,611.434 2524.49,614.477C2536.06,622.328 2594.58,636.753 2608.14,634.414C2613.05,633.567 2605.39,624.369 2603.15,623.195C2599.6,621.335 2584.25,619.485 2583.13,615.77C2582.75,614.517 2584.73,613.976 2585.53,613.85C2588.68,613.353 2592.54,613.139 2595.64,613.965C2596.09,614.085 2599.03,615.874 2599.42,615.442C2601.03,613.682 2599.85,610.275 2599.82,608.195C2599.68,598.888 2600.51,591.463 2602.99,582.506C2606.7,569.114 2608.79,555.794 2611.94,542.335C2614.65,543.462 2616.14,545.113 2615.81,548.932C2615,558.311 2611.51,646.998 2611.51,646.998C2611.51,646.998 2582.2,643.183 2564.81,635.815C2547.43,628.448 2464.76,609.684 2464.76,609.684C2464.76,609.684 2435.22,575.273 2419.92,538.365C2404.62,501.456 2352.24,378.337 2352.24,378.337C2352.24,378.337 2368.28,367.566 2374.85,335.599C2378.68,316.985 2366.39,244.845 2355.45,187.817Z" style="fill:rgb(233,69,134);"/><path d="M2622.61,550.994C2622.61,550.994 2622.96,547.499 2633.3,550.578C2643.63,553.658 2686.83,560.12 2695.96,562.886C2705.1,565.652 2710.16,564.217 2712.53,567.508C2714.91,570.799 2705.94,669.434 2705.76,671.744C2705.58,674.053 2659.52,665.645 2652.88,661.968C2646.23,658.292 2624.23,652.331 2622.61,649.361C2620.98,646.39 2622.61,550.994 2622.61,550.994Z" style="fill:rgb(228,58,125);"/><path d="M2706.53,662.993C2706.08,668.107 2705.79,671.347 2705.76,671.744C2705.58,674.053 2659.52,665.645 2652.88,661.968C2646.23,658.292 2624.23,652.331 2622.61,649.361C2620.98,646.39 2622.61,550.994 2622.61,550.994C2622.61,550.994 2622.96,547.499 2633.3,550.578C2633.54,550.652 2633.81,550.728 2634.09,550.805C2631.86,567.798 2635.18,585.319 2635.29,602.322C2635.37,614.107 2632.95,627.678 2636.19,639.16C2637.62,644.212 2643.02,645.63 2646.92,648.163C2649.55,649.875 2651.93,651.539 2654.93,652.559C2657.18,653.32 2659.09,654.387 2661.51,654.425C2661.73,654.429 2663.06,654.566 2663.18,654.289C2663.64,653.155 2659.17,651.138 2658.4,650.592C2654.67,647.949 2650.03,645.95 2646.66,642.879C2645.08,641.45 2643.7,639.177 2644.81,637.033C2645.68,635.375 2650.55,639.897 2651.28,640.417C2653.86,642.268 2656.66,642.715 2659.45,644.008C2664.38,646.292 2669.08,649.274 2674.09,651.559C2680.13,654.316 2686.69,658.761 2693.36,659.537C2694.14,659.628 2698.23,658.671 2698.61,658.204C2698.84,657.907 2699.03,657.531 2699.16,657.135C2699,656.481 2698.88,655.831 2698.83,655.193C2698.8,654.871 2699.27,655.718 2699.29,656.04C2699.32,656.392 2699.27,656.772 2699.16,657.135C2699.59,658.949 2700.32,660.793 2700.8,662.494C2700.93,662.944 2701.03,664.285 2701.59,664.437C2703.21,664.882 2704.88,663.935 2706.53,662.993Z" style="fill:rgb(197,27,94);"/><path d="M2611.81,545.103C2611.81,545.103 2614.41,543.113 2619,544.058C2623.59,545.002 2628.76,549.328 2628.76,549.328L2625.5,652.838C2625.5,652.838 2621.23,656.217 2615.11,652.417C2609,648.616 2608.64,642.278 2608.64,642.278L2611.81,545.103Z" style="fill:rgb(228,58,125);"/><path d="M2615,543.924C2614.57,547.931 2614.93,552.172 2614.72,556.163C2613.85,572.284 2614.1,588.445 2613.42,604.574C2612.89,617.333 2608.55,629.731 2611.44,642.534C2611.74,643.845 2612.16,645.077 2612.8,646.262C2614.63,649.654 2619.35,651.96 2622.35,648.535C2622.87,647.941 2622.78,646.942 2622.63,646.227C2622.57,645.948 2622.08,645.463 2622.36,645.411C2622.62,645.363 2623.25,646.844 2623.43,647.061C2624.09,647.896 2624.8,649.128 2625.58,650.243L2625.5,652.838C2625.5,652.838 2621.23,656.217 2615.11,652.417C2609,648.616 2608.64,642.278 2608.64,642.278L2611.81,545.103C2611.81,545.103 2612.93,544.247 2615,543.924Z" style="fill:rgb(197,27,94);"/><path d="M2617.77,643.806C2616.73,642.278 2616.01,640.824 2615.59,638.983C2615.39,638.112 2615.2,637.267 2614.96,636.405C2614.86,636.007 2613.78,632.191 2614.23,631.915C2615.47,631.156 2617.36,636.227 2617.51,636.755C2617.8,637.761 2621.26,642.964 2619.88,644.036C2619.7,644.172 2618.43,643.891 2618.07,644.027" style="fill:rgb(197,27,94);"/><path d="M2638.92,630.838C2639.1,632.892 2639.67,635.721 2640.68,637.557C2640.89,637.949 2642.31,639.432 2642.86,638.9C2643.7,638.089 2642.84,636.175 2642.63,635.279C2641.88,632.18 2640.17,630.524 2638.23,628.144" style="fill:rgb(197,27,94);"/><path d="M2646.87,625.983C2649.66,632.812 2657.75,640.455 2664.6,643.349C2669.3,645.331 2674.58,646.223 2679.39,648.045C2683.24,649.505 2686.85,651.37 2690.8,652.573C2692,652.94 2693.18,653.367 2694.34,653.831C2694.88,654.045 2695.29,654.192 2695.8,654.456C2696.08,654.601 2696.89,655.059 2696.6,654.941C2693.87,653.832 2692.37,650.666 2690.51,648.568C2688.28,646.053 2685.33,644.352 2682.53,642.548C2676.7,638.794 2668.37,639.087 2662.28,635.593C2656.89,632.498 2654.25,626.776 2649.38,623.268C2648.41,622.567 2647.06,623.192 2646.03,622.589" style="fill:rgb(197,27,94);"/><g transform="matrix(0.426383,0,0,0.426383,1928.52,23.2108)"><path d="M1053.12,417.939C1065.18,474.556 1086.13,528.769 1099.09,585.102C1138.76,757.628 1186.33,984.988 1322.59,1108.71C1364.57,1146.83 1425.43,1177.01 1461.41,1220.16C1462.79,1221.81 1471.4,1235.28 1472.24,1234.89C1508.85,1218.07 1382.61,1113.08 1376.31,1107.74C1300.31,1043.33 1222.36,963.737 1188.14,866.72C1150.16,759.016 1116.24,637.49 1097.48,524.795C1096.2,517.087 1054.5,330.204 1044.26,363.167" style="fill:rgb(241,141,181);"/></g></g><g transform="matrix(1.03368,0,0,1.03368,-95.2838,-30.1687)"><path d="M2027.23,673.031C2028.19,669.551 2041.23,666.172 2044.43,664.742C2061.57,657.094 2077.64,647.328 2094.66,639.425C2119.46,627.911 2146.5,610.294 2173.91,605.942C2229.91,597.052 2287.82,605.178 2344.24,601.501C2392.23,598.374 2435.33,590.076 2480.45,572.853C2491.57,568.608 2512.38,568.03 2510.36,585.076C2506.43,618.292 2449.05,657.163 2420.65,668.217C2410.18,672.287 2398.41,671.428 2388.3,675.805C2382.3,678.403 2377.02,687.004 2371.7,691C2362.03,698.271 2353.08,706.754 2343.09,713.539C2338.35,716.763 2332.41,718.031 2327.72,721.228C2311.18,732.494 2324.57,757.156 2331.14,770.078C2333.37,774.471 2339.71,783.608 2337.03,788.796C2333.19,796.237 2317.47,800.206 2310.42,802.127C2301.99,804.424 2293.63,806.422 2285.09,808.28C2272.35,811.052 2259.61,813.967 2246.62,815.37C2231.91,816.957 2216.83,818.669 2202.04,818.769C2145.59,819.15 2044.71,823.745 2036.49,745.566C2035.44,735.651 2035.57,725.75 2037.6,715.987" style="fill:rgb(255,222,188);"/></g><g transform="matrix(1.03368,0,0,1.03368,-95.2838,-30.1687)"><path d="M2038.96,665.888C2052.38,683.036 2068.74,695.695 2085.48,709.757C2089.68,713.284 2092.76,717.903 2097.03,721.298C2111.33,732.652 2135.03,742.105 2153.52,738.736C2178.67,734.155 2204.11,730.404 2229.31,726.208C2240.55,724.337 2249.75,726.146 2249.74,726.274C2249.56,728.135 2239.26,729.914 2237.93,730.207C2224.12,733.252 2210.19,738.263 2197.82,745.219C2187.61,750.96 2178.44,758.543 2167.86,763.609C2136.81,778.476 2084.14,791.752 2050.32,791.757C2035.47,791.76 2001.58,784.195 1997.51,766.462C1995.87,759.329 1998.3,752.342 2000.32,745.54" style="fill:rgb(255,205,154);"/></g><g transform="matrix(1.03368,0,0,1.03368,-95.2838,-30.1687)"><path d="M2510.22,586.149C2505.2,619.12 2448.75,657.282 2420.65,668.217C2410.18,672.287 2398.41,671.428 2388.3,675.805C2382.3,678.403 2377.02,687.004 2371.7,691C2362.03,698.271 2353.08,706.754 2343.09,713.539C2338.35,716.763 2332.41,718.031 2327.72,721.228C2311.18,732.494 2324.57,757.156 2331.14,770.078C2333.37,774.471 2339.71,783.608 2337.03,788.796C2333.19,796.237 2317.47,800.206 2310.42,802.127C2308.72,802.59 2307.03,803.041 2305.33,803.481C2291.77,804.731 2278.17,805.787 2264.62,807.248C2238.45,810.07 2202.35,812.373 2178.09,799.803C2172.23,796.762 2162.55,792.94 2159.03,786.833C2152.02,774.674 2174.68,767.71 2182.88,763.944C2188.84,761.211 2195.14,759.97 2201.18,757.585C2213.24,752.825 2224.2,745.159 2237.15,742.304C2247.84,739.949 2262.09,739.725 2273.07,739.564C2277.09,739.505 2303.68,739.215 2305.67,734.685C2308.41,728.418 2296.55,728.888 2295.58,723.738C2295.14,721.458 2305.59,721.847 2305.82,716.783C2305.9,715.1 2298.9,711.305 2297.78,710.756C2287.83,705.878 2276.98,703.447 2266.4,700.343C2257.64,697.776 2249.54,693.292 2242.24,687.742C2241.25,686.989 2235.2,682.76 2236.64,681.034C2239.29,677.853 2257.4,687.506 2259.97,688.834C2279.53,698.914 2299.07,706.466 2321.28,702.438C2329.16,701.008 2352.96,694.186 2356.39,686.463C2359.29,679.942 2358.11,670.853 2357.87,663.89C2357.8,661.753 2355.93,656.994 2358.95,655.977C2368.1,652.896 2384.46,663.585 2397.68,661.285C2438.05,654.257 2485.06,624.904 2507.53,590.752C2508.5,589.264 2509.39,587.724 2510.22,586.149Z" style="fill:rgb(255,205,154);"/></g><g transform="matrix(1.03368,0,0,1.03368,-95.2838,-30.1687)"><path d="M1954.33,638.473L2053.43,653.703C2053.43,653.703 2085.92,742.186 2075.97,778.114C2066.03,814.042 1953.81,807.267 1953.81,807.267L1954.33,638.473Z" style="fill:rgb(224,191,56);"/></g><g transform="matrix(1.03368,0,0,1.03368,-95.2838,-30.1687)"><path d="M2499.58,772.293C2501.07,770.46 2497.66,765.141 2497.01,763.253C2493.72,753.744 2488.4,744.947 2483.25,736.374C2477.72,727.16 2472.55,715.185 2464.32,707.989C2448.3,693.977 2429.81,686.727 2411.7,676.386C2405.74,672.988 2385.35,659.013 2378.04,660.126C2368.73,661.544 2368.08,694.395 2371.49,700.531C2379.08,714.156 2394.84,726.075 2405.07,739.055C2417.12,754.341 2412.77,778.828 2432.83,787.771C2437.48,789.845 2443.33,790.252 2448.28,791.436" style="fill:rgb(255,222,188);"/></g><g transform="matrix(1.03368,0,0,1.03368,-95.2838,-30.1687)"><path d="M2372.53,666.392C2372.86,667.854 2373.17,669.092 2373.3,669.811C2375.31,681.669 2378.05,695.6 2384.68,705.965C2389.1,712.88 2398.16,721.562 2406.76,722.467C2410.75,722.887 2421.88,720.596 2424.73,722.91C2430.3,727.433 2415.47,729.937 2416.09,734.203C2416.73,738.599 2427.37,750.432 2429.72,755.991C2433.23,764.328 2437.81,772.124 2441.33,780.445C2442.39,782.958 2444.37,786.76 2441.54,788.479C2440.79,788.933 2440.01,789.335 2439.2,789.689C2436.97,789.224 2434.79,788.646 2432.83,787.771C2412.77,778.828 2417.12,754.341 2405.07,739.055C2394.84,726.075 2379.08,714.156 2371.49,700.531C2368.95,695.961 2368.66,676.576 2372.53,666.392Z" style="fill:rgb(255,197,137);"/></g><g transform="matrix(1.03368,0,0,1.03368,-95.2838,-30.1687)"><path d="M2455.18,758.719C2457.34,759.042 2463.05,755.988 2465.67,755.542C2477.26,753.57 2488.89,751.365 2500.53,749.542C2524.48,745.788 2547.84,739.922 2571.33,733.367C2597.51,726.061 2633.05,718.506 2659.6,712.338C2694.17,704.306 2755.73,714.576 2807.61,704.748C2836.15,699.342 2864.74,688.537 2893.59,685.656C2909.03,684.115 2924.82,681.33 2939.24,689.234C2946.05,692.97 2947.08,698.82 2947.09,705.824C2947.09,714.481 2944.26,721.033 2939.75,726.414C2939.72,729.024 2939.62,731.28 2939.62,732.29C2939.63,745.305 2938.18,762.116 2933.06,774.757C2930.94,789.255 2925.84,803.194 2923.11,817.59C2912.82,871.878 2887.54,902.893 2842.36,935.631C2822.08,950.323 2802.03,968.905 2777.84,976.976C2770.37,979.466 2760.48,975.672 2752.92,974.988C2728.06,972.739 2706.33,966.065 2682.73,957.747C2658.12,949.075 2632.33,944.311 2607.85,935.124C2589.79,928.349 2572.45,920.484 2554.76,912.919C2547.13,909.657 2538.75,903.909 2530.59,902.209C2518.7,899.731 2506.15,900.563 2493.94,900.988C2491.1,901.087 2458.14,759.504 2455.18,758.719L2455.15,758.715C2455.16,758.715 2455.17,758.716 2455.18,758.719ZM2871.34,763.346C2869.42,770.696 2866.14,779.958 2866.04,787.427C2861.65,803.097 2858.84,819.369 2842.12,826.145C2827.68,832 2812.95,838.775 2797.72,842.305C2793.96,843.176 2783.35,845.005 2781.22,840.187C2770.97,817.024 2785.67,800.537 2804.71,790.195C2825.8,778.738 2848.8,771.53 2871.34,763.346Z" style="fill:rgb(255,222,188);"/><path d="M2930.31,788.439C2927.94,798.158 2924.97,807.768 2923.11,817.59C2912.82,871.878 2887.54,902.893 2842.36,935.631C2822.08,950.323 2802.03,968.905 2777.84,976.976C2770.37,979.466 2760.48,975.672 2752.92,974.988C2728.06,972.739 2706.33,966.065 2682.73,957.747C2658.12,949.075 2632.33,944.311 2607.85,935.124C2589.79,928.349 2572.45,920.484 2554.76,912.919C2547.13,909.657 2538.75,903.909 2530.59,902.209C2518.7,899.731 2506.15,900.563 2493.94,900.988C2492.11,901.052 2477.87,842.701 2467.13,800.72C2480.78,810.597 2497.88,818.535 2509.06,830.217C2518.57,840.157 2515.38,856.011 2524.22,866.969C2527.57,871.13 2532.56,864.79 2536.19,867.334C2544.34,873.05 2549.12,882.652 2558.24,888.561C2601.71,916.744 2661.36,929.225 2712.05,934.129C2732.4,936.098 2753.96,945.358 2774.63,942.737C2780.22,942.029 2782.78,933.393 2788.01,933.792C2795.15,934.337 2799.17,943.246 2807.33,938.832C2838.82,921.791 2876.8,888.748 2901.11,862.644C2907.89,855.365 2902.19,843.035 2902.86,842.462C2905.31,840.374 2908.26,853.154 2911.02,847.371C2912.75,843.742 2911.72,839.958 2912.63,836.289C2916.47,820.779 2922.66,803.225 2930.31,788.439Z" style="fill:rgb(255,205,154);"/><path d="M2762.16,844.396C2763.62,841.243 2738.14,846.3 2732.28,849.767C2732.11,849.871 2729.25,851.474 2729.37,851.823C2732.96,861.803 2762.23,849.456 2765.1,843.148" style="fill:rgb(255,205,154);"/><path d="M2946.55,712.066C2945.53,717.754 2943.11,722.408 2939.75,726.414C2939.74,727.666 2939.71,728.837 2939.68,729.828C2939.5,730.001 2939.32,730.17 2939.14,730.335C2923.14,745.163 2900.04,758.2 2879.2,764.998C2875.94,766.061 2872.9,767.104 2869.97,768.275C2870.46,766.569 2870.93,764.914 2871.34,763.346C2848.8,771.53 2825.8,778.738 2804.71,790.195C2785.67,800.537 2770.97,817.024 2781.22,840.187C2782.89,843.96 2789.76,843.657 2794.46,842.929C2792.58,846.557 2790.27,849.869 2786.58,852.182C2783.76,853.944 2771.29,873.836 2766.81,865.414C2764.79,861.619 2776.96,854.735 2777.38,850.53C2778.18,842.502 2766.76,832.847 2764.48,824.994C2762.77,819.12 2768.14,808.511 2762.68,804.768C2756.17,800.303 2746.19,800.449 2738.69,798.801C2737.35,798.507 2730.36,796.721 2731.68,794.198C2732.84,791.975 2745.63,794.234 2748.14,794.486C2762.2,795.901 2777.63,791.086 2790.93,787.157C2797.69,785.16 2807.78,778.932 2813.44,774.557C2817.68,771.279 2819.76,766.2 2825.17,764.186C2832.7,761.381 2840.89,761.726 2848.62,759.537C2864.96,754.9 2878.77,745.656 2894.39,739.444C2904.72,735.336 2914.85,732.009 2924.39,726.068C2931.61,721.572 2939.99,717.619 2946.55,712.066Z" style="fill:rgb(255,205,154);"/><path d="M2918.29,730.655C2909.45,729.665 2900.11,729.732 2895.41,720.623C2893.86,717.613 2892.8,713.857 2892.03,710.563C2891.64,708.854 2891.54,705.828 2890.23,704.465C2889.75,703.971 2889.99,705.82 2889.98,706.506C2889.96,708.038 2890.27,709.456 2890.33,710.972C2890.51,715.134 2891.35,720.272 2892.77,724.191C2893.64,726.623 2893.96,729.708 2895.59,731.802C2897.26,733.956 2899.95,734.357 2902.4,734.811C2908.3,735.905 2914.73,737.832 2919.96,733.356" style="fill:rgb(255,197,137);"/><path d="M2871.04,764.462C2883.43,759.44 2895.86,753.079 2907.3,746.662C2911.05,744.555 2914.8,742.409 2918.61,740.482C2919.66,739.951 2922.13,737.975 2923.33,738.117C2923.68,738.157 2920.39,743.093 2920.29,743.248C2917.83,746.973 2915.24,750.646 2912.75,754.361C2907.33,762.45 2903.98,771.651 2896.48,778.229C2889.4,784.438 2881.92,789.223 2875.68,796.387C2873.86,798.473 2870.94,800.534 2869.94,803.183C2869.12,805.35 2867.61,811.608 2868.61,813.771C2869.51,815.705 2872.61,817.733 2874.26,818.932C2879.15,822.475 2884.68,825.561 2889.39,829.299C2892.53,831.798 2895.68,833.804 2898.2,837.003C2898.39,837.241 2900.38,841.157 2900.08,841.163C2898.76,841.185 2895.91,837.263 2895.04,836.301C2892.24,833.202 2888.3,830.363 2884.31,829.037C2879.54,827.455 2869.18,824.173 2864.45,827.211C2861.91,828.838 2861.15,833.841 2858.35,834.402C2853.84,835.308 2849.65,831.902 2845.15,832.854C2841.24,833.678 2837.54,837.765 2833.98,839.471C2828.51,842.087 2823.15,842.263 2817.28,842.997C2809.8,843.936 2804.07,845.041 2796.49,843.844C2793.84,843.425 2787.74,845.154 2785.3,843.003C2789.37,843.944 2795.15,842.901 2797.72,842.305C2812.95,838.775 2827.68,832 2842.12,826.145C2858.84,819.369 2861.65,803.097 2866.04,787.427C2866.14,780.331 2869.1,771.618 2871.04,764.462Z" style="fill:rgb(255,205,154);"/><path d="M3105.53,906.03C3105.32,909.455 3105.31,911.958 3103.21,914.721" style="fill:rgb(148,197,235);"/><path d="M1945.21,759.894C1945.21,759.894 2390.05,752.406 2404.1,751.96C2418.15,751.514 2465.87,747.967 2465.87,747.967L2476.62,751.19C2476.62,751.19 2500.05,804.334 2503.39,833.672C2506.73,863.01 2494.04,944.298 2494.04,944.298C2494.04,944.298 2325.26,973.546 2303.85,973.748C2282.43,973.95 1943.45,1028.64 1943.45,1028.64L1945.21,759.894Z" style="fill:rgb(232,207,105);"/><g transform="matrix(0.426383,0,0,0.426383,1928.52,23.2108)"><path d="M89.68,1726.9C298.785,1723.37 1086.82,1710.05 1115.38,1709.14C1148.34,1708.1 1260.26,1699.78 1260.26,1699.78L1285.47,1707.34C1285.47,1707.34 1295.53,1730.16 1307.65,1761.66C1307.46,1764.2 1307.23,1766.79 1306.94,1769.41C1304.45,1792.29 1301.49,1821.26 1288.19,1840.97C1286.84,1842.98 1256.12,1806.51 1254.28,1803.12C1231.11,1760.33 1219.23,1704.97 1156.71,1726.91C1090.45,1750.18 1185.59,1828.27 1185.14,1833.77C1184.72,1838.93 1174.79,1833.77 1169.61,1833.76C1151.65,1833.74 1054.82,1812.58 1051.96,1815.4C1043.39,1823.86 1091.85,1936.52 1045.39,1949.88C931.259,1982.72 867.437,1838.44 781.513,1798.99C685.47,1754.89 547.439,1765 443.941,1760.54C371.523,1757.42 296.35,1758.12 224.271,1765.47C169.74,1771.03 103.009,1785.62 38.731,1790.42L39.065,1739.46L74.874,1735.98C79.704,1732.92 84.637,1729.9 89.68,1726.9Z" style="fill:url(#_Linear8);"/></g><path d="M2498.55,811.039C2500.86,819.209 2502.64,827.048 2503.39,833.672C2506.73,863.01 2494.04,944.298 2494.04,944.298C2494.04,944.298 2325.26,973.546 2303.85,973.748C2282.43,973.95 1943.45,1028.64 1943.45,1028.64L1944,944.654C1960.73,944.554 1977.43,944.502 1993.87,943.564C2019.47,942.102 2045.21,943.259 2070.79,941.455C2119.85,937.994 2169.92,927.926 2219.11,928.465C2244.46,928.743 2257.94,944.521 2278.71,947.155C2302.68,950.195 2327.21,942.718 2350.07,937.918C2358.19,936.213 2366.79,938.327 2375,937.125C2388.42,935.162 2402.83,930.518 2415.83,926.534C2426.44,923.282 2434.85,870.58 2437.92,859.234C2439.2,854.491 2444.27,851.272 2444.92,846.67C2445.3,844.017 2435.99,842.081 2434.75,839.865C2433.74,838.076 2430.89,819.414 2433.22,819.964C2446.21,823.027 2477,863.118 2474.53,879.202C2473.45,886.22 2454.44,939.35 2469.14,932.664C2482.07,926.785 2495.87,871.788 2497.01,857.753C2497.77,848.381 2495.38,838.831 2495.71,829.341C2495.78,827.169 2496.96,819.032 2498.55,811.039Z" style="fill:rgb(224,191,56);"/><path d="M2438.23,780.402C2438.95,789.527 2445.01,797.38 2448.57,805.549C2452.88,815.422 2455.67,829.47 2463.95,837.147C2468.73,841.587 2469.51,848.803 2473.85,853.61C2474.91,854.783 2475.96,855.737 2477.2,856.646C2477.62,856.951 2478.08,858.245 2478.27,857.768C2479.73,854.224 2473.92,843.692 2472.6,840.386C2466.7,825.623 2461.28,809.883 2456.69,794.644C2454.07,785.953 2450.94,777.268 2443.64,772.192C2442.19,771.185 2435,766.444 2434.45,768.03" style="fill:rgb(224,191,56);"/></g></g></g></g></g></g><defs><linearGradient id="_Linear2" x1="0" y1="0" x2="1" y2="0" gradientUnits="userSpaceOnUse" gradientTransform="matrix(1415,-2498.96,2498.96,1415,3289.77,1661.35)"><stop offset="0" style="stop-color:white;stop-opacity:0"/><stop offset="1" style="stop-color:white;stop-opacity:1"/></linearGradient><linearGradient id="_Linear3" x1="0" y1="0" x2="1" y2="-0.400214" gradientUnits="userSpaceOnUse" gradientTransform="matrix(1010.78,-872.752,1785.1,494.182,1084.19,545.967)"><stop offset="0" style="stop-color:white;stop-opacity:0"/><stop offset="1" style="stop-color:white;stop-opacity:1"/></linearGradient><linearGradient id="_Linear4" x1="0" y1="0" x2="1" y2="-0.466506" gradientUnits="userSpaceOnUse" gradientTransform="matrix(1501.65,-989.887,2652,560.507,1718.61,526.636)"><stop offset="0" style="stop-color:white;stop-opacity:0"/><stop offset="1" style="stop-color:white;stop-opacity:1"/></linearGradient><linearGradient id="_Linear5" x1="0" y1="0" x2="1" y2="-0.507762" gradientUnits="userSpaceOnUse" gradientTransform="matrix(1256.08,-628.232,2218.3,355.726,2628.82,386.48)"><stop offset="0" style="stop-color:white;stop-opacity:0"/><stop offset="1" style="stop-color:white;stop-opacity:1"/></linearGradient><linearGradient id="_Linear6" x1="0" y1="0" x2="1" y2="-0.101833" gradientUnits="userSpaceOnUse" gradientTransform="matrix(543.725,-845.588,960.248,478.8,3333.23,835.673)"><stop offset="0" style="stop-color:white;stop-opacity:0"/><stop offset="1" style="stop-color:white;stop-opacity:1"/></linearGradient><linearGradient id="_Linear7" x1="0" y1="0" x2="1" y2="-0.107528" gradientUnits="userSpaceOnUse" gradientTransform="matrix(640.451,-988.382,1131.07,559.656,659.194,976.635)"><stop offset="0" style="stop-color:white;stop-opacity:0"/><stop offset="1" style="stop-color:white;stop-opacity:1"/></linearGradient><linearGradient id="_Linear8" x1="0" y1="0" x2="1" y2="0" gradientUnits="userSpaceOnUse" gradientTransform="matrix(-88.8194,-994.77,994.77,-88.8194,1032.07,2045.17)"><stop offset="0" style="stop-color:white;stop-opacity:0"/><stop offset="1" style="stop-color:white;stop-opacity:1"/></linearGradient></defs></svg>